G04 #@! TF.GenerationSoftware,KiCad,Pcbnew,(5.1.0-0)*
G04 #@! TF.CreationDate,2020-01-05T16:35:46-08:00*
G04 #@! TF.ProjectId,sapflow_gauge,73617066-6c6f-4775-9f67-617567652e6b,rev?*
G04 #@! TF.SameCoordinates,Original*
G04 #@! TF.FileFunction,Copper,L2,Bot*
G04 #@! TF.FilePolarity,Positive*
%FSLAX46Y46*%
G04 Gerber Fmt 4.6, Leading zero omitted, Abs format (unit mm)*
G04 Created by KiCad (PCBNEW (5.1.0-0)) date 2020-01-05 16:35:46*
%MOMM*%
%LPD*%
G04 APERTURE LIST*
%ADD10R,1.700000X1.700000*%
%ADD11O,1.700000X1.700000*%
%ADD12C,0.800000*%
%ADD13C,0.250000*%
G04 APERTURE END LIST*
D10*
X125680000Y-126425001D03*
D11*
X123140000Y-126425001D03*
X120600000Y-126425001D03*
X118060000Y-126425001D03*
X115520000Y-126425001D03*
D12*
X120000000Y-108000000D03*
X120325000Y-112200000D03*
X120600000Y-120820000D03*
X119526999Y-118200000D03*
X111400000Y-108995010D03*
X131603237Y-109797842D03*
X128200000Y-108875000D03*
X116200000Y-123400000D03*
X123200000Y-118000000D03*
D13*
X120000000Y-111875000D02*
X120325000Y-112200000D01*
X120000000Y-108000000D02*
X120000000Y-111875000D01*
X120600000Y-126425001D02*
X120600000Y-122800000D01*
X120600000Y-122800000D02*
X120600000Y-120820000D01*
X119526999Y-118200000D02*
X118961314Y-118200000D01*
X118961314Y-118200000D02*
X112200000Y-118200000D01*
X112200000Y-118200000D02*
X110200000Y-116200000D01*
X110200000Y-116200000D02*
X110200000Y-111200000D01*
X110200000Y-110195010D02*
X111400000Y-108995010D01*
X110200000Y-111200000D02*
X110200000Y-110195010D01*
X120452000Y-117274999D02*
X128725001Y-117274999D01*
X119526999Y-118200000D02*
X120452000Y-117274999D01*
X131603237Y-114396763D02*
X131603237Y-109797842D01*
X128725001Y-117274999D02*
X131603237Y-114396763D01*
X121164001Y-127600002D02*
X116695001Y-127600002D01*
X121775001Y-126989002D02*
X121164001Y-127600002D01*
X121775001Y-124861409D02*
X121775001Y-126989002D01*
X132328238Y-114308172D02*
X121775001Y-124861409D01*
X116369999Y-127275000D02*
X115520000Y-126425001D01*
X116695001Y-127600002D02*
X116369999Y-127275000D01*
X132328238Y-109449841D02*
X132328238Y-114308172D01*
X131753397Y-108875000D02*
X132328238Y-109449841D01*
X128200000Y-108875000D02*
X131753397Y-108875000D01*
X118060000Y-125260000D02*
X118060000Y-126425001D01*
X116200000Y-123400000D02*
X118060000Y-125260000D01*
X118060000Y-122286998D02*
X120600000Y-119746998D01*
X118060000Y-126425001D02*
X118060000Y-122286998D01*
X120887317Y-119746998D02*
X120600000Y-119746998D01*
X122634315Y-118000000D02*
X120887317Y-119746998D01*
X123200000Y-118000000D02*
X122634315Y-118000000D01*
M02*
