G04 #@! TF.GenerationSoftware,KiCad,Pcbnew,(5.1.0-0)*
G04 #@! TF.CreationDate,2020-01-05T16:35:47-08:00*
G04 #@! TF.ProjectId,sapflow_gauge,73617066-6c6f-4775-9f67-617567652e6b,rev?*
G04 #@! TF.SameCoordinates,Original*
G04 #@! TF.FileFunction,Soldermask,Top*
G04 #@! TF.FilePolarity,Negative*
%FSLAX46Y46*%
G04 Gerber Fmt 4.6, Leading zero omitted, Abs format (unit mm)*
G04 Created by KiCad (PCBNEW (5.1.0-0)) date 2020-01-05 16:35:47*
%MOMM*%
%LPD*%
G04 APERTURE LIST*
%ADD10C,0.100000*%
G04 APERTURE END LIST*
D10*
G36*
X126581000Y-127326001D02*
G01*
X124779000Y-127326001D01*
X124779000Y-125524001D01*
X126581000Y-125524001D01*
X126581000Y-127326001D01*
X126581000Y-127326001D01*
G37*
G36*
X123250443Y-125530520D02*
G01*
X123316627Y-125537038D01*
X123486466Y-125588558D01*
X123642991Y-125672223D01*
X123678729Y-125701553D01*
X123780186Y-125784815D01*
X123863448Y-125886272D01*
X123892778Y-125922010D01*
X123976443Y-126078535D01*
X124027963Y-126248374D01*
X124045359Y-126425001D01*
X124027963Y-126601628D01*
X123976443Y-126771467D01*
X123892778Y-126927992D01*
X123863448Y-126963730D01*
X123780186Y-127065187D01*
X123678729Y-127148449D01*
X123642991Y-127177779D01*
X123486466Y-127261444D01*
X123316627Y-127312964D01*
X123250443Y-127319482D01*
X123184260Y-127326001D01*
X123095740Y-127326001D01*
X123029557Y-127319482D01*
X122963373Y-127312964D01*
X122793534Y-127261444D01*
X122637009Y-127177779D01*
X122601271Y-127148449D01*
X122499814Y-127065187D01*
X122416552Y-126963730D01*
X122387222Y-126927992D01*
X122303557Y-126771467D01*
X122252037Y-126601628D01*
X122234641Y-126425001D01*
X122252037Y-126248374D01*
X122303557Y-126078535D01*
X122387222Y-125922010D01*
X122416552Y-125886272D01*
X122499814Y-125784815D01*
X122601271Y-125701553D01*
X122637009Y-125672223D01*
X122793534Y-125588558D01*
X122963373Y-125537038D01*
X123029557Y-125530520D01*
X123095740Y-125524001D01*
X123184260Y-125524001D01*
X123250443Y-125530520D01*
X123250443Y-125530520D01*
G37*
G36*
X120710443Y-125530520D02*
G01*
X120776627Y-125537038D01*
X120946466Y-125588558D01*
X121102991Y-125672223D01*
X121138729Y-125701553D01*
X121240186Y-125784815D01*
X121323448Y-125886272D01*
X121352778Y-125922010D01*
X121436443Y-126078535D01*
X121487963Y-126248374D01*
X121505359Y-126425001D01*
X121487963Y-126601628D01*
X121436443Y-126771467D01*
X121352778Y-126927992D01*
X121323448Y-126963730D01*
X121240186Y-127065187D01*
X121138729Y-127148449D01*
X121102991Y-127177779D01*
X120946466Y-127261444D01*
X120776627Y-127312964D01*
X120710443Y-127319482D01*
X120644260Y-127326001D01*
X120555740Y-127326001D01*
X120489557Y-127319482D01*
X120423373Y-127312964D01*
X120253534Y-127261444D01*
X120097009Y-127177779D01*
X120061271Y-127148449D01*
X119959814Y-127065187D01*
X119876552Y-126963730D01*
X119847222Y-126927992D01*
X119763557Y-126771467D01*
X119712037Y-126601628D01*
X119694641Y-126425001D01*
X119712037Y-126248374D01*
X119763557Y-126078535D01*
X119847222Y-125922010D01*
X119876552Y-125886272D01*
X119959814Y-125784815D01*
X120061271Y-125701553D01*
X120097009Y-125672223D01*
X120253534Y-125588558D01*
X120423373Y-125537038D01*
X120489557Y-125530520D01*
X120555740Y-125524001D01*
X120644260Y-125524001D01*
X120710443Y-125530520D01*
X120710443Y-125530520D01*
G37*
G36*
X118170443Y-125530520D02*
G01*
X118236627Y-125537038D01*
X118406466Y-125588558D01*
X118562991Y-125672223D01*
X118598729Y-125701553D01*
X118700186Y-125784815D01*
X118783448Y-125886272D01*
X118812778Y-125922010D01*
X118896443Y-126078535D01*
X118947963Y-126248374D01*
X118965359Y-126425001D01*
X118947963Y-126601628D01*
X118896443Y-126771467D01*
X118812778Y-126927992D01*
X118783448Y-126963730D01*
X118700186Y-127065187D01*
X118598729Y-127148449D01*
X118562991Y-127177779D01*
X118406466Y-127261444D01*
X118236627Y-127312964D01*
X118170443Y-127319482D01*
X118104260Y-127326001D01*
X118015740Y-127326001D01*
X117949557Y-127319482D01*
X117883373Y-127312964D01*
X117713534Y-127261444D01*
X117557009Y-127177779D01*
X117521271Y-127148449D01*
X117419814Y-127065187D01*
X117336552Y-126963730D01*
X117307222Y-126927992D01*
X117223557Y-126771467D01*
X117172037Y-126601628D01*
X117154641Y-126425001D01*
X117172037Y-126248374D01*
X117223557Y-126078535D01*
X117307222Y-125922010D01*
X117336552Y-125886272D01*
X117419814Y-125784815D01*
X117521271Y-125701553D01*
X117557009Y-125672223D01*
X117713534Y-125588558D01*
X117883373Y-125537038D01*
X117949557Y-125530520D01*
X118015740Y-125524001D01*
X118104260Y-125524001D01*
X118170443Y-125530520D01*
X118170443Y-125530520D01*
G37*
G36*
X115630443Y-125530520D02*
G01*
X115696627Y-125537038D01*
X115866466Y-125588558D01*
X116022991Y-125672223D01*
X116058729Y-125701553D01*
X116160186Y-125784815D01*
X116243448Y-125886272D01*
X116272778Y-125922010D01*
X116356443Y-126078535D01*
X116407963Y-126248374D01*
X116425359Y-126425001D01*
X116407963Y-126601628D01*
X116356443Y-126771467D01*
X116272778Y-126927992D01*
X116243448Y-126963730D01*
X116160186Y-127065187D01*
X116058729Y-127148449D01*
X116022991Y-127177779D01*
X115866466Y-127261444D01*
X115696627Y-127312964D01*
X115630443Y-127319482D01*
X115564260Y-127326001D01*
X115475740Y-127326001D01*
X115409557Y-127319482D01*
X115343373Y-127312964D01*
X115173534Y-127261444D01*
X115017009Y-127177779D01*
X114981271Y-127148449D01*
X114879814Y-127065187D01*
X114796552Y-126963730D01*
X114767222Y-126927992D01*
X114683557Y-126771467D01*
X114632037Y-126601628D01*
X114614641Y-126425001D01*
X114632037Y-126248374D01*
X114683557Y-126078535D01*
X114767222Y-125922010D01*
X114796552Y-125886272D01*
X114879814Y-125784815D01*
X114981271Y-125701553D01*
X115017009Y-125672223D01*
X115173534Y-125588558D01*
X115343373Y-125537038D01*
X115409557Y-125530520D01*
X115475740Y-125524001D01*
X115564260Y-125524001D01*
X115630443Y-125530520D01*
X115630443Y-125530520D01*
G37*
G36*
X119839499Y-123278445D02*
G01*
X119876995Y-123289820D01*
X119911554Y-123308292D01*
X119941847Y-123333153D01*
X119966708Y-123363446D01*
X119985180Y-123398005D01*
X119996555Y-123435501D01*
X120001000Y-123480638D01*
X120001000Y-124119362D01*
X119996555Y-124164499D01*
X119985180Y-124201995D01*
X119966708Y-124236554D01*
X119941847Y-124266847D01*
X119911554Y-124291708D01*
X119876995Y-124310180D01*
X119839499Y-124321555D01*
X119794362Y-124326000D01*
X119055638Y-124326000D01*
X119010501Y-124321555D01*
X118973005Y-124310180D01*
X118938446Y-124291708D01*
X118908153Y-124266847D01*
X118883292Y-124236554D01*
X118864820Y-124201995D01*
X118853445Y-124164499D01*
X118849000Y-124119362D01*
X118849000Y-123480638D01*
X118853445Y-123435501D01*
X118864820Y-123398005D01*
X118883292Y-123363446D01*
X118908153Y-123333153D01*
X118938446Y-123308292D01*
X118973005Y-123289820D01*
X119010501Y-123278445D01*
X119055638Y-123274000D01*
X119794362Y-123274000D01*
X119839499Y-123278445D01*
X119839499Y-123278445D01*
G37*
G36*
X118089499Y-123278445D02*
G01*
X118126995Y-123289820D01*
X118161554Y-123308292D01*
X118191847Y-123333153D01*
X118216708Y-123363446D01*
X118235180Y-123398005D01*
X118246555Y-123435501D01*
X118251000Y-123480638D01*
X118251000Y-124119362D01*
X118246555Y-124164499D01*
X118235180Y-124201995D01*
X118216708Y-124236554D01*
X118191847Y-124266847D01*
X118161554Y-124291708D01*
X118126995Y-124310180D01*
X118089499Y-124321555D01*
X118044362Y-124326000D01*
X117305638Y-124326000D01*
X117260501Y-124321555D01*
X117223005Y-124310180D01*
X117188446Y-124291708D01*
X117158153Y-124266847D01*
X117133292Y-124236554D01*
X117114820Y-124201995D01*
X117103445Y-124164499D01*
X117099000Y-124119362D01*
X117099000Y-123480638D01*
X117103445Y-123435501D01*
X117114820Y-123398005D01*
X117133292Y-123363446D01*
X117158153Y-123333153D01*
X117188446Y-123308292D01*
X117223005Y-123289820D01*
X117260501Y-123278445D01*
X117305638Y-123274000D01*
X118044362Y-123274000D01*
X118089499Y-123278445D01*
X118089499Y-123278445D01*
G37*
G36*
X122064499Y-123278445D02*
G01*
X122101995Y-123289820D01*
X122136554Y-123308292D01*
X122166847Y-123333153D01*
X122191708Y-123363446D01*
X122210180Y-123398005D01*
X122221555Y-123435501D01*
X122226000Y-123480638D01*
X122226000Y-124119362D01*
X122221555Y-124164499D01*
X122210180Y-124201995D01*
X122191708Y-124236554D01*
X122166847Y-124266847D01*
X122136554Y-124291708D01*
X122101995Y-124310180D01*
X122064499Y-124321555D01*
X122019362Y-124326000D01*
X121280638Y-124326000D01*
X121235501Y-124321555D01*
X121198005Y-124310180D01*
X121163446Y-124291708D01*
X121133153Y-124266847D01*
X121108292Y-124236554D01*
X121089820Y-124201995D01*
X121078445Y-124164499D01*
X121074000Y-124119362D01*
X121074000Y-123480638D01*
X121078445Y-123435501D01*
X121089820Y-123398005D01*
X121108292Y-123363446D01*
X121133153Y-123333153D01*
X121163446Y-123308292D01*
X121198005Y-123289820D01*
X121235501Y-123278445D01*
X121280638Y-123274000D01*
X122019362Y-123274000D01*
X122064499Y-123278445D01*
X122064499Y-123278445D01*
G37*
G36*
X123814499Y-123278445D02*
G01*
X123851995Y-123289820D01*
X123886554Y-123308292D01*
X123916847Y-123333153D01*
X123941708Y-123363446D01*
X123960180Y-123398005D01*
X123971555Y-123435501D01*
X123976000Y-123480638D01*
X123976000Y-124119362D01*
X123971555Y-124164499D01*
X123960180Y-124201995D01*
X123941708Y-124236554D01*
X123916847Y-124266847D01*
X123886554Y-124291708D01*
X123851995Y-124310180D01*
X123814499Y-124321555D01*
X123769362Y-124326000D01*
X123030638Y-124326000D01*
X122985501Y-124321555D01*
X122948005Y-124310180D01*
X122913446Y-124291708D01*
X122883153Y-124266847D01*
X122858292Y-124236554D01*
X122839820Y-124201995D01*
X122828445Y-124164499D01*
X122824000Y-124119362D01*
X122824000Y-123480638D01*
X122828445Y-123435501D01*
X122839820Y-123398005D01*
X122858292Y-123363446D01*
X122883153Y-123333153D01*
X122913446Y-123308292D01*
X122948005Y-123289820D01*
X122985501Y-123278445D01*
X123030638Y-123274000D01*
X123769362Y-123274000D01*
X123814499Y-123278445D01*
X123814499Y-123278445D01*
G37*
G36*
X122064499Y-121278445D02*
G01*
X122101995Y-121289820D01*
X122136554Y-121308292D01*
X122166847Y-121333153D01*
X122191708Y-121363446D01*
X122210180Y-121398005D01*
X122221555Y-121435501D01*
X122226000Y-121480638D01*
X122226000Y-122119362D01*
X122221555Y-122164499D01*
X122210180Y-122201995D01*
X122191708Y-122236554D01*
X122166847Y-122266847D01*
X122136554Y-122291708D01*
X122101995Y-122310180D01*
X122064499Y-122321555D01*
X122019362Y-122326000D01*
X121280638Y-122326000D01*
X121235501Y-122321555D01*
X121198005Y-122310180D01*
X121163446Y-122291708D01*
X121133153Y-122266847D01*
X121108292Y-122236554D01*
X121089820Y-122201995D01*
X121078445Y-122164499D01*
X121074000Y-122119362D01*
X121074000Y-121480638D01*
X121078445Y-121435501D01*
X121089820Y-121398005D01*
X121108292Y-121363446D01*
X121133153Y-121333153D01*
X121163446Y-121308292D01*
X121198005Y-121289820D01*
X121235501Y-121278445D01*
X121280638Y-121274000D01*
X122019362Y-121274000D01*
X122064499Y-121278445D01*
X122064499Y-121278445D01*
G37*
G36*
X123814499Y-121278445D02*
G01*
X123851995Y-121289820D01*
X123886554Y-121308292D01*
X123916847Y-121333153D01*
X123941708Y-121363446D01*
X123960180Y-121398005D01*
X123971555Y-121435501D01*
X123976000Y-121480638D01*
X123976000Y-122119362D01*
X123971555Y-122164499D01*
X123960180Y-122201995D01*
X123941708Y-122236554D01*
X123916847Y-122266847D01*
X123886554Y-122291708D01*
X123851995Y-122310180D01*
X123814499Y-122321555D01*
X123769362Y-122326000D01*
X123030638Y-122326000D01*
X122985501Y-122321555D01*
X122948005Y-122310180D01*
X122913446Y-122291708D01*
X122883153Y-122266847D01*
X122858292Y-122236554D01*
X122839820Y-122201995D01*
X122828445Y-122164499D01*
X122824000Y-122119362D01*
X122824000Y-121480638D01*
X122828445Y-121435501D01*
X122839820Y-121398005D01*
X122858292Y-121363446D01*
X122883153Y-121333153D01*
X122913446Y-121308292D01*
X122948005Y-121289820D01*
X122985501Y-121278445D01*
X123030638Y-121274000D01*
X123769362Y-121274000D01*
X123814499Y-121278445D01*
X123814499Y-121278445D01*
G37*
G36*
X120101000Y-122221000D02*
G01*
X119099000Y-122221000D01*
X119099000Y-121319000D01*
X120101000Y-121319000D01*
X120101000Y-122221000D01*
X120101000Y-122221000D01*
G37*
G36*
X118101000Y-121271000D02*
G01*
X117099000Y-121271000D01*
X117099000Y-120369000D01*
X118101000Y-120369000D01*
X118101000Y-121271000D01*
X118101000Y-121271000D01*
G37*
G36*
X123814499Y-119278445D02*
G01*
X123851995Y-119289820D01*
X123886554Y-119308292D01*
X123916847Y-119333153D01*
X123941708Y-119363446D01*
X123960180Y-119398005D01*
X123971555Y-119435501D01*
X123976000Y-119480638D01*
X123976000Y-120119362D01*
X123971555Y-120164499D01*
X123960180Y-120201995D01*
X123941708Y-120236554D01*
X123916847Y-120266847D01*
X123886554Y-120291708D01*
X123851995Y-120310180D01*
X123814499Y-120321555D01*
X123769362Y-120326000D01*
X123030638Y-120326000D01*
X122985501Y-120321555D01*
X122948005Y-120310180D01*
X122913446Y-120291708D01*
X122883153Y-120266847D01*
X122858292Y-120236554D01*
X122839820Y-120201995D01*
X122828445Y-120164499D01*
X122824000Y-120119362D01*
X122824000Y-119480638D01*
X122828445Y-119435501D01*
X122839820Y-119398005D01*
X122858292Y-119363446D01*
X122883153Y-119333153D01*
X122913446Y-119308292D01*
X122948005Y-119289820D01*
X122985501Y-119278445D01*
X123030638Y-119274000D01*
X123769362Y-119274000D01*
X123814499Y-119278445D01*
X123814499Y-119278445D01*
G37*
G36*
X122064499Y-119278445D02*
G01*
X122101995Y-119289820D01*
X122136554Y-119308292D01*
X122166847Y-119333153D01*
X122191708Y-119363446D01*
X122210180Y-119398005D01*
X122221555Y-119435501D01*
X122226000Y-119480638D01*
X122226000Y-120119362D01*
X122221555Y-120164499D01*
X122210180Y-120201995D01*
X122191708Y-120236554D01*
X122166847Y-120266847D01*
X122136554Y-120291708D01*
X122101995Y-120310180D01*
X122064499Y-120321555D01*
X122019362Y-120326000D01*
X121280638Y-120326000D01*
X121235501Y-120321555D01*
X121198005Y-120310180D01*
X121163446Y-120291708D01*
X121133153Y-120266847D01*
X121108292Y-120236554D01*
X121089820Y-120201995D01*
X121078445Y-120164499D01*
X121074000Y-120119362D01*
X121074000Y-119480638D01*
X121078445Y-119435501D01*
X121089820Y-119398005D01*
X121108292Y-119363446D01*
X121133153Y-119333153D01*
X121163446Y-119308292D01*
X121198005Y-119289820D01*
X121235501Y-119278445D01*
X121280638Y-119274000D01*
X122019362Y-119274000D01*
X122064499Y-119278445D01*
X122064499Y-119278445D01*
G37*
G36*
X120101000Y-120321000D02*
G01*
X119099000Y-120321000D01*
X119099000Y-119419000D01*
X120101000Y-119419000D01*
X120101000Y-120321000D01*
X120101000Y-120321000D01*
G37*
G36*
X120775562Y-108723181D02*
G01*
X120810481Y-108733774D01*
X120842663Y-108750976D01*
X120870873Y-108774127D01*
X120894024Y-108802337D01*
X120911226Y-108834519D01*
X120921819Y-108869438D01*
X120926000Y-108911895D01*
X120926000Y-110053105D01*
X120921819Y-110095562D01*
X120911226Y-110130481D01*
X120894024Y-110162663D01*
X120870873Y-110190873D01*
X120842663Y-110214024D01*
X120810481Y-110231226D01*
X120775562Y-110241819D01*
X120733105Y-110246000D01*
X119266895Y-110246000D01*
X119224438Y-110241819D01*
X119189519Y-110231226D01*
X119157337Y-110214024D01*
X119129127Y-110190873D01*
X119105976Y-110162663D01*
X119088774Y-110130481D01*
X119078181Y-110095562D01*
X119074000Y-110053105D01*
X119074000Y-108911895D01*
X119078181Y-108869438D01*
X119088774Y-108834519D01*
X119105976Y-108802337D01*
X119129127Y-108774127D01*
X119157337Y-108750976D01*
X119189519Y-108733774D01*
X119224438Y-108723181D01*
X119266895Y-108719000D01*
X120733105Y-108719000D01*
X120775562Y-108723181D01*
X120775562Y-108723181D01*
G37*
G36*
X110564499Y-108298445D02*
G01*
X110601995Y-108309820D01*
X110636554Y-108328292D01*
X110666847Y-108353153D01*
X110691708Y-108383446D01*
X110710180Y-108418005D01*
X110721555Y-108455501D01*
X110726000Y-108500638D01*
X110726000Y-109239362D01*
X110721555Y-109284499D01*
X110710180Y-109321995D01*
X110691708Y-109356554D01*
X110666847Y-109386847D01*
X110636554Y-109411708D01*
X110601995Y-109430180D01*
X110564499Y-109441555D01*
X110519362Y-109446000D01*
X109880638Y-109446000D01*
X109835501Y-109441555D01*
X109798005Y-109430180D01*
X109763446Y-109411708D01*
X109733153Y-109386847D01*
X109708292Y-109356554D01*
X109689820Y-109321995D01*
X109678445Y-109284499D01*
X109674000Y-109239362D01*
X109674000Y-108500638D01*
X109678445Y-108455501D01*
X109689820Y-108418005D01*
X109708292Y-108383446D01*
X109733153Y-108353153D01*
X109763446Y-108328292D01*
X109798005Y-108309820D01*
X109835501Y-108298445D01*
X109880638Y-108294000D01*
X110519362Y-108294000D01*
X110564499Y-108298445D01*
X110564499Y-108298445D01*
G37*
G36*
X130164499Y-108298445D02*
G01*
X130201995Y-108309820D01*
X130236554Y-108328292D01*
X130266847Y-108353153D01*
X130291708Y-108383446D01*
X130310180Y-108418005D01*
X130321555Y-108455501D01*
X130326000Y-108500638D01*
X130326000Y-109239362D01*
X130321555Y-109284499D01*
X130310180Y-109321995D01*
X130291708Y-109356554D01*
X130266847Y-109386847D01*
X130236554Y-109411708D01*
X130201995Y-109430180D01*
X130164499Y-109441555D01*
X130119362Y-109446000D01*
X129480638Y-109446000D01*
X129435501Y-109441555D01*
X129398005Y-109430180D01*
X129363446Y-109411708D01*
X129333153Y-109386847D01*
X129308292Y-109356554D01*
X129289820Y-109321995D01*
X129278445Y-109284499D01*
X129274000Y-109239362D01*
X129274000Y-108500638D01*
X129278445Y-108455501D01*
X129289820Y-108418005D01*
X129308292Y-108383446D01*
X129333153Y-108353153D01*
X129363446Y-108328292D01*
X129398005Y-108309820D01*
X129435501Y-108298445D01*
X129480638Y-108294000D01*
X130119362Y-108294000D01*
X130164499Y-108298445D01*
X130164499Y-108298445D01*
G37*
G36*
X114837611Y-106762389D02*
G01*
X114856553Y-106777934D01*
X114878164Y-106789485D01*
X114901613Y-106796598D01*
X114925999Y-106799000D01*
X115751000Y-106799000D01*
X115751000Y-107301000D01*
X114925999Y-107301000D01*
X114901613Y-107303402D01*
X114878164Y-107310515D01*
X114856553Y-107322066D01*
X114837611Y-107337611D01*
X114822066Y-107356553D01*
X114810515Y-107378164D01*
X114803402Y-107401613D01*
X114801000Y-107425999D01*
X114801000Y-107624001D01*
X114803402Y-107648387D01*
X114810515Y-107671836D01*
X114822066Y-107693447D01*
X114837611Y-107712389D01*
X114856553Y-107727934D01*
X114878164Y-107739485D01*
X114901613Y-107746598D01*
X114925999Y-107749000D01*
X115751000Y-107749000D01*
X115751000Y-108251000D01*
X114925999Y-108251000D01*
X114901613Y-108253402D01*
X114878164Y-108260515D01*
X114856553Y-108272066D01*
X114837611Y-108287611D01*
X114822066Y-108306553D01*
X114810515Y-108328164D01*
X114803402Y-108351613D01*
X114801000Y-108375999D01*
X114801000Y-108574001D01*
X114803402Y-108598387D01*
X114810515Y-108621836D01*
X114822066Y-108643447D01*
X114837611Y-108662389D01*
X114856553Y-108677934D01*
X114878164Y-108689485D01*
X114901613Y-108696598D01*
X114925999Y-108699000D01*
X115751000Y-108699000D01*
X115751000Y-109201000D01*
X114925999Y-109201000D01*
X114901613Y-109203402D01*
X114878164Y-109210515D01*
X114856553Y-109222066D01*
X114837611Y-109237611D01*
X114826623Y-109251000D01*
X113173377Y-109251000D01*
X113162389Y-109237611D01*
X113143447Y-109222066D01*
X113121836Y-109210515D01*
X113098387Y-109203402D01*
X113074001Y-109201000D01*
X112249000Y-109201000D01*
X112249000Y-108699000D01*
X113074001Y-108699000D01*
X113098387Y-108696598D01*
X113121836Y-108689485D01*
X113143447Y-108677934D01*
X113162389Y-108662389D01*
X113177934Y-108643447D01*
X113189485Y-108621836D01*
X113196598Y-108598387D01*
X113199000Y-108574001D01*
X113199000Y-108375999D01*
X113196598Y-108351613D01*
X113189485Y-108328164D01*
X113177934Y-108306553D01*
X113162389Y-108287611D01*
X113143447Y-108272066D01*
X113121836Y-108260515D01*
X113098387Y-108253402D01*
X113074001Y-108251000D01*
X112249000Y-108251000D01*
X112249000Y-107749000D01*
X113074001Y-107749000D01*
X113098387Y-107746598D01*
X113121836Y-107739485D01*
X113143447Y-107727934D01*
X113162389Y-107712389D01*
X113177934Y-107693447D01*
X113189485Y-107671836D01*
X113196598Y-107648387D01*
X113199000Y-107624001D01*
X113199000Y-107425999D01*
X113196598Y-107401613D01*
X113189485Y-107378164D01*
X113177934Y-107356553D01*
X113162389Y-107337611D01*
X113143447Y-107322066D01*
X113121836Y-107310515D01*
X113098387Y-107303402D01*
X113074001Y-107301000D01*
X112249000Y-107301000D01*
X112249000Y-106799000D01*
X113074001Y-106799000D01*
X113098387Y-106796598D01*
X113121836Y-106789485D01*
X113143447Y-106777934D01*
X113162389Y-106762389D01*
X113173377Y-106749000D01*
X114826623Y-106749000D01*
X114837611Y-106762389D01*
X114837611Y-106762389D01*
G37*
G36*
X126837611Y-106752389D02*
G01*
X126856553Y-106767934D01*
X126878164Y-106779485D01*
X126901613Y-106786598D01*
X126925999Y-106789000D01*
X127751000Y-106789000D01*
X127751000Y-107291000D01*
X126925999Y-107291000D01*
X126901613Y-107293402D01*
X126878164Y-107300515D01*
X126856553Y-107312066D01*
X126837611Y-107327611D01*
X126822066Y-107346553D01*
X126810515Y-107368164D01*
X126803402Y-107391613D01*
X126801000Y-107415999D01*
X126801000Y-107614001D01*
X126803402Y-107638387D01*
X126810515Y-107661836D01*
X126822066Y-107683447D01*
X126837611Y-107702389D01*
X126856553Y-107717934D01*
X126878164Y-107729485D01*
X126901613Y-107736598D01*
X126925999Y-107739000D01*
X127751000Y-107739000D01*
X127751000Y-108241000D01*
X126925999Y-108241000D01*
X126901613Y-108243402D01*
X126878164Y-108250515D01*
X126856553Y-108262066D01*
X126837611Y-108277611D01*
X126822066Y-108296553D01*
X126810515Y-108318164D01*
X126803402Y-108341613D01*
X126801000Y-108365999D01*
X126801000Y-108564001D01*
X126803402Y-108588387D01*
X126810515Y-108611836D01*
X126822066Y-108633447D01*
X126837611Y-108652389D01*
X126856553Y-108667934D01*
X126878164Y-108679485D01*
X126901613Y-108686598D01*
X126925999Y-108689000D01*
X127751000Y-108689000D01*
X127751000Y-109191000D01*
X126925999Y-109191000D01*
X126901613Y-109193402D01*
X126878164Y-109200515D01*
X126856553Y-109212066D01*
X126837611Y-109227611D01*
X126826623Y-109241000D01*
X125173377Y-109241000D01*
X125162389Y-109227611D01*
X125143447Y-109212066D01*
X125121836Y-109200515D01*
X125098387Y-109193402D01*
X125074001Y-109191000D01*
X124249000Y-109191000D01*
X124249000Y-108689000D01*
X125074001Y-108689000D01*
X125098387Y-108686598D01*
X125121836Y-108679485D01*
X125143447Y-108667934D01*
X125162389Y-108652389D01*
X125177934Y-108633447D01*
X125189485Y-108611836D01*
X125196598Y-108588387D01*
X125199000Y-108564001D01*
X125199000Y-108365999D01*
X125196598Y-108341613D01*
X125189485Y-108318164D01*
X125177934Y-108296553D01*
X125162389Y-108277611D01*
X125143447Y-108262066D01*
X125121836Y-108250515D01*
X125098387Y-108243402D01*
X125074001Y-108241000D01*
X124249000Y-108241000D01*
X124249000Y-107739000D01*
X125074001Y-107739000D01*
X125098387Y-107736598D01*
X125121836Y-107729485D01*
X125143447Y-107717934D01*
X125162389Y-107702389D01*
X125177934Y-107683447D01*
X125189485Y-107661836D01*
X125196598Y-107638387D01*
X125199000Y-107614001D01*
X125199000Y-107415999D01*
X125196598Y-107391613D01*
X125189485Y-107368164D01*
X125177934Y-107346553D01*
X125162389Y-107327611D01*
X125143447Y-107312066D01*
X125121836Y-107300515D01*
X125098387Y-107293402D01*
X125074001Y-107291000D01*
X124249000Y-107291000D01*
X124249000Y-106789000D01*
X125074001Y-106789000D01*
X125098387Y-106786598D01*
X125121836Y-106779485D01*
X125143447Y-106767934D01*
X125162389Y-106752389D01*
X125173377Y-106739000D01*
X126826623Y-106739000D01*
X126837611Y-106752389D01*
X126837611Y-106752389D01*
G37*
G36*
X110564499Y-106548445D02*
G01*
X110601995Y-106559820D01*
X110636554Y-106578292D01*
X110666847Y-106603153D01*
X110691708Y-106633446D01*
X110710180Y-106668005D01*
X110721555Y-106705501D01*
X110726000Y-106750638D01*
X110726000Y-107489362D01*
X110721555Y-107534499D01*
X110710180Y-107571995D01*
X110691708Y-107606554D01*
X110666847Y-107636847D01*
X110636554Y-107661708D01*
X110601995Y-107680180D01*
X110564499Y-107691555D01*
X110519362Y-107696000D01*
X109880638Y-107696000D01*
X109835501Y-107691555D01*
X109798005Y-107680180D01*
X109763446Y-107661708D01*
X109733153Y-107636847D01*
X109708292Y-107606554D01*
X109689820Y-107571995D01*
X109678445Y-107534499D01*
X109674000Y-107489362D01*
X109674000Y-106750638D01*
X109678445Y-106705501D01*
X109689820Y-106668005D01*
X109708292Y-106633446D01*
X109733153Y-106603153D01*
X109763446Y-106578292D01*
X109798005Y-106559820D01*
X109835501Y-106548445D01*
X109880638Y-106544000D01*
X110519362Y-106544000D01*
X110564499Y-106548445D01*
X110564499Y-106548445D01*
G37*
G36*
X130164499Y-106548445D02*
G01*
X130201995Y-106559820D01*
X130236554Y-106578292D01*
X130266847Y-106603153D01*
X130291708Y-106633446D01*
X130310180Y-106668005D01*
X130321555Y-106705501D01*
X130326000Y-106750638D01*
X130326000Y-107489362D01*
X130321555Y-107534499D01*
X130310180Y-107571995D01*
X130291708Y-107606554D01*
X130266847Y-107636847D01*
X130236554Y-107661708D01*
X130201995Y-107680180D01*
X130164499Y-107691555D01*
X130119362Y-107696000D01*
X129480638Y-107696000D01*
X129435501Y-107691555D01*
X129398005Y-107680180D01*
X129363446Y-107661708D01*
X129333153Y-107636847D01*
X129308292Y-107606554D01*
X129289820Y-107571995D01*
X129278445Y-107534499D01*
X129274000Y-107489362D01*
X129274000Y-106750638D01*
X129278445Y-106705501D01*
X129289820Y-106668005D01*
X129308292Y-106633446D01*
X129333153Y-106603153D01*
X129363446Y-106578292D01*
X129398005Y-106559820D01*
X129435501Y-106548445D01*
X129480638Y-106544000D01*
X130119362Y-106544000D01*
X130164499Y-106548445D01*
X130164499Y-106548445D01*
G37*
G36*
X120775562Y-105748181D02*
G01*
X120810481Y-105758774D01*
X120842663Y-105775976D01*
X120870873Y-105799127D01*
X120894024Y-105827337D01*
X120911226Y-105859519D01*
X120921819Y-105894438D01*
X120926000Y-105936895D01*
X120926000Y-107078105D01*
X120921819Y-107120562D01*
X120911226Y-107155481D01*
X120894024Y-107187663D01*
X120870873Y-107215873D01*
X120842663Y-107239024D01*
X120810481Y-107256226D01*
X120775562Y-107266819D01*
X120733105Y-107271000D01*
X119266895Y-107271000D01*
X119224438Y-107266819D01*
X119189519Y-107256226D01*
X119157337Y-107239024D01*
X119129127Y-107215873D01*
X119105976Y-107187663D01*
X119088774Y-107155481D01*
X119078181Y-107120562D01*
X119074000Y-107078105D01*
X119074000Y-105936895D01*
X119078181Y-105894438D01*
X119088774Y-105859519D01*
X119105976Y-105827337D01*
X119129127Y-105799127D01*
X119157337Y-105775976D01*
X119189519Y-105758774D01*
X119224438Y-105748181D01*
X119266895Y-105744000D01*
X120733105Y-105744000D01*
X120775562Y-105748181D01*
X120775562Y-105748181D01*
G37*
M02*
