G04 #@! TF.GenerationSoftware,KiCad,Pcbnew,(5.1.0-0)*
G04 #@! TF.CreationDate,2020-01-05T16:35:47-08:00*
G04 #@! TF.ProjectId,sapflow_gauge,73617066-6c6f-4775-9f67-617567652e6b,rev?*
G04 #@! TF.SameCoordinates,Original*
G04 #@! TF.FileFunction,Soldermask,Bot*
G04 #@! TF.FilePolarity,Negative*
%FSLAX46Y46*%
G04 Gerber Fmt 4.6, Leading zero omitted, Abs format (unit mm)*
G04 Created by KiCad (PCBNEW (5.1.0-0)) date 2020-01-05 16:35:47*
%MOMM*%
%LPD*%
G04 APERTURE LIST*
%ADD10C,0.100000*%
G04 APERTURE END LIST*
D10*
G36*
X126581000Y-127326001D02*
G01*
X124779000Y-127326001D01*
X124779000Y-125524001D01*
X126581000Y-125524001D01*
X126581000Y-127326001D01*
X126581000Y-127326001D01*
G37*
G36*
X123250443Y-125530520D02*
G01*
X123316627Y-125537038D01*
X123486466Y-125588558D01*
X123642991Y-125672223D01*
X123678729Y-125701553D01*
X123780186Y-125784815D01*
X123863448Y-125886272D01*
X123892778Y-125922010D01*
X123976443Y-126078535D01*
X124027963Y-126248374D01*
X124045359Y-126425001D01*
X124027963Y-126601628D01*
X123976443Y-126771467D01*
X123892778Y-126927992D01*
X123863448Y-126963730D01*
X123780186Y-127065187D01*
X123678729Y-127148449D01*
X123642991Y-127177779D01*
X123486466Y-127261444D01*
X123316627Y-127312964D01*
X123250443Y-127319482D01*
X123184260Y-127326001D01*
X123095740Y-127326001D01*
X123029557Y-127319482D01*
X122963373Y-127312964D01*
X122793534Y-127261444D01*
X122637009Y-127177779D01*
X122601271Y-127148449D01*
X122499814Y-127065187D01*
X122416552Y-126963730D01*
X122387222Y-126927992D01*
X122303557Y-126771467D01*
X122252037Y-126601628D01*
X122234641Y-126425001D01*
X122252037Y-126248374D01*
X122303557Y-126078535D01*
X122387222Y-125922010D01*
X122416552Y-125886272D01*
X122499814Y-125784815D01*
X122601271Y-125701553D01*
X122637009Y-125672223D01*
X122793534Y-125588558D01*
X122963373Y-125537038D01*
X123029557Y-125530520D01*
X123095740Y-125524001D01*
X123184260Y-125524001D01*
X123250443Y-125530520D01*
X123250443Y-125530520D01*
G37*
G36*
X120710443Y-125530520D02*
G01*
X120776627Y-125537038D01*
X120946466Y-125588558D01*
X121102991Y-125672223D01*
X121138729Y-125701553D01*
X121240186Y-125784815D01*
X121323448Y-125886272D01*
X121352778Y-125922010D01*
X121436443Y-126078535D01*
X121487963Y-126248374D01*
X121505359Y-126425001D01*
X121487963Y-126601628D01*
X121436443Y-126771467D01*
X121352778Y-126927992D01*
X121323448Y-126963730D01*
X121240186Y-127065187D01*
X121138729Y-127148449D01*
X121102991Y-127177779D01*
X120946466Y-127261444D01*
X120776627Y-127312964D01*
X120710443Y-127319482D01*
X120644260Y-127326001D01*
X120555740Y-127326001D01*
X120489557Y-127319482D01*
X120423373Y-127312964D01*
X120253534Y-127261444D01*
X120097009Y-127177779D01*
X120061271Y-127148449D01*
X119959814Y-127065187D01*
X119876552Y-126963730D01*
X119847222Y-126927992D01*
X119763557Y-126771467D01*
X119712037Y-126601628D01*
X119694641Y-126425001D01*
X119712037Y-126248374D01*
X119763557Y-126078535D01*
X119847222Y-125922010D01*
X119876552Y-125886272D01*
X119959814Y-125784815D01*
X120061271Y-125701553D01*
X120097009Y-125672223D01*
X120253534Y-125588558D01*
X120423373Y-125537038D01*
X120489557Y-125530520D01*
X120555740Y-125524001D01*
X120644260Y-125524001D01*
X120710443Y-125530520D01*
X120710443Y-125530520D01*
G37*
G36*
X118170443Y-125530520D02*
G01*
X118236627Y-125537038D01*
X118406466Y-125588558D01*
X118562991Y-125672223D01*
X118598729Y-125701553D01*
X118700186Y-125784815D01*
X118783448Y-125886272D01*
X118812778Y-125922010D01*
X118896443Y-126078535D01*
X118947963Y-126248374D01*
X118965359Y-126425001D01*
X118947963Y-126601628D01*
X118896443Y-126771467D01*
X118812778Y-126927992D01*
X118783448Y-126963730D01*
X118700186Y-127065187D01*
X118598729Y-127148449D01*
X118562991Y-127177779D01*
X118406466Y-127261444D01*
X118236627Y-127312964D01*
X118170443Y-127319482D01*
X118104260Y-127326001D01*
X118015740Y-127326001D01*
X117949557Y-127319482D01*
X117883373Y-127312964D01*
X117713534Y-127261444D01*
X117557009Y-127177779D01*
X117521271Y-127148449D01*
X117419814Y-127065187D01*
X117336552Y-126963730D01*
X117307222Y-126927992D01*
X117223557Y-126771467D01*
X117172037Y-126601628D01*
X117154641Y-126425001D01*
X117172037Y-126248374D01*
X117223557Y-126078535D01*
X117307222Y-125922010D01*
X117336552Y-125886272D01*
X117419814Y-125784815D01*
X117521271Y-125701553D01*
X117557009Y-125672223D01*
X117713534Y-125588558D01*
X117883373Y-125537038D01*
X117949557Y-125530520D01*
X118015740Y-125524001D01*
X118104260Y-125524001D01*
X118170443Y-125530520D01*
X118170443Y-125530520D01*
G37*
G36*
X115630443Y-125530520D02*
G01*
X115696627Y-125537038D01*
X115866466Y-125588558D01*
X116022991Y-125672223D01*
X116058729Y-125701553D01*
X116160186Y-125784815D01*
X116243448Y-125886272D01*
X116272778Y-125922010D01*
X116356443Y-126078535D01*
X116407963Y-126248374D01*
X116425359Y-126425001D01*
X116407963Y-126601628D01*
X116356443Y-126771467D01*
X116272778Y-126927992D01*
X116243448Y-126963730D01*
X116160186Y-127065187D01*
X116058729Y-127148449D01*
X116022991Y-127177779D01*
X115866466Y-127261444D01*
X115696627Y-127312964D01*
X115630443Y-127319482D01*
X115564260Y-127326001D01*
X115475740Y-127326001D01*
X115409557Y-127319482D01*
X115343373Y-127312964D01*
X115173534Y-127261444D01*
X115017009Y-127177779D01*
X114981271Y-127148449D01*
X114879814Y-127065187D01*
X114796552Y-126963730D01*
X114767222Y-126927992D01*
X114683557Y-126771467D01*
X114632037Y-126601628D01*
X114614641Y-126425001D01*
X114632037Y-126248374D01*
X114683557Y-126078535D01*
X114767222Y-125922010D01*
X114796552Y-125886272D01*
X114879814Y-125784815D01*
X114981271Y-125701553D01*
X115017009Y-125672223D01*
X115173534Y-125588558D01*
X115343373Y-125537038D01*
X115409557Y-125530520D01*
X115475740Y-125524001D01*
X115564260Y-125524001D01*
X115630443Y-125530520D01*
X115630443Y-125530520D01*
G37*
M02*
