G04 #@! TF.GenerationSoftware,KiCad,Pcbnew,(5.1.0-0)*
G04 #@! TF.CreationDate,2020-01-05T16:35:47-08:00*
G04 #@! TF.ProjectId,sapflow_gauge,73617066-6c6f-4775-9f67-617567652e6b,rev?*
G04 #@! TF.SameCoordinates,Original*
G04 #@! TF.FileFunction,Legend,Top*
G04 #@! TF.FilePolarity,Positive*
%FSLAX46Y46*%
G04 Gerber Fmt 4.6, Leading zero omitted, Abs format (unit mm)*
G04 Created by KiCad (PCBNEW (5.1.0-0)) date 2020-01-05 16:35:47*
%MOMM*%
%LPD*%
G04 APERTURE LIST*
%ADD10C,0.120000*%
%ADD11C,0.150000*%
%ADD12C,0.125000*%
G04 APERTURE END LIST*
D10*
X110710000Y-107823733D02*
X110710000Y-108166267D01*
X109690000Y-107823733D02*
X109690000Y-108166267D01*
X129290000Y-107823733D02*
X129290000Y-108166267D01*
X130310000Y-107823733D02*
X130310000Y-108166267D01*
X114190000Y-125095001D02*
X114190000Y-127755001D01*
X124410000Y-125095001D02*
X114190000Y-125095001D01*
X124410000Y-127755001D02*
X114190000Y-127755001D01*
X124410000Y-125095001D02*
X124410000Y-127755001D01*
X125680000Y-125095001D02*
X127010000Y-125095001D01*
X127010000Y-125095001D02*
X127010000Y-126425001D01*
X117840000Y-119240000D02*
X117840000Y-120170000D01*
X117840000Y-122400000D02*
X117840000Y-121470000D01*
X117840000Y-122400000D02*
X120000000Y-122400000D01*
X117840000Y-119240000D02*
X119300000Y-119240000D01*
X122696267Y-124310000D02*
X122353733Y-124310000D01*
X122696267Y-123290000D02*
X122353733Y-123290000D01*
X118721267Y-123290000D02*
X118378733Y-123290000D01*
X118721267Y-124310000D02*
X118378733Y-124310000D01*
X122696267Y-122310000D02*
X122353733Y-122310000D01*
X122696267Y-121290000D02*
X122353733Y-121290000D01*
X122353733Y-120310000D02*
X122696267Y-120310000D01*
X122353733Y-119290000D02*
X122696267Y-119290000D01*
D11*
X124525000Y-109690000D02*
X127475000Y-109690000D01*
X124900000Y-106290000D02*
X127100000Y-106290000D01*
X115100000Y-109700000D02*
X112900000Y-109700000D01*
X115475000Y-106300000D02*
X112525000Y-106300000D01*
D10*
X119090000Y-108597064D02*
X119090000Y-107392936D01*
X120910000Y-108597064D02*
X120910000Y-107392936D01*
D12*
X111356190Y-108816428D02*
X111356190Y-108768809D01*
X111380000Y-108721190D01*
X111403809Y-108697380D01*
X111451428Y-108673571D01*
X111546666Y-108649761D01*
X111665714Y-108649761D01*
X111760952Y-108673571D01*
X111808571Y-108697380D01*
X111832380Y-108721190D01*
X111856190Y-108768809D01*
X111856190Y-108816428D01*
X111832380Y-108864047D01*
X111808571Y-108887857D01*
X111760952Y-108911666D01*
X111665714Y-108935476D01*
X111546666Y-108935476D01*
X111451428Y-108911666D01*
X111403809Y-108887857D01*
X111380000Y-108864047D01*
X111356190Y-108816428D01*
X111808571Y-108435476D02*
X111832380Y-108411666D01*
X111856190Y-108435476D01*
X111832380Y-108459285D01*
X111808571Y-108435476D01*
X111856190Y-108435476D01*
X111856190Y-107935476D02*
X111856190Y-108221190D01*
X111856190Y-108078333D02*
X111356190Y-108078333D01*
X111427619Y-108125952D01*
X111475238Y-108173571D01*
X111499047Y-108221190D01*
X111522857Y-107506904D02*
X111856190Y-107506904D01*
X111522857Y-107721190D02*
X111784761Y-107721190D01*
X111832380Y-107697380D01*
X111856190Y-107649761D01*
X111856190Y-107578333D01*
X111832380Y-107530714D01*
X111808571Y-107506904D01*
X111594285Y-107102142D02*
X111594285Y-107268809D01*
X111856190Y-107268809D02*
X111356190Y-107268809D01*
X111356190Y-107030714D01*
X130726190Y-108816428D02*
X130726190Y-108768809D01*
X130750000Y-108721190D01*
X130773809Y-108697380D01*
X130821428Y-108673571D01*
X130916666Y-108649761D01*
X131035714Y-108649761D01*
X131130952Y-108673571D01*
X131178571Y-108697380D01*
X131202380Y-108721190D01*
X131226190Y-108768809D01*
X131226190Y-108816428D01*
X131202380Y-108864047D01*
X131178571Y-108887857D01*
X131130952Y-108911666D01*
X131035714Y-108935476D01*
X130916666Y-108935476D01*
X130821428Y-108911666D01*
X130773809Y-108887857D01*
X130750000Y-108864047D01*
X130726190Y-108816428D01*
X131178571Y-108435476D02*
X131202380Y-108411666D01*
X131226190Y-108435476D01*
X131202380Y-108459285D01*
X131178571Y-108435476D01*
X131226190Y-108435476D01*
X131226190Y-107935476D02*
X131226190Y-108221190D01*
X131226190Y-108078333D02*
X130726190Y-108078333D01*
X130797619Y-108125952D01*
X130845238Y-108173571D01*
X130869047Y-108221190D01*
X130892857Y-107506904D02*
X131226190Y-107506904D01*
X130892857Y-107721190D02*
X131154761Y-107721190D01*
X131202380Y-107697380D01*
X131226190Y-107649761D01*
X131226190Y-107578333D01*
X131202380Y-107530714D01*
X131178571Y-107506904D01*
X130964285Y-107102142D02*
X130964285Y-107268809D01*
X131226190Y-107268809D02*
X130726190Y-107268809D01*
X130726190Y-107030714D01*
D11*
D12*
X116826190Y-122633333D02*
X116326190Y-122633333D01*
X116326190Y-122514285D01*
X116350000Y-122442857D01*
X116397619Y-122395238D01*
X116445238Y-122371428D01*
X116540476Y-122347619D01*
X116611904Y-122347619D01*
X116707142Y-122371428D01*
X116754761Y-122395238D01*
X116802380Y-122442857D01*
X116826190Y-122514285D01*
X116826190Y-122633333D01*
X116826190Y-122133333D02*
X116326190Y-122133333D01*
X116683333Y-121966666D01*
X116326190Y-121800000D01*
X116826190Y-121800000D01*
X116826190Y-121561904D02*
X116326190Y-121561904D01*
X116826190Y-121276190D01*
X116326190Y-121276190D01*
X116326190Y-121085714D02*
X116326190Y-120776190D01*
X116516666Y-120942857D01*
X116516666Y-120871428D01*
X116540476Y-120823809D01*
X116564285Y-120800000D01*
X116611904Y-120776190D01*
X116730952Y-120776190D01*
X116778571Y-120800000D01*
X116802380Y-120823809D01*
X116826190Y-120871428D01*
X116826190Y-121014285D01*
X116802380Y-121061904D01*
X116778571Y-121085714D01*
X116326190Y-120466666D02*
X116326190Y-120419047D01*
X116350000Y-120371428D01*
X116373809Y-120347619D01*
X116421428Y-120323809D01*
X116516666Y-120300000D01*
X116635714Y-120300000D01*
X116730952Y-120323809D01*
X116778571Y-120347619D01*
X116802380Y-120371428D01*
X116826190Y-120419047D01*
X116826190Y-120466666D01*
X116802380Y-120514285D01*
X116778571Y-120538095D01*
X116730952Y-120561904D01*
X116635714Y-120585714D01*
X116516666Y-120585714D01*
X116421428Y-120561904D01*
X116373809Y-120538095D01*
X116350000Y-120514285D01*
X116326190Y-120466666D01*
X116326190Y-119847619D02*
X116326190Y-120085714D01*
X116564285Y-120109523D01*
X116540476Y-120085714D01*
X116516666Y-120038095D01*
X116516666Y-119919047D01*
X116540476Y-119871428D01*
X116564285Y-119847619D01*
X116611904Y-119823809D01*
X116730952Y-119823809D01*
X116778571Y-119847619D01*
X116802380Y-119871428D01*
X116826190Y-119919047D01*
X116826190Y-120038095D01*
X116802380Y-120085714D01*
X116778571Y-120109523D01*
X116826190Y-119347619D02*
X116826190Y-119633333D01*
X116826190Y-119490476D02*
X116326190Y-119490476D01*
X116397619Y-119538095D01*
X116445238Y-119585714D01*
X116469047Y-119633333D01*
X116826190Y-118895238D02*
X116826190Y-119133333D01*
X116326190Y-119133333D01*
X124669047Y-123526190D02*
X124430952Y-123526190D01*
X124407142Y-123764285D01*
X124430952Y-123740476D01*
X124478571Y-123716666D01*
X124597619Y-123716666D01*
X124645238Y-123740476D01*
X124669047Y-123764285D01*
X124692857Y-123811904D01*
X124692857Y-123930952D01*
X124669047Y-123978571D01*
X124645238Y-124002380D01*
X124597619Y-124026190D01*
X124478571Y-124026190D01*
X124430952Y-124002380D01*
X124407142Y-123978571D01*
X124907142Y-124026190D02*
X124907142Y-123526190D01*
X125192857Y-124026190D02*
X124978571Y-123740476D01*
X125192857Y-123526190D02*
X124907142Y-123811904D01*
X116269047Y-123526190D02*
X116030952Y-123526190D01*
X116007142Y-123764285D01*
X116030952Y-123740476D01*
X116078571Y-123716666D01*
X116197619Y-123716666D01*
X116245238Y-123740476D01*
X116269047Y-123764285D01*
X116292857Y-123811904D01*
X116292857Y-123930952D01*
X116269047Y-123978571D01*
X116245238Y-124002380D01*
X116197619Y-124026190D01*
X116078571Y-124026190D01*
X116030952Y-124002380D01*
X116007142Y-123978571D01*
X116507142Y-124026190D02*
X116507142Y-123526190D01*
X116792857Y-124026190D02*
X116578571Y-123740476D01*
X116792857Y-123526190D02*
X116507142Y-123811904D01*
X124380952Y-121573809D02*
X124404761Y-121550000D01*
X124452380Y-121526190D01*
X124571428Y-121526190D01*
X124619047Y-121550000D01*
X124642857Y-121573809D01*
X124666666Y-121621428D01*
X124666666Y-121669047D01*
X124642857Y-121740476D01*
X124357142Y-122026190D01*
X124666666Y-122026190D01*
X124833333Y-121526190D02*
X125142857Y-121526190D01*
X124976190Y-121716666D01*
X125047619Y-121716666D01*
X125095238Y-121740476D01*
X125119047Y-121764285D01*
X125142857Y-121811904D01*
X125142857Y-121930952D01*
X125119047Y-121978571D01*
X125095238Y-122002380D01*
X125047619Y-122026190D01*
X124904761Y-122026190D01*
X124857142Y-122002380D01*
X124833333Y-121978571D01*
X125452380Y-121526190D02*
X125500000Y-121526190D01*
X125547619Y-121550000D01*
X125571428Y-121573809D01*
X125595238Y-121621428D01*
X125619047Y-121716666D01*
X125619047Y-121835714D01*
X125595238Y-121930952D01*
X125571428Y-121978571D01*
X125547619Y-122002380D01*
X125500000Y-122026190D01*
X125452380Y-122026190D01*
X125404761Y-122002380D01*
X125380952Y-121978571D01*
X125357142Y-121930952D01*
X125333333Y-121835714D01*
X125333333Y-121716666D01*
X125357142Y-121621428D01*
X125380952Y-121573809D01*
X125404761Y-121550000D01*
X125452380Y-121526190D01*
X124654761Y-120026190D02*
X124369047Y-120026190D01*
X124511904Y-120026190D02*
X124511904Y-119526190D01*
X124464285Y-119597619D01*
X124416666Y-119645238D01*
X124369047Y-119669047D01*
X124964285Y-119526190D02*
X125011904Y-119526190D01*
X125059523Y-119550000D01*
X125083333Y-119573809D01*
X125107142Y-119621428D01*
X125130952Y-119716666D01*
X125130952Y-119835714D01*
X125107142Y-119930952D01*
X125083333Y-119978571D01*
X125059523Y-120002380D01*
X125011904Y-120026190D01*
X124964285Y-120026190D01*
X124916666Y-120002380D01*
X124892857Y-119978571D01*
X124869047Y-119930952D01*
X124845238Y-119835714D01*
X124845238Y-119716666D01*
X124869047Y-119621428D01*
X124892857Y-119573809D01*
X124916666Y-119550000D01*
X124964285Y-119526190D01*
X125345238Y-120026190D02*
X125345238Y-119526190D01*
X125630952Y-120026190D02*
X125416666Y-119740476D01*
X125630952Y-119526190D02*
X125345238Y-119811904D01*
X124657142Y-105526190D02*
X124942857Y-105526190D01*
X124800000Y-106026190D02*
X124800000Y-105526190D01*
X125109523Y-105764285D02*
X125276190Y-105764285D01*
X125347619Y-106026190D02*
X125109523Y-106026190D01*
X125109523Y-105526190D01*
X125347619Y-105526190D01*
X125561904Y-106026190D02*
X125561904Y-105526190D01*
X125728571Y-105883333D01*
X125895238Y-105526190D01*
X125895238Y-106026190D01*
X126133333Y-106026190D02*
X126133333Y-105526190D01*
X126323809Y-105526190D01*
X126371428Y-105550000D01*
X126395238Y-105573809D01*
X126419047Y-105621428D01*
X126419047Y-105692857D01*
X126395238Y-105740476D01*
X126371428Y-105764285D01*
X126323809Y-105788095D01*
X126133333Y-105788095D01*
X126609523Y-105573809D02*
X126633333Y-105550000D01*
X126680952Y-105526190D01*
X126800000Y-105526190D01*
X126847619Y-105550000D01*
X126871428Y-105573809D01*
X126895238Y-105621428D01*
X126895238Y-105669047D01*
X126871428Y-105740476D01*
X126585714Y-106026190D01*
X126895238Y-106026190D01*
X112857142Y-105526190D02*
X113142857Y-105526190D01*
X113000000Y-106026190D02*
X113000000Y-105526190D01*
X113309523Y-105764285D02*
X113476190Y-105764285D01*
X113547619Y-106026190D02*
X113309523Y-106026190D01*
X113309523Y-105526190D01*
X113547619Y-105526190D01*
X113761904Y-106026190D02*
X113761904Y-105526190D01*
X113928571Y-105883333D01*
X114095238Y-105526190D01*
X114095238Y-106026190D01*
X114333333Y-106026190D02*
X114333333Y-105526190D01*
X114523809Y-105526190D01*
X114571428Y-105550000D01*
X114595238Y-105573809D01*
X114619047Y-105621428D01*
X114619047Y-105692857D01*
X114595238Y-105740476D01*
X114571428Y-105764285D01*
X114523809Y-105788095D01*
X114333333Y-105788095D01*
X115095238Y-106026190D02*
X114809523Y-106026190D01*
X114952380Y-106026190D02*
X114952380Y-105526190D01*
X114904761Y-105597619D01*
X114857142Y-105645238D01*
X114809523Y-105669047D01*
X121826190Y-108328333D02*
X121826190Y-108614047D01*
X121826190Y-108471190D02*
X121326190Y-108471190D01*
X121397619Y-108518809D01*
X121445238Y-108566428D01*
X121469047Y-108614047D01*
X121326190Y-108018809D02*
X121326190Y-107971190D01*
X121350000Y-107923571D01*
X121373809Y-107899761D01*
X121421428Y-107875952D01*
X121516666Y-107852142D01*
X121635714Y-107852142D01*
X121730952Y-107875952D01*
X121778571Y-107899761D01*
X121802380Y-107923571D01*
X121826190Y-107971190D01*
X121826190Y-108018809D01*
X121802380Y-108066428D01*
X121778571Y-108090238D01*
X121730952Y-108114047D01*
X121635714Y-108137857D01*
X121516666Y-108137857D01*
X121421428Y-108114047D01*
X121373809Y-108090238D01*
X121350000Y-108066428D01*
X121326190Y-108018809D01*
X121326190Y-107542619D02*
X121326190Y-107495000D01*
X121350000Y-107447380D01*
X121373809Y-107423571D01*
X121421428Y-107399761D01*
X121516666Y-107375952D01*
X121635714Y-107375952D01*
X121730952Y-107399761D01*
X121778571Y-107423571D01*
X121802380Y-107447380D01*
X121826190Y-107495000D01*
X121826190Y-107542619D01*
X121802380Y-107590238D01*
X121778571Y-107614047D01*
X121730952Y-107637857D01*
X121635714Y-107661666D01*
X121516666Y-107661666D01*
X121421428Y-107637857D01*
X121373809Y-107614047D01*
X121350000Y-107590238D01*
X121326190Y-107542619D01*
M02*
