G04 #@! TF.GenerationSoftware,KiCad,Pcbnew,(5.1.0-0)*
G04 #@! TF.CreationDate,2019-06-12T19:17:28-07:00*
G04 #@! TF.ProjectId,d1_mini_lite_sapflow_ti,64315f6d-696e-4695-9f6c-6974655f7361,rev?*
G04 #@! TF.SameCoordinates,Original*
G04 #@! TF.FileFunction,Soldermask,Top*
G04 #@! TF.FilePolarity,Negative*
%FSLAX46Y46*%
G04 Gerber Fmt 4.6, Leading zero omitted, Abs format (unit mm)*
G04 Created by KiCad (PCBNEW (5.1.0-0)) date 2019-06-12 19:17:28*
%MOMM*%
%LPD*%
G04 APERTURE LIST*
%ADD10C,0.100000*%
G04 APERTURE END LIST*
D10*
G36*
X135276626Y-130187037D02*
G01*
X135446465Y-130238557D01*
X135446467Y-130238558D01*
X135602989Y-130322221D01*
X135740186Y-130434814D01*
X135823448Y-130536271D01*
X135852778Y-130572009D01*
X135936443Y-130728534D01*
X135987963Y-130898373D01*
X136001000Y-131030742D01*
X136001000Y-131369257D01*
X135987963Y-131501626D01*
X135936443Y-131671466D01*
X135852778Y-131827991D01*
X135823448Y-131863729D01*
X135740186Y-131965186D01*
X135645250Y-132043097D01*
X135602991Y-132077778D01*
X135446466Y-132161443D01*
X135276627Y-132212963D01*
X135100000Y-132230359D01*
X134923374Y-132212963D01*
X134753535Y-132161443D01*
X134597010Y-132077778D01*
X134459815Y-131965185D01*
X134347222Y-131827991D01*
X134263557Y-131671466D01*
X134212037Y-131501627D01*
X134199000Y-131369258D01*
X134199000Y-131030743D01*
X134212037Y-130898374D01*
X134263557Y-130728535D01*
X134263559Y-130728532D01*
X134347221Y-130572011D01*
X134459814Y-130434814D01*
X134561271Y-130351552D01*
X134597009Y-130322222D01*
X134753534Y-130238557D01*
X134923373Y-130187037D01*
X135100000Y-130169641D01*
X135276626Y-130187037D01*
X135276626Y-130187037D01*
G37*
G36*
X137776626Y-130187037D02*
G01*
X137946465Y-130238557D01*
X137946467Y-130238558D01*
X138102989Y-130322221D01*
X138240186Y-130434814D01*
X138323448Y-130536271D01*
X138352778Y-130572009D01*
X138436443Y-130728534D01*
X138487963Y-130898373D01*
X138501000Y-131030742D01*
X138501000Y-131369257D01*
X138487963Y-131501626D01*
X138436443Y-131671466D01*
X138352778Y-131827991D01*
X138323448Y-131863729D01*
X138240186Y-131965186D01*
X138145250Y-132043097D01*
X138102991Y-132077778D01*
X137946466Y-132161443D01*
X137776627Y-132212963D01*
X137600000Y-132230359D01*
X137423374Y-132212963D01*
X137253535Y-132161443D01*
X137097010Y-132077778D01*
X136959815Y-131965185D01*
X136847222Y-131827991D01*
X136763557Y-131671466D01*
X136712037Y-131501627D01*
X136699000Y-131369258D01*
X136699000Y-131030743D01*
X136712037Y-130898374D01*
X136763557Y-130728535D01*
X136763559Y-130728532D01*
X136847221Y-130572011D01*
X136959814Y-130434814D01*
X137061271Y-130351552D01*
X137097009Y-130322222D01*
X137253534Y-130238557D01*
X137423373Y-130187037D01*
X137600000Y-130169641D01*
X137776626Y-130187037D01*
X137776626Y-130187037D01*
G37*
G36*
X140276626Y-130187037D02*
G01*
X140446465Y-130238557D01*
X140446467Y-130238558D01*
X140602989Y-130322221D01*
X140740186Y-130434814D01*
X140823448Y-130536271D01*
X140852778Y-130572009D01*
X140936443Y-130728534D01*
X140987963Y-130898373D01*
X141001000Y-131030742D01*
X141001000Y-131369257D01*
X140987963Y-131501626D01*
X140936443Y-131671466D01*
X140852778Y-131827991D01*
X140823448Y-131863729D01*
X140740186Y-131965186D01*
X140645250Y-132043097D01*
X140602991Y-132077778D01*
X140446466Y-132161443D01*
X140276627Y-132212963D01*
X140100000Y-132230359D01*
X139923374Y-132212963D01*
X139753535Y-132161443D01*
X139597010Y-132077778D01*
X139459815Y-131965185D01*
X139347222Y-131827991D01*
X139263557Y-131671466D01*
X139212037Y-131501627D01*
X139199000Y-131369258D01*
X139199000Y-131030743D01*
X139212037Y-130898374D01*
X139263557Y-130728535D01*
X139263559Y-130728532D01*
X139347221Y-130572011D01*
X139459814Y-130434814D01*
X139561271Y-130351552D01*
X139597009Y-130322222D01*
X139753534Y-130238557D01*
X139923373Y-130187037D01*
X140100000Y-130169641D01*
X140276626Y-130187037D01*
X140276626Y-130187037D01*
G37*
G36*
X142776626Y-130187037D02*
G01*
X142946465Y-130238557D01*
X142946467Y-130238558D01*
X143102989Y-130322221D01*
X143240186Y-130434814D01*
X143323448Y-130536271D01*
X143352778Y-130572009D01*
X143436443Y-130728534D01*
X143487963Y-130898373D01*
X143501000Y-131030742D01*
X143501000Y-131369257D01*
X143487963Y-131501626D01*
X143436443Y-131671466D01*
X143352778Y-131827991D01*
X143323448Y-131863729D01*
X143240186Y-131965186D01*
X143145250Y-132043097D01*
X143102991Y-132077778D01*
X142946466Y-132161443D01*
X142776627Y-132212963D01*
X142600000Y-132230359D01*
X142423374Y-132212963D01*
X142253535Y-132161443D01*
X142097010Y-132077778D01*
X141959815Y-131965185D01*
X141847222Y-131827991D01*
X141763557Y-131671466D01*
X141712037Y-131501627D01*
X141699000Y-131369258D01*
X141699000Y-131030743D01*
X141712037Y-130898374D01*
X141763557Y-130728535D01*
X141763559Y-130728532D01*
X141847221Y-130572011D01*
X141959814Y-130434814D01*
X142061271Y-130351552D01*
X142097009Y-130322222D01*
X142253534Y-130238557D01*
X142423373Y-130187037D01*
X142600000Y-130169641D01*
X142776626Y-130187037D01*
X142776626Y-130187037D01*
G37*
G36*
X133358600Y-130177989D02*
G01*
X133391652Y-130188015D01*
X133422103Y-130204292D01*
X133448799Y-130226201D01*
X133470708Y-130252897D01*
X133486985Y-130283348D01*
X133497011Y-130316400D01*
X133501000Y-130356903D01*
X133501000Y-132043097D01*
X133497011Y-132083600D01*
X133486985Y-132116652D01*
X133470708Y-132147103D01*
X133448799Y-132173799D01*
X133422103Y-132195708D01*
X133391652Y-132211985D01*
X133358600Y-132222011D01*
X133318097Y-132226000D01*
X131881903Y-132226000D01*
X131841400Y-132222011D01*
X131808348Y-132211985D01*
X131777897Y-132195708D01*
X131751201Y-132173799D01*
X131729292Y-132147103D01*
X131713015Y-132116652D01*
X131702989Y-132083600D01*
X131699000Y-132043097D01*
X131699000Y-130356903D01*
X131702989Y-130316400D01*
X131713015Y-130283348D01*
X131729292Y-130252897D01*
X131751201Y-130226201D01*
X131777897Y-130204292D01*
X131808348Y-130188015D01*
X131841400Y-130177989D01*
X131881903Y-130174000D01*
X133318097Y-130174000D01*
X133358600Y-130177989D01*
X133358600Y-130177989D01*
G37*
G36*
X149226823Y-129941313D02*
G01*
X149387242Y-129989976D01*
X149519906Y-130060886D01*
X149535078Y-130068996D01*
X149664659Y-130175341D01*
X149771004Y-130304922D01*
X149771005Y-130304924D01*
X149850024Y-130452758D01*
X149898687Y-130613177D01*
X149915117Y-130780000D01*
X149898687Y-130946823D01*
X149850024Y-131107242D01*
X149779114Y-131239906D01*
X149771004Y-131255078D01*
X149664659Y-131384659D01*
X149535078Y-131491004D01*
X149535076Y-131491005D01*
X149387242Y-131570024D01*
X149226823Y-131618687D01*
X149101804Y-131631000D01*
X148618196Y-131631000D01*
X148493177Y-131618687D01*
X148332758Y-131570024D01*
X148184924Y-131491005D01*
X148184922Y-131491004D01*
X148055341Y-131384659D01*
X147948996Y-131255078D01*
X147940886Y-131239906D01*
X147869976Y-131107242D01*
X147821313Y-130946823D01*
X147804883Y-130780000D01*
X147821313Y-130613177D01*
X147869976Y-130452758D01*
X147948995Y-130304924D01*
X147948996Y-130304922D01*
X148055341Y-130175341D01*
X148184922Y-130068996D01*
X148200094Y-130060886D01*
X148332758Y-129989976D01*
X148493177Y-129941313D01*
X148618196Y-129929000D01*
X149101804Y-129929000D01*
X149226823Y-129941313D01*
X149226823Y-129941313D01*
G37*
G36*
X126366823Y-129941313D02*
G01*
X126527242Y-129989976D01*
X126659906Y-130060886D01*
X126675078Y-130068996D01*
X126804659Y-130175341D01*
X126911004Y-130304922D01*
X126911005Y-130304924D01*
X126990024Y-130452758D01*
X127038687Y-130613177D01*
X127055117Y-130780000D01*
X127038687Y-130946823D01*
X126990024Y-131107242D01*
X126919114Y-131239906D01*
X126911004Y-131255078D01*
X126804659Y-131384659D01*
X126675078Y-131491004D01*
X126675076Y-131491005D01*
X126527242Y-131570024D01*
X126366823Y-131618687D01*
X126241804Y-131631000D01*
X125758196Y-131631000D01*
X125633177Y-131618687D01*
X125472758Y-131570024D01*
X125324924Y-131491005D01*
X125324922Y-131491004D01*
X125195341Y-131384659D01*
X125088996Y-131255078D01*
X125080886Y-131239906D01*
X125009976Y-131107242D01*
X124961313Y-130946823D01*
X124944883Y-130780000D01*
X124961313Y-130613177D01*
X125009976Y-130452758D01*
X125088995Y-130304924D01*
X125088996Y-130304922D01*
X125195341Y-130175341D01*
X125324922Y-130068996D01*
X125340094Y-130060886D01*
X125472758Y-129989976D01*
X125633177Y-129941313D01*
X125758196Y-129929000D01*
X126241804Y-129929000D01*
X126366823Y-129941313D01*
X126366823Y-129941313D01*
G37*
G36*
X149226823Y-127401313D02*
G01*
X149387242Y-127449976D01*
X149482701Y-127501000D01*
X149535078Y-127528996D01*
X149664659Y-127635341D01*
X149771004Y-127764922D01*
X149771005Y-127764924D01*
X149850024Y-127912758D01*
X149898687Y-128073177D01*
X149915117Y-128240000D01*
X149898687Y-128406823D01*
X149850024Y-128567242D01*
X149779114Y-128699906D01*
X149771004Y-128715078D01*
X149664659Y-128844659D01*
X149535078Y-128951004D01*
X149535076Y-128951005D01*
X149387242Y-129030024D01*
X149226823Y-129078687D01*
X149101804Y-129091000D01*
X148618196Y-129091000D01*
X148493177Y-129078687D01*
X148332758Y-129030024D01*
X148184924Y-128951005D01*
X148184922Y-128951004D01*
X148055341Y-128844659D01*
X147948996Y-128715078D01*
X147940886Y-128699906D01*
X147869976Y-128567242D01*
X147821313Y-128406823D01*
X147804883Y-128240000D01*
X147821313Y-128073177D01*
X147869976Y-127912758D01*
X147948995Y-127764924D01*
X147948996Y-127764922D01*
X148055341Y-127635341D01*
X148184922Y-127528996D01*
X148237299Y-127501000D01*
X148332758Y-127449976D01*
X148493177Y-127401313D01*
X148618196Y-127389000D01*
X149101804Y-127389000D01*
X149226823Y-127401313D01*
X149226823Y-127401313D01*
G37*
G36*
X126366823Y-127401313D02*
G01*
X126527242Y-127449976D01*
X126622701Y-127501000D01*
X126675078Y-127528996D01*
X126804659Y-127635341D01*
X126911004Y-127764922D01*
X126911005Y-127764924D01*
X126990024Y-127912758D01*
X127038687Y-128073177D01*
X127055117Y-128240000D01*
X127038687Y-128406823D01*
X126990024Y-128567242D01*
X126919114Y-128699906D01*
X126911004Y-128715078D01*
X126804659Y-128844659D01*
X126675078Y-128951004D01*
X126675076Y-128951005D01*
X126527242Y-129030024D01*
X126366823Y-129078687D01*
X126241804Y-129091000D01*
X125758196Y-129091000D01*
X125633177Y-129078687D01*
X125472758Y-129030024D01*
X125324924Y-128951005D01*
X125324922Y-128951004D01*
X125195341Y-128844659D01*
X125088996Y-128715078D01*
X125080886Y-128699906D01*
X125009976Y-128567242D01*
X124961313Y-128406823D01*
X124944883Y-128240000D01*
X124961313Y-128073177D01*
X125009976Y-127912758D01*
X125088995Y-127764924D01*
X125088996Y-127764922D01*
X125195341Y-127635341D01*
X125324922Y-127528996D01*
X125377299Y-127501000D01*
X125472758Y-127449976D01*
X125633177Y-127401313D01*
X125758196Y-127389000D01*
X126241804Y-127389000D01*
X126366823Y-127401313D01*
X126366823Y-127401313D01*
G37*
G36*
X141530442Y-125705518D02*
G01*
X141596627Y-125712037D01*
X141766466Y-125763557D01*
X141922991Y-125847222D01*
X141946877Y-125866825D01*
X142060186Y-125959814D01*
X142143448Y-126061271D01*
X142172778Y-126097009D01*
X142256443Y-126253534D01*
X142307963Y-126423373D01*
X142325359Y-126600000D01*
X142307963Y-126776627D01*
X142256443Y-126946466D01*
X142172778Y-127102991D01*
X142143448Y-127138729D01*
X142060186Y-127240186D01*
X141958729Y-127323448D01*
X141922991Y-127352778D01*
X141766466Y-127436443D01*
X141596627Y-127487963D01*
X141530442Y-127494482D01*
X141464260Y-127501000D01*
X141375740Y-127501000D01*
X141309558Y-127494482D01*
X141243373Y-127487963D01*
X141073534Y-127436443D01*
X140917009Y-127352778D01*
X140881271Y-127323448D01*
X140779814Y-127240186D01*
X140696552Y-127138729D01*
X140667222Y-127102991D01*
X140583557Y-126946466D01*
X140532037Y-126776627D01*
X140514641Y-126600000D01*
X140532037Y-126423373D01*
X140583557Y-126253534D01*
X140667222Y-126097009D01*
X140696552Y-126061271D01*
X140779814Y-125959814D01*
X140893123Y-125866825D01*
X140917009Y-125847222D01*
X141073534Y-125763557D01*
X141243373Y-125712037D01*
X141309558Y-125705518D01*
X141375740Y-125699000D01*
X141464260Y-125699000D01*
X141530442Y-125705518D01*
X141530442Y-125705518D01*
G37*
G36*
X138990442Y-125705518D02*
G01*
X139056627Y-125712037D01*
X139226466Y-125763557D01*
X139382991Y-125847222D01*
X139406877Y-125866825D01*
X139520186Y-125959814D01*
X139603448Y-126061271D01*
X139632778Y-126097009D01*
X139716443Y-126253534D01*
X139767963Y-126423373D01*
X139785359Y-126600000D01*
X139767963Y-126776627D01*
X139716443Y-126946466D01*
X139632778Y-127102991D01*
X139603448Y-127138729D01*
X139520186Y-127240186D01*
X139418729Y-127323448D01*
X139382991Y-127352778D01*
X139226466Y-127436443D01*
X139056627Y-127487963D01*
X138990442Y-127494482D01*
X138924260Y-127501000D01*
X138835740Y-127501000D01*
X138769558Y-127494482D01*
X138703373Y-127487963D01*
X138533534Y-127436443D01*
X138377009Y-127352778D01*
X138341271Y-127323448D01*
X138239814Y-127240186D01*
X138156552Y-127138729D01*
X138127222Y-127102991D01*
X138043557Y-126946466D01*
X137992037Y-126776627D01*
X137974641Y-126600000D01*
X137992037Y-126423373D01*
X138043557Y-126253534D01*
X138127222Y-126097009D01*
X138156552Y-126061271D01*
X138239814Y-125959814D01*
X138353123Y-125866825D01*
X138377009Y-125847222D01*
X138533534Y-125763557D01*
X138703373Y-125712037D01*
X138769558Y-125705518D01*
X138835740Y-125699000D01*
X138924260Y-125699000D01*
X138990442Y-125705518D01*
X138990442Y-125705518D01*
G37*
G36*
X136450442Y-125705518D02*
G01*
X136516627Y-125712037D01*
X136686466Y-125763557D01*
X136842991Y-125847222D01*
X136866877Y-125866825D01*
X136980186Y-125959814D01*
X137063448Y-126061271D01*
X137092778Y-126097009D01*
X137176443Y-126253534D01*
X137227963Y-126423373D01*
X137245359Y-126600000D01*
X137227963Y-126776627D01*
X137176443Y-126946466D01*
X137092778Y-127102991D01*
X137063448Y-127138729D01*
X136980186Y-127240186D01*
X136878729Y-127323448D01*
X136842991Y-127352778D01*
X136686466Y-127436443D01*
X136516627Y-127487963D01*
X136450442Y-127494482D01*
X136384260Y-127501000D01*
X136295740Y-127501000D01*
X136229558Y-127494482D01*
X136163373Y-127487963D01*
X135993534Y-127436443D01*
X135837009Y-127352778D01*
X135801271Y-127323448D01*
X135699814Y-127240186D01*
X135616552Y-127138729D01*
X135587222Y-127102991D01*
X135503557Y-126946466D01*
X135452037Y-126776627D01*
X135434641Y-126600000D01*
X135452037Y-126423373D01*
X135503557Y-126253534D01*
X135587222Y-126097009D01*
X135616552Y-126061271D01*
X135699814Y-125959814D01*
X135813123Y-125866825D01*
X135837009Y-125847222D01*
X135993534Y-125763557D01*
X136163373Y-125712037D01*
X136229558Y-125705518D01*
X136295740Y-125699000D01*
X136384260Y-125699000D01*
X136450442Y-125705518D01*
X136450442Y-125705518D01*
G37*
G36*
X134701000Y-127501000D02*
G01*
X132899000Y-127501000D01*
X132899000Y-125699000D01*
X134701000Y-125699000D01*
X134701000Y-127501000D01*
X134701000Y-127501000D01*
G37*
G36*
X126366823Y-124861313D02*
G01*
X126527242Y-124909976D01*
X126659906Y-124980886D01*
X126675078Y-124988996D01*
X126804659Y-125095341D01*
X126911004Y-125224922D01*
X126911005Y-125224924D01*
X126990024Y-125372758D01*
X127038687Y-125533177D01*
X127055117Y-125700000D01*
X127038687Y-125866823D01*
X126990024Y-126027242D01*
X126919114Y-126159906D01*
X126911004Y-126175078D01*
X126804659Y-126304659D01*
X126675078Y-126411004D01*
X126675076Y-126411005D01*
X126527242Y-126490024D01*
X126366823Y-126538687D01*
X126241804Y-126551000D01*
X125758196Y-126551000D01*
X125633177Y-126538687D01*
X125472758Y-126490024D01*
X125324924Y-126411005D01*
X125324922Y-126411004D01*
X125195341Y-126304659D01*
X125088996Y-126175078D01*
X125080886Y-126159906D01*
X125009976Y-126027242D01*
X124961313Y-125866823D01*
X124944883Y-125700000D01*
X124961313Y-125533177D01*
X125009976Y-125372758D01*
X125088995Y-125224924D01*
X125088996Y-125224922D01*
X125195341Y-125095341D01*
X125324922Y-124988996D01*
X125340094Y-124980886D01*
X125472758Y-124909976D01*
X125633177Y-124861313D01*
X125758196Y-124849000D01*
X126241804Y-124849000D01*
X126366823Y-124861313D01*
X126366823Y-124861313D01*
G37*
G36*
X149226823Y-124861313D02*
G01*
X149387242Y-124909976D01*
X149519906Y-124980886D01*
X149535078Y-124988996D01*
X149664659Y-125095341D01*
X149771004Y-125224922D01*
X149771005Y-125224924D01*
X149850024Y-125372758D01*
X149898687Y-125533177D01*
X149915117Y-125700000D01*
X149898687Y-125866823D01*
X149850024Y-126027242D01*
X149779114Y-126159906D01*
X149771004Y-126175078D01*
X149664659Y-126304659D01*
X149535078Y-126411004D01*
X149535076Y-126411005D01*
X149387242Y-126490024D01*
X149226823Y-126538687D01*
X149101804Y-126551000D01*
X148618196Y-126551000D01*
X148493177Y-126538687D01*
X148332758Y-126490024D01*
X148184924Y-126411005D01*
X148184922Y-126411004D01*
X148055341Y-126304659D01*
X147948996Y-126175078D01*
X147940886Y-126159906D01*
X147869976Y-126027242D01*
X147821313Y-125866823D01*
X147804883Y-125700000D01*
X147821313Y-125533177D01*
X147869976Y-125372758D01*
X147948995Y-125224924D01*
X147948996Y-125224922D01*
X148055341Y-125095341D01*
X148184922Y-124988996D01*
X148200094Y-124980886D01*
X148332758Y-124909976D01*
X148493177Y-124861313D01*
X148618196Y-124849000D01*
X149101804Y-124849000D01*
X149226823Y-124861313D01*
X149226823Y-124861313D01*
G37*
G36*
X126366823Y-122321313D02*
G01*
X126527242Y-122369976D01*
X126659906Y-122440886D01*
X126675078Y-122448996D01*
X126804659Y-122555341D01*
X126911004Y-122684922D01*
X126911005Y-122684924D01*
X126990024Y-122832758D01*
X127038687Y-122993177D01*
X127055117Y-123160000D01*
X127038687Y-123326823D01*
X126990024Y-123487242D01*
X126919114Y-123619906D01*
X126911004Y-123635078D01*
X126804659Y-123764659D01*
X126675078Y-123871004D01*
X126675076Y-123871005D01*
X126527242Y-123950024D01*
X126366823Y-123998687D01*
X126241804Y-124011000D01*
X125758196Y-124011000D01*
X125633177Y-123998687D01*
X125472758Y-123950024D01*
X125324924Y-123871005D01*
X125324922Y-123871004D01*
X125195341Y-123764659D01*
X125088996Y-123635078D01*
X125080886Y-123619906D01*
X125009976Y-123487242D01*
X124961313Y-123326823D01*
X124944883Y-123160000D01*
X124961313Y-122993177D01*
X125009976Y-122832758D01*
X125088995Y-122684924D01*
X125088996Y-122684922D01*
X125195341Y-122555341D01*
X125324922Y-122448996D01*
X125340094Y-122440886D01*
X125472758Y-122369976D01*
X125633177Y-122321313D01*
X125758196Y-122309000D01*
X126241804Y-122309000D01*
X126366823Y-122321313D01*
X126366823Y-122321313D01*
G37*
G36*
X149226823Y-122321313D02*
G01*
X149387242Y-122369976D01*
X149519906Y-122440886D01*
X149535078Y-122448996D01*
X149664659Y-122555341D01*
X149771004Y-122684922D01*
X149771005Y-122684924D01*
X149850024Y-122832758D01*
X149898687Y-122993177D01*
X149915117Y-123160000D01*
X149898687Y-123326823D01*
X149850024Y-123487242D01*
X149779114Y-123619906D01*
X149771004Y-123635078D01*
X149664659Y-123764659D01*
X149535078Y-123871004D01*
X149535076Y-123871005D01*
X149387242Y-123950024D01*
X149226823Y-123998687D01*
X149101804Y-124011000D01*
X148618196Y-124011000D01*
X148493177Y-123998687D01*
X148332758Y-123950024D01*
X148184924Y-123871005D01*
X148184922Y-123871004D01*
X148055341Y-123764659D01*
X147948996Y-123635078D01*
X147940886Y-123619906D01*
X147869976Y-123487242D01*
X147821313Y-123326823D01*
X147804883Y-123160000D01*
X147821313Y-122993177D01*
X147869976Y-122832758D01*
X147948995Y-122684924D01*
X147948996Y-122684922D01*
X148055341Y-122555341D01*
X148184922Y-122448996D01*
X148200094Y-122440886D01*
X148332758Y-122369976D01*
X148493177Y-122321313D01*
X148618196Y-122309000D01*
X149101804Y-122309000D01*
X149226823Y-122321313D01*
X149226823Y-122321313D01*
G37*
G36*
X126366823Y-119781313D02*
G01*
X126527242Y-119829976D01*
X126659906Y-119900886D01*
X126675078Y-119908996D01*
X126804659Y-120015341D01*
X126911004Y-120144922D01*
X126911005Y-120144924D01*
X126990024Y-120292758D01*
X127038687Y-120453177D01*
X127055117Y-120620000D01*
X127038687Y-120786823D01*
X126990024Y-120947242D01*
X126919114Y-121079906D01*
X126911004Y-121095078D01*
X126804659Y-121224659D01*
X126675078Y-121331004D01*
X126675076Y-121331005D01*
X126527242Y-121410024D01*
X126366823Y-121458687D01*
X126241804Y-121471000D01*
X125758196Y-121471000D01*
X125633177Y-121458687D01*
X125472758Y-121410024D01*
X125324924Y-121331005D01*
X125324922Y-121331004D01*
X125195341Y-121224659D01*
X125088996Y-121095078D01*
X125080886Y-121079906D01*
X125009976Y-120947242D01*
X124961313Y-120786823D01*
X124944883Y-120620000D01*
X124961313Y-120453177D01*
X125009976Y-120292758D01*
X125088995Y-120144924D01*
X125088996Y-120144922D01*
X125195341Y-120015341D01*
X125324922Y-119908996D01*
X125340094Y-119900886D01*
X125472758Y-119829976D01*
X125633177Y-119781313D01*
X125758196Y-119769000D01*
X126241804Y-119769000D01*
X126366823Y-119781313D01*
X126366823Y-119781313D01*
G37*
G36*
X149226823Y-119781313D02*
G01*
X149387242Y-119829976D01*
X149519906Y-119900886D01*
X149535078Y-119908996D01*
X149664659Y-120015341D01*
X149771004Y-120144922D01*
X149771005Y-120144924D01*
X149850024Y-120292758D01*
X149898687Y-120453177D01*
X149915117Y-120620000D01*
X149898687Y-120786823D01*
X149850024Y-120947242D01*
X149779114Y-121079906D01*
X149771004Y-121095078D01*
X149664659Y-121224659D01*
X149535078Y-121331004D01*
X149535076Y-121331005D01*
X149387242Y-121410024D01*
X149226823Y-121458687D01*
X149101804Y-121471000D01*
X148618196Y-121471000D01*
X148493177Y-121458687D01*
X148332758Y-121410024D01*
X148184924Y-121331005D01*
X148184922Y-121331004D01*
X148055341Y-121224659D01*
X147948996Y-121095078D01*
X147940886Y-121079906D01*
X147869976Y-120947242D01*
X147821313Y-120786823D01*
X147804883Y-120620000D01*
X147821313Y-120453177D01*
X147869976Y-120292758D01*
X147948995Y-120144924D01*
X147948996Y-120144922D01*
X148055341Y-120015341D01*
X148184922Y-119908996D01*
X148200094Y-119900886D01*
X148332758Y-119829976D01*
X148493177Y-119781313D01*
X148618196Y-119769000D01*
X149101804Y-119769000D01*
X149226823Y-119781313D01*
X149226823Y-119781313D01*
G37*
G36*
X149226823Y-117241313D02*
G01*
X149387242Y-117289976D01*
X149519906Y-117360886D01*
X149535078Y-117368996D01*
X149664659Y-117475341D01*
X149771004Y-117604922D01*
X149771005Y-117604924D01*
X149850024Y-117752758D01*
X149898687Y-117913177D01*
X149915117Y-118080000D01*
X149898687Y-118246823D01*
X149850024Y-118407242D01*
X149779114Y-118539906D01*
X149771004Y-118555078D01*
X149664659Y-118684659D01*
X149535078Y-118791004D01*
X149535076Y-118791005D01*
X149387242Y-118870024D01*
X149226823Y-118918687D01*
X149101804Y-118931000D01*
X148618196Y-118931000D01*
X148493177Y-118918687D01*
X148332758Y-118870024D01*
X148184924Y-118791005D01*
X148184922Y-118791004D01*
X148055341Y-118684659D01*
X147948996Y-118555078D01*
X147940886Y-118539906D01*
X147869976Y-118407242D01*
X147821313Y-118246823D01*
X147804883Y-118080000D01*
X147821313Y-117913177D01*
X147869976Y-117752758D01*
X147948995Y-117604924D01*
X147948996Y-117604922D01*
X148055341Y-117475341D01*
X148184922Y-117368996D01*
X148200094Y-117360886D01*
X148332758Y-117289976D01*
X148493177Y-117241313D01*
X148618196Y-117229000D01*
X149101804Y-117229000D01*
X149226823Y-117241313D01*
X149226823Y-117241313D01*
G37*
G36*
X126366823Y-117241313D02*
G01*
X126527242Y-117289976D01*
X126659906Y-117360886D01*
X126675078Y-117368996D01*
X126804659Y-117475341D01*
X126911004Y-117604922D01*
X126911005Y-117604924D01*
X126990024Y-117752758D01*
X127038687Y-117913177D01*
X127055117Y-118080000D01*
X127038687Y-118246823D01*
X126990024Y-118407242D01*
X126919114Y-118539906D01*
X126911004Y-118555078D01*
X126804659Y-118684659D01*
X126675078Y-118791004D01*
X126675076Y-118791005D01*
X126527242Y-118870024D01*
X126366823Y-118918687D01*
X126241804Y-118931000D01*
X125758196Y-118931000D01*
X125633177Y-118918687D01*
X125472758Y-118870024D01*
X125324924Y-118791005D01*
X125324922Y-118791004D01*
X125195341Y-118684659D01*
X125088996Y-118555078D01*
X125080886Y-118539906D01*
X125009976Y-118407242D01*
X124961313Y-118246823D01*
X124944883Y-118080000D01*
X124961313Y-117913177D01*
X125009976Y-117752758D01*
X125088995Y-117604924D01*
X125088996Y-117604922D01*
X125195341Y-117475341D01*
X125324922Y-117368996D01*
X125340094Y-117360886D01*
X125472758Y-117289976D01*
X125633177Y-117241313D01*
X125758196Y-117229000D01*
X126241804Y-117229000D01*
X126366823Y-117241313D01*
X126366823Y-117241313D01*
G37*
G36*
X149226823Y-114701313D02*
G01*
X149387242Y-114749976D01*
X149519906Y-114820886D01*
X149535078Y-114828996D01*
X149664659Y-114935341D01*
X149771004Y-115064922D01*
X149771005Y-115064924D01*
X149850024Y-115212758D01*
X149898687Y-115373177D01*
X149915117Y-115540000D01*
X149898687Y-115706823D01*
X149850024Y-115867242D01*
X149779114Y-115999906D01*
X149771004Y-116015078D01*
X149664659Y-116144659D01*
X149535078Y-116251004D01*
X149535076Y-116251005D01*
X149387242Y-116330024D01*
X149226823Y-116378687D01*
X149101804Y-116391000D01*
X148618196Y-116391000D01*
X148493177Y-116378687D01*
X148332758Y-116330024D01*
X148184924Y-116251005D01*
X148184922Y-116251004D01*
X148055341Y-116144659D01*
X147948996Y-116015078D01*
X147940886Y-115999906D01*
X147869976Y-115867242D01*
X147821313Y-115706823D01*
X147804883Y-115540000D01*
X147821313Y-115373177D01*
X147869976Y-115212758D01*
X147948995Y-115064924D01*
X147948996Y-115064922D01*
X148055341Y-114935341D01*
X148184922Y-114828996D01*
X148200094Y-114820886D01*
X148332758Y-114749976D01*
X148493177Y-114701313D01*
X148618196Y-114689000D01*
X149101804Y-114689000D01*
X149226823Y-114701313D01*
X149226823Y-114701313D01*
G37*
G36*
X126366823Y-114701313D02*
G01*
X126527242Y-114749976D01*
X126659906Y-114820886D01*
X126675078Y-114828996D01*
X126804659Y-114935341D01*
X126911004Y-115064922D01*
X126911005Y-115064924D01*
X126990024Y-115212758D01*
X127038687Y-115373177D01*
X127055117Y-115540000D01*
X127038687Y-115706823D01*
X126990024Y-115867242D01*
X126919114Y-115999906D01*
X126911004Y-116015078D01*
X126804659Y-116144659D01*
X126675078Y-116251004D01*
X126675076Y-116251005D01*
X126527242Y-116330024D01*
X126366823Y-116378687D01*
X126241804Y-116391000D01*
X125758196Y-116391000D01*
X125633177Y-116378687D01*
X125472758Y-116330024D01*
X125324924Y-116251005D01*
X125324922Y-116251004D01*
X125195341Y-116144659D01*
X125088996Y-116015078D01*
X125080886Y-115999906D01*
X125009976Y-115867242D01*
X124961313Y-115706823D01*
X124944883Y-115540000D01*
X124961313Y-115373177D01*
X125009976Y-115212758D01*
X125088995Y-115064924D01*
X125088996Y-115064922D01*
X125195341Y-114935341D01*
X125324922Y-114828996D01*
X125340094Y-114820886D01*
X125472758Y-114749976D01*
X125633177Y-114701313D01*
X125758196Y-114689000D01*
X126241804Y-114689000D01*
X126366823Y-114701313D01*
X126366823Y-114701313D01*
G37*
G36*
X127051000Y-114051000D02*
G01*
X124949000Y-114051000D01*
X124949000Y-111949000D01*
X127051000Y-111949000D01*
X127051000Y-114051000D01*
X127051000Y-114051000D01*
G37*
G36*
X149226823Y-112161313D02*
G01*
X149387242Y-112209976D01*
X149519906Y-112280886D01*
X149535078Y-112288996D01*
X149664659Y-112395341D01*
X149771004Y-112524922D01*
X149771005Y-112524924D01*
X149850024Y-112672758D01*
X149898687Y-112833177D01*
X149915117Y-113000000D01*
X149898687Y-113166823D01*
X149850024Y-113327242D01*
X149779114Y-113459906D01*
X149771004Y-113475078D01*
X149664659Y-113604659D01*
X149535078Y-113711004D01*
X149535076Y-113711005D01*
X149387242Y-113790024D01*
X149226823Y-113838687D01*
X149101804Y-113851000D01*
X148618196Y-113851000D01*
X148493177Y-113838687D01*
X148332758Y-113790024D01*
X148184924Y-113711005D01*
X148184922Y-113711004D01*
X148055341Y-113604659D01*
X147948996Y-113475078D01*
X147940886Y-113459906D01*
X147869976Y-113327242D01*
X147821313Y-113166823D01*
X147804883Y-113000000D01*
X147821313Y-112833177D01*
X147869976Y-112672758D01*
X147948995Y-112524924D01*
X147948996Y-112524922D01*
X148055341Y-112395341D01*
X148184922Y-112288996D01*
X148200094Y-112280886D01*
X148332758Y-112209976D01*
X148493177Y-112161313D01*
X148618196Y-112149000D01*
X149101804Y-112149000D01*
X149226823Y-112161313D01*
X149226823Y-112161313D01*
G37*
M02*
