G04 #@! TF.GenerationSoftware,KiCad,Pcbnew,(5.1.0-0)*
G04 #@! TF.CreationDate,2019-06-12T19:17:28-07:00*
G04 #@! TF.ProjectId,d1_mini_lite_sapflow_ti,64315f6d-696e-4695-9f6c-6974655f7361,rev?*
G04 #@! TF.SameCoordinates,Original*
G04 #@! TF.FileFunction,Copper,L2,Bot*
G04 #@! TF.FilePolarity,Positive*
%FSLAX46Y46*%
G04 Gerber Fmt 4.6, Leading zero omitted, Abs format (unit mm)*
G04 Created by KiCad (PCBNEW (5.1.0-0)) date 2019-06-12 19:17:28*
%MOMM*%
%LPD*%
G04 APERTURE LIST*
%ADD10O,2.000000X1.600000*%
%ADD11R,2.000000X2.000000*%
%ADD12C,0.100000*%
%ADD13C,1.700000*%
%ADD14O,1.700000X1.950000*%
%ADD15R,1.700000X1.700000*%
%ADD16O,1.700000X1.700000*%
%ADD17C,0.250000*%
%ADD18C,0.254000*%
G04 APERTURE END LIST*
D10*
X126000000Y-115540000D03*
D11*
X126000000Y-113000000D03*
D10*
X126000000Y-118080000D03*
X126000000Y-120620000D03*
X126000000Y-123160000D03*
X126000000Y-125700000D03*
X126000000Y-128240000D03*
X126000000Y-130780000D03*
X148860000Y-130780000D03*
X148860000Y-128240000D03*
X148860000Y-125700000D03*
X148860000Y-123160000D03*
X148860000Y-120620000D03*
X148860000Y-118080000D03*
X148860000Y-115540000D03*
X148860000Y-113000000D03*
D12*
G36*
X133224504Y-130226204D02*
G01*
X133248773Y-130229804D01*
X133272571Y-130235765D01*
X133295671Y-130244030D01*
X133317849Y-130254520D01*
X133338893Y-130267133D01*
X133358598Y-130281747D01*
X133376777Y-130298223D01*
X133393253Y-130316402D01*
X133407867Y-130336107D01*
X133420480Y-130357151D01*
X133430970Y-130379329D01*
X133439235Y-130402429D01*
X133445196Y-130426227D01*
X133448796Y-130450496D01*
X133450000Y-130475000D01*
X133450000Y-131925000D01*
X133448796Y-131949504D01*
X133445196Y-131973773D01*
X133439235Y-131997571D01*
X133430970Y-132020671D01*
X133420480Y-132042849D01*
X133407867Y-132063893D01*
X133393253Y-132083598D01*
X133376777Y-132101777D01*
X133358598Y-132118253D01*
X133338893Y-132132867D01*
X133317849Y-132145480D01*
X133295671Y-132155970D01*
X133272571Y-132164235D01*
X133248773Y-132170196D01*
X133224504Y-132173796D01*
X133200000Y-132175000D01*
X132000000Y-132175000D01*
X131975496Y-132173796D01*
X131951227Y-132170196D01*
X131927429Y-132164235D01*
X131904329Y-132155970D01*
X131882151Y-132145480D01*
X131861107Y-132132867D01*
X131841402Y-132118253D01*
X131823223Y-132101777D01*
X131806747Y-132083598D01*
X131792133Y-132063893D01*
X131779520Y-132042849D01*
X131769030Y-132020671D01*
X131760765Y-131997571D01*
X131754804Y-131973773D01*
X131751204Y-131949504D01*
X131750000Y-131925000D01*
X131750000Y-130475000D01*
X131751204Y-130450496D01*
X131754804Y-130426227D01*
X131760765Y-130402429D01*
X131769030Y-130379329D01*
X131779520Y-130357151D01*
X131792133Y-130336107D01*
X131806747Y-130316402D01*
X131823223Y-130298223D01*
X131841402Y-130281747D01*
X131861107Y-130267133D01*
X131882151Y-130254520D01*
X131904329Y-130244030D01*
X131927429Y-130235765D01*
X131951227Y-130229804D01*
X131975496Y-130226204D01*
X132000000Y-130225000D01*
X133200000Y-130225000D01*
X133224504Y-130226204D01*
X133224504Y-130226204D01*
G37*
D13*
X132600000Y-131200000D03*
D14*
X135100000Y-131200000D03*
X137600000Y-131200000D03*
X140100000Y-131200000D03*
X142600000Y-131200000D03*
D15*
X133800000Y-126600000D03*
D16*
X136340000Y-126600000D03*
X138880000Y-126600000D03*
X141420000Y-126600000D03*
D17*
X129640000Y-128240000D02*
X126000000Y-128240000D01*
X132600000Y-131200000D02*
X129640000Y-128240000D01*
D18*
G36*
X149020813Y-105284816D02*
G01*
X149233215Y-105348944D01*
X149429115Y-105453106D01*
X149601053Y-105593335D01*
X149742480Y-105764292D01*
X149848007Y-105959459D01*
X149913615Y-106171408D01*
X149940000Y-106422438D01*
X149940000Y-111865819D01*
X149861101Y-111801068D01*
X149611808Y-111667818D01*
X149341309Y-111585764D01*
X149130492Y-111565000D01*
X148589508Y-111565000D01*
X148378691Y-111585764D01*
X148108192Y-111667818D01*
X147858899Y-111801068D01*
X147640392Y-111980392D01*
X147461068Y-112198899D01*
X147327818Y-112448192D01*
X147245764Y-112718691D01*
X147218057Y-113000000D01*
X147245764Y-113281309D01*
X147327818Y-113551808D01*
X147461068Y-113801101D01*
X147640392Y-114019608D01*
X147858899Y-114198932D01*
X147991858Y-114270000D01*
X147858899Y-114341068D01*
X147640392Y-114520392D01*
X147461068Y-114738899D01*
X147327818Y-114988192D01*
X147245764Y-115258691D01*
X147218057Y-115540000D01*
X147245764Y-115821309D01*
X147327818Y-116091808D01*
X147461068Y-116341101D01*
X147640392Y-116559608D01*
X147858899Y-116738932D01*
X147991858Y-116810000D01*
X147858899Y-116881068D01*
X147640392Y-117060392D01*
X147461068Y-117278899D01*
X147327818Y-117528192D01*
X147245764Y-117798691D01*
X147218057Y-118080000D01*
X147245764Y-118361309D01*
X147327818Y-118631808D01*
X147461068Y-118881101D01*
X147640392Y-119099608D01*
X147858899Y-119278932D01*
X147991858Y-119350000D01*
X147858899Y-119421068D01*
X147640392Y-119600392D01*
X147461068Y-119818899D01*
X147327818Y-120068192D01*
X147245764Y-120338691D01*
X147218057Y-120620000D01*
X147245764Y-120901309D01*
X147327818Y-121171808D01*
X147461068Y-121421101D01*
X147640392Y-121639608D01*
X147858899Y-121818932D01*
X147991858Y-121890000D01*
X147858899Y-121961068D01*
X147640392Y-122140392D01*
X147461068Y-122358899D01*
X147327818Y-122608192D01*
X147245764Y-122878691D01*
X147218057Y-123160000D01*
X147245764Y-123441309D01*
X147327818Y-123711808D01*
X147461068Y-123961101D01*
X147640392Y-124179608D01*
X147858899Y-124358932D01*
X147991858Y-124430000D01*
X147858899Y-124501068D01*
X147640392Y-124680392D01*
X147461068Y-124898899D01*
X147327818Y-125148192D01*
X147245764Y-125418691D01*
X147218057Y-125700000D01*
X147245764Y-125981309D01*
X147327818Y-126251808D01*
X147461068Y-126501101D01*
X147640392Y-126719608D01*
X147858899Y-126898932D01*
X147988345Y-126968122D01*
X147970773Y-126975570D01*
X147737338Y-127134327D01*
X147539361Y-127335575D01*
X147384449Y-127571579D01*
X147278556Y-127833270D01*
X147268096Y-127890961D01*
X147390085Y-128113000D01*
X148733000Y-128113000D01*
X148733000Y-128093000D01*
X148987000Y-128093000D01*
X148987000Y-128113000D01*
X149007000Y-128113000D01*
X149007000Y-128367000D01*
X148987000Y-128367000D01*
X148987000Y-128387000D01*
X148733000Y-128387000D01*
X148733000Y-128367000D01*
X147390085Y-128367000D01*
X147268096Y-128589039D01*
X147278556Y-128646730D01*
X147384449Y-128908421D01*
X147539361Y-129144425D01*
X147737338Y-129345673D01*
X147970773Y-129504430D01*
X147988345Y-129511878D01*
X147858899Y-129581068D01*
X147640392Y-129760392D01*
X147461068Y-129978899D01*
X147327818Y-130228192D01*
X147245764Y-130498691D01*
X147218057Y-130780000D01*
X147245764Y-131061309D01*
X147327818Y-131331808D01*
X147461068Y-131581101D01*
X147640392Y-131799608D01*
X147858899Y-131978932D01*
X148108192Y-132112182D01*
X148378691Y-132194236D01*
X148589508Y-132215000D01*
X149130492Y-132215000D01*
X149341309Y-132194236D01*
X149611808Y-132112182D01*
X149861101Y-131978932D01*
X149940001Y-131914181D01*
X149940001Y-138540000D01*
X125060000Y-138540000D01*
X125060000Y-132011591D01*
X125248192Y-132112182D01*
X125518691Y-132194236D01*
X125729508Y-132215000D01*
X126270492Y-132215000D01*
X126481309Y-132194236D01*
X126751808Y-132112182D01*
X127001101Y-131978932D01*
X127219608Y-131799608D01*
X127398932Y-131581101D01*
X127532182Y-131331808D01*
X127614236Y-131061309D01*
X127641943Y-130780000D01*
X127614236Y-130498691D01*
X127532182Y-130228192D01*
X127398932Y-129978899D01*
X127219608Y-129760392D01*
X127001101Y-129581068D01*
X126868142Y-129510000D01*
X127001101Y-129438932D01*
X127219608Y-129259608D01*
X127398932Y-129041101D01*
X127420901Y-129000000D01*
X129325199Y-129000000D01*
X131111928Y-130786730D01*
X131111928Y-131925000D01*
X131128992Y-132098254D01*
X131179528Y-132264850D01*
X131261595Y-132418386D01*
X131372038Y-132552962D01*
X131506614Y-132663405D01*
X131660150Y-132745472D01*
X131826746Y-132796008D01*
X132000000Y-132813072D01*
X133200000Y-132813072D01*
X133373254Y-132796008D01*
X133539850Y-132745472D01*
X133693386Y-132663405D01*
X133827962Y-132552962D01*
X133938405Y-132418386D01*
X133992777Y-132316663D01*
X134044866Y-132380134D01*
X134270987Y-132565706D01*
X134528967Y-132703599D01*
X134808890Y-132788513D01*
X135100000Y-132817185D01*
X135391111Y-132788513D01*
X135671034Y-132703599D01*
X135929014Y-132565706D01*
X136155134Y-132380134D01*
X136340706Y-132154014D01*
X136354462Y-132128278D01*
X136510951Y-132334429D01*
X136728807Y-132527496D01*
X136980142Y-132674352D01*
X137243110Y-132766476D01*
X137473000Y-132645155D01*
X137473000Y-131327000D01*
X137453000Y-131327000D01*
X137453000Y-131073000D01*
X137473000Y-131073000D01*
X137473000Y-129754845D01*
X137727000Y-129754845D01*
X137727000Y-131073000D01*
X137747000Y-131073000D01*
X137747000Y-131327000D01*
X137727000Y-131327000D01*
X137727000Y-132645155D01*
X137956890Y-132766476D01*
X138219858Y-132674352D01*
X138471193Y-132527496D01*
X138689049Y-132334429D01*
X138845538Y-132128278D01*
X138859294Y-132154014D01*
X139044866Y-132380134D01*
X139270987Y-132565706D01*
X139528967Y-132703599D01*
X139808890Y-132788513D01*
X140100000Y-132817185D01*
X140391111Y-132788513D01*
X140671034Y-132703599D01*
X140929014Y-132565706D01*
X141155134Y-132380134D01*
X141340706Y-132154014D01*
X141350000Y-132136626D01*
X141359294Y-132154014D01*
X141544866Y-132380134D01*
X141770987Y-132565706D01*
X142028967Y-132703599D01*
X142308890Y-132788513D01*
X142600000Y-132817185D01*
X142891111Y-132788513D01*
X143171034Y-132703599D01*
X143429014Y-132565706D01*
X143655134Y-132380134D01*
X143840706Y-132154014D01*
X143978599Y-131896033D01*
X144063513Y-131616110D01*
X144085000Y-131397949D01*
X144085000Y-131002050D01*
X144063513Y-130783889D01*
X143978599Y-130503966D01*
X143840706Y-130245986D01*
X143655134Y-130019866D01*
X143429013Y-129834294D01*
X143171033Y-129696401D01*
X142891110Y-129611487D01*
X142600000Y-129582815D01*
X142308889Y-129611487D01*
X142028966Y-129696401D01*
X141770986Y-129834294D01*
X141544866Y-130019866D01*
X141359294Y-130245987D01*
X141350000Y-130263374D01*
X141340706Y-130245986D01*
X141155134Y-130019866D01*
X140929013Y-129834294D01*
X140671033Y-129696401D01*
X140391110Y-129611487D01*
X140100000Y-129582815D01*
X139808889Y-129611487D01*
X139528966Y-129696401D01*
X139270986Y-129834294D01*
X139044866Y-130019866D01*
X138859294Y-130245987D01*
X138845538Y-130271722D01*
X138689049Y-130065571D01*
X138471193Y-129872504D01*
X138219858Y-129725648D01*
X137956890Y-129633524D01*
X137727000Y-129754845D01*
X137473000Y-129754845D01*
X137243110Y-129633524D01*
X136980142Y-129725648D01*
X136728807Y-129872504D01*
X136510951Y-130065571D01*
X136354462Y-130271722D01*
X136340706Y-130245986D01*
X136155134Y-130019866D01*
X135929013Y-129834294D01*
X135671033Y-129696401D01*
X135391110Y-129611487D01*
X135100000Y-129582815D01*
X134808889Y-129611487D01*
X134528966Y-129696401D01*
X134270986Y-129834294D01*
X134044866Y-130019866D01*
X133992777Y-130083337D01*
X133938405Y-129981614D01*
X133827962Y-129847038D01*
X133693386Y-129736595D01*
X133539850Y-129654528D01*
X133373254Y-129603992D01*
X133200000Y-129586928D01*
X132061730Y-129586928D01*
X130203804Y-127729003D01*
X130180001Y-127699999D01*
X130064276Y-127605026D01*
X129932247Y-127534454D01*
X129788986Y-127490997D01*
X129677333Y-127480000D01*
X129677322Y-127480000D01*
X129640000Y-127476324D01*
X129602678Y-127480000D01*
X127420901Y-127480000D01*
X127398932Y-127438899D01*
X127219608Y-127220392D01*
X127001101Y-127041068D01*
X126868142Y-126970000D01*
X127001101Y-126898932D01*
X127219608Y-126719608D01*
X127398932Y-126501101D01*
X127532182Y-126251808D01*
X127614236Y-125981309D01*
X127637018Y-125750000D01*
X132311928Y-125750000D01*
X132311928Y-127450000D01*
X132324188Y-127574482D01*
X132360498Y-127694180D01*
X132419463Y-127804494D01*
X132498815Y-127901185D01*
X132595506Y-127980537D01*
X132705820Y-128039502D01*
X132825518Y-128075812D01*
X132950000Y-128088072D01*
X134650000Y-128088072D01*
X134774482Y-128075812D01*
X134894180Y-128039502D01*
X135004494Y-127980537D01*
X135101185Y-127901185D01*
X135180537Y-127804494D01*
X135239502Y-127694180D01*
X135260393Y-127625313D01*
X135284866Y-127655134D01*
X135510986Y-127840706D01*
X135768966Y-127978599D01*
X136048889Y-128063513D01*
X136267050Y-128085000D01*
X136412950Y-128085000D01*
X136631111Y-128063513D01*
X136911034Y-127978599D01*
X137169014Y-127840706D01*
X137395134Y-127655134D01*
X137580706Y-127429014D01*
X137615201Y-127364477D01*
X137684822Y-127481355D01*
X137879731Y-127697588D01*
X138113080Y-127871641D01*
X138375901Y-127996825D01*
X138523110Y-128041476D01*
X138753000Y-127920155D01*
X138753000Y-126727000D01*
X138733000Y-126727000D01*
X138733000Y-126473000D01*
X138753000Y-126473000D01*
X138753000Y-125279845D01*
X139007000Y-125279845D01*
X139007000Y-126473000D01*
X139027000Y-126473000D01*
X139027000Y-126727000D01*
X139007000Y-126727000D01*
X139007000Y-127920155D01*
X139236890Y-128041476D01*
X139384099Y-127996825D01*
X139646920Y-127871641D01*
X139880269Y-127697588D01*
X140075178Y-127481355D01*
X140144799Y-127364477D01*
X140179294Y-127429014D01*
X140364866Y-127655134D01*
X140590986Y-127840706D01*
X140848966Y-127978599D01*
X141128889Y-128063513D01*
X141347050Y-128085000D01*
X141492950Y-128085000D01*
X141711111Y-128063513D01*
X141991034Y-127978599D01*
X142249014Y-127840706D01*
X142475134Y-127655134D01*
X142660706Y-127429014D01*
X142798599Y-127171034D01*
X142883513Y-126891111D01*
X142912185Y-126600000D01*
X142883513Y-126308889D01*
X142798599Y-126028966D01*
X142660706Y-125770986D01*
X142475134Y-125544866D01*
X142249014Y-125359294D01*
X141991034Y-125221401D01*
X141711111Y-125136487D01*
X141492950Y-125115000D01*
X141347050Y-125115000D01*
X141128889Y-125136487D01*
X140848966Y-125221401D01*
X140590986Y-125359294D01*
X140364866Y-125544866D01*
X140179294Y-125770986D01*
X140144799Y-125835523D01*
X140075178Y-125718645D01*
X139880269Y-125502412D01*
X139646920Y-125328359D01*
X139384099Y-125203175D01*
X139236890Y-125158524D01*
X139007000Y-125279845D01*
X138753000Y-125279845D01*
X138523110Y-125158524D01*
X138375901Y-125203175D01*
X138113080Y-125328359D01*
X137879731Y-125502412D01*
X137684822Y-125718645D01*
X137615201Y-125835523D01*
X137580706Y-125770986D01*
X137395134Y-125544866D01*
X137169014Y-125359294D01*
X136911034Y-125221401D01*
X136631111Y-125136487D01*
X136412950Y-125115000D01*
X136267050Y-125115000D01*
X136048889Y-125136487D01*
X135768966Y-125221401D01*
X135510986Y-125359294D01*
X135284866Y-125544866D01*
X135260393Y-125574687D01*
X135239502Y-125505820D01*
X135180537Y-125395506D01*
X135101185Y-125298815D01*
X135004494Y-125219463D01*
X134894180Y-125160498D01*
X134774482Y-125124188D01*
X134650000Y-125111928D01*
X132950000Y-125111928D01*
X132825518Y-125124188D01*
X132705820Y-125160498D01*
X132595506Y-125219463D01*
X132498815Y-125298815D01*
X132419463Y-125395506D01*
X132360498Y-125505820D01*
X132324188Y-125625518D01*
X132311928Y-125750000D01*
X127637018Y-125750000D01*
X127641943Y-125700000D01*
X127614236Y-125418691D01*
X127532182Y-125148192D01*
X127398932Y-124898899D01*
X127219608Y-124680392D01*
X127001101Y-124501068D01*
X126868142Y-124430000D01*
X127001101Y-124358932D01*
X127219608Y-124179608D01*
X127398932Y-123961101D01*
X127532182Y-123711808D01*
X127614236Y-123441309D01*
X127641943Y-123160000D01*
X127614236Y-122878691D01*
X127532182Y-122608192D01*
X127398932Y-122358899D01*
X127219608Y-122140392D01*
X127001101Y-121961068D01*
X126868142Y-121890000D01*
X127001101Y-121818932D01*
X127219608Y-121639608D01*
X127398932Y-121421101D01*
X127532182Y-121171808D01*
X127614236Y-120901309D01*
X127641943Y-120620000D01*
X127614236Y-120338691D01*
X127532182Y-120068192D01*
X127398932Y-119818899D01*
X127219608Y-119600392D01*
X127001101Y-119421068D01*
X126868142Y-119350000D01*
X127001101Y-119278932D01*
X127219608Y-119099608D01*
X127398932Y-118881101D01*
X127532182Y-118631808D01*
X127614236Y-118361309D01*
X127641943Y-118080000D01*
X127614236Y-117798691D01*
X127532182Y-117528192D01*
X127398932Y-117278899D01*
X127219608Y-117060392D01*
X127001101Y-116881068D01*
X126868142Y-116810000D01*
X127001101Y-116738932D01*
X127219608Y-116559608D01*
X127398932Y-116341101D01*
X127532182Y-116091808D01*
X127614236Y-115821309D01*
X127641943Y-115540000D01*
X127614236Y-115258691D01*
X127532182Y-114988192D01*
X127398932Y-114738899D01*
X127266524Y-114577559D01*
X127354494Y-114530537D01*
X127451185Y-114451185D01*
X127530537Y-114354494D01*
X127589502Y-114244180D01*
X127625812Y-114124482D01*
X127638072Y-114000000D01*
X127638072Y-112000000D01*
X127625812Y-111875518D01*
X127589502Y-111755820D01*
X127530537Y-111645506D01*
X127451185Y-111548815D01*
X127354494Y-111469463D01*
X127244180Y-111410498D01*
X127124482Y-111374188D01*
X127000000Y-111361928D01*
X125060000Y-111361928D01*
X125060000Y-106632279D01*
X125088625Y-106340341D01*
X125164035Y-106090571D01*
X125286522Y-105860208D01*
X125451422Y-105658020D01*
X125652450Y-105491714D01*
X125881954Y-105367622D01*
X126131195Y-105290469D01*
X126421088Y-105260000D01*
X148767721Y-105260000D01*
X149020813Y-105284816D01*
X149020813Y-105284816D01*
G37*
X149020813Y-105284816D02*
X149233215Y-105348944D01*
X149429115Y-105453106D01*
X149601053Y-105593335D01*
X149742480Y-105764292D01*
X149848007Y-105959459D01*
X149913615Y-106171408D01*
X149940000Y-106422438D01*
X149940000Y-111865819D01*
X149861101Y-111801068D01*
X149611808Y-111667818D01*
X149341309Y-111585764D01*
X149130492Y-111565000D01*
X148589508Y-111565000D01*
X148378691Y-111585764D01*
X148108192Y-111667818D01*
X147858899Y-111801068D01*
X147640392Y-111980392D01*
X147461068Y-112198899D01*
X147327818Y-112448192D01*
X147245764Y-112718691D01*
X147218057Y-113000000D01*
X147245764Y-113281309D01*
X147327818Y-113551808D01*
X147461068Y-113801101D01*
X147640392Y-114019608D01*
X147858899Y-114198932D01*
X147991858Y-114270000D01*
X147858899Y-114341068D01*
X147640392Y-114520392D01*
X147461068Y-114738899D01*
X147327818Y-114988192D01*
X147245764Y-115258691D01*
X147218057Y-115540000D01*
X147245764Y-115821309D01*
X147327818Y-116091808D01*
X147461068Y-116341101D01*
X147640392Y-116559608D01*
X147858899Y-116738932D01*
X147991858Y-116810000D01*
X147858899Y-116881068D01*
X147640392Y-117060392D01*
X147461068Y-117278899D01*
X147327818Y-117528192D01*
X147245764Y-117798691D01*
X147218057Y-118080000D01*
X147245764Y-118361309D01*
X147327818Y-118631808D01*
X147461068Y-118881101D01*
X147640392Y-119099608D01*
X147858899Y-119278932D01*
X147991858Y-119350000D01*
X147858899Y-119421068D01*
X147640392Y-119600392D01*
X147461068Y-119818899D01*
X147327818Y-120068192D01*
X147245764Y-120338691D01*
X147218057Y-120620000D01*
X147245764Y-120901309D01*
X147327818Y-121171808D01*
X147461068Y-121421101D01*
X147640392Y-121639608D01*
X147858899Y-121818932D01*
X147991858Y-121890000D01*
X147858899Y-121961068D01*
X147640392Y-122140392D01*
X147461068Y-122358899D01*
X147327818Y-122608192D01*
X147245764Y-122878691D01*
X147218057Y-123160000D01*
X147245764Y-123441309D01*
X147327818Y-123711808D01*
X147461068Y-123961101D01*
X147640392Y-124179608D01*
X147858899Y-124358932D01*
X147991858Y-124430000D01*
X147858899Y-124501068D01*
X147640392Y-124680392D01*
X147461068Y-124898899D01*
X147327818Y-125148192D01*
X147245764Y-125418691D01*
X147218057Y-125700000D01*
X147245764Y-125981309D01*
X147327818Y-126251808D01*
X147461068Y-126501101D01*
X147640392Y-126719608D01*
X147858899Y-126898932D01*
X147988345Y-126968122D01*
X147970773Y-126975570D01*
X147737338Y-127134327D01*
X147539361Y-127335575D01*
X147384449Y-127571579D01*
X147278556Y-127833270D01*
X147268096Y-127890961D01*
X147390085Y-128113000D01*
X148733000Y-128113000D01*
X148733000Y-128093000D01*
X148987000Y-128093000D01*
X148987000Y-128113000D01*
X149007000Y-128113000D01*
X149007000Y-128367000D01*
X148987000Y-128367000D01*
X148987000Y-128387000D01*
X148733000Y-128387000D01*
X148733000Y-128367000D01*
X147390085Y-128367000D01*
X147268096Y-128589039D01*
X147278556Y-128646730D01*
X147384449Y-128908421D01*
X147539361Y-129144425D01*
X147737338Y-129345673D01*
X147970773Y-129504430D01*
X147988345Y-129511878D01*
X147858899Y-129581068D01*
X147640392Y-129760392D01*
X147461068Y-129978899D01*
X147327818Y-130228192D01*
X147245764Y-130498691D01*
X147218057Y-130780000D01*
X147245764Y-131061309D01*
X147327818Y-131331808D01*
X147461068Y-131581101D01*
X147640392Y-131799608D01*
X147858899Y-131978932D01*
X148108192Y-132112182D01*
X148378691Y-132194236D01*
X148589508Y-132215000D01*
X149130492Y-132215000D01*
X149341309Y-132194236D01*
X149611808Y-132112182D01*
X149861101Y-131978932D01*
X149940001Y-131914181D01*
X149940001Y-138540000D01*
X125060000Y-138540000D01*
X125060000Y-132011591D01*
X125248192Y-132112182D01*
X125518691Y-132194236D01*
X125729508Y-132215000D01*
X126270492Y-132215000D01*
X126481309Y-132194236D01*
X126751808Y-132112182D01*
X127001101Y-131978932D01*
X127219608Y-131799608D01*
X127398932Y-131581101D01*
X127532182Y-131331808D01*
X127614236Y-131061309D01*
X127641943Y-130780000D01*
X127614236Y-130498691D01*
X127532182Y-130228192D01*
X127398932Y-129978899D01*
X127219608Y-129760392D01*
X127001101Y-129581068D01*
X126868142Y-129510000D01*
X127001101Y-129438932D01*
X127219608Y-129259608D01*
X127398932Y-129041101D01*
X127420901Y-129000000D01*
X129325199Y-129000000D01*
X131111928Y-130786730D01*
X131111928Y-131925000D01*
X131128992Y-132098254D01*
X131179528Y-132264850D01*
X131261595Y-132418386D01*
X131372038Y-132552962D01*
X131506614Y-132663405D01*
X131660150Y-132745472D01*
X131826746Y-132796008D01*
X132000000Y-132813072D01*
X133200000Y-132813072D01*
X133373254Y-132796008D01*
X133539850Y-132745472D01*
X133693386Y-132663405D01*
X133827962Y-132552962D01*
X133938405Y-132418386D01*
X133992777Y-132316663D01*
X134044866Y-132380134D01*
X134270987Y-132565706D01*
X134528967Y-132703599D01*
X134808890Y-132788513D01*
X135100000Y-132817185D01*
X135391111Y-132788513D01*
X135671034Y-132703599D01*
X135929014Y-132565706D01*
X136155134Y-132380134D01*
X136340706Y-132154014D01*
X136354462Y-132128278D01*
X136510951Y-132334429D01*
X136728807Y-132527496D01*
X136980142Y-132674352D01*
X137243110Y-132766476D01*
X137473000Y-132645155D01*
X137473000Y-131327000D01*
X137453000Y-131327000D01*
X137453000Y-131073000D01*
X137473000Y-131073000D01*
X137473000Y-129754845D01*
X137727000Y-129754845D01*
X137727000Y-131073000D01*
X137747000Y-131073000D01*
X137747000Y-131327000D01*
X137727000Y-131327000D01*
X137727000Y-132645155D01*
X137956890Y-132766476D01*
X138219858Y-132674352D01*
X138471193Y-132527496D01*
X138689049Y-132334429D01*
X138845538Y-132128278D01*
X138859294Y-132154014D01*
X139044866Y-132380134D01*
X139270987Y-132565706D01*
X139528967Y-132703599D01*
X139808890Y-132788513D01*
X140100000Y-132817185D01*
X140391111Y-132788513D01*
X140671034Y-132703599D01*
X140929014Y-132565706D01*
X141155134Y-132380134D01*
X141340706Y-132154014D01*
X141350000Y-132136626D01*
X141359294Y-132154014D01*
X141544866Y-132380134D01*
X141770987Y-132565706D01*
X142028967Y-132703599D01*
X142308890Y-132788513D01*
X142600000Y-132817185D01*
X142891111Y-132788513D01*
X143171034Y-132703599D01*
X143429014Y-132565706D01*
X143655134Y-132380134D01*
X143840706Y-132154014D01*
X143978599Y-131896033D01*
X144063513Y-131616110D01*
X144085000Y-131397949D01*
X144085000Y-131002050D01*
X144063513Y-130783889D01*
X143978599Y-130503966D01*
X143840706Y-130245986D01*
X143655134Y-130019866D01*
X143429013Y-129834294D01*
X143171033Y-129696401D01*
X142891110Y-129611487D01*
X142600000Y-129582815D01*
X142308889Y-129611487D01*
X142028966Y-129696401D01*
X141770986Y-129834294D01*
X141544866Y-130019866D01*
X141359294Y-130245987D01*
X141350000Y-130263374D01*
X141340706Y-130245986D01*
X141155134Y-130019866D01*
X140929013Y-129834294D01*
X140671033Y-129696401D01*
X140391110Y-129611487D01*
X140100000Y-129582815D01*
X139808889Y-129611487D01*
X139528966Y-129696401D01*
X139270986Y-129834294D01*
X139044866Y-130019866D01*
X138859294Y-130245987D01*
X138845538Y-130271722D01*
X138689049Y-130065571D01*
X138471193Y-129872504D01*
X138219858Y-129725648D01*
X137956890Y-129633524D01*
X137727000Y-129754845D01*
X137473000Y-129754845D01*
X137243110Y-129633524D01*
X136980142Y-129725648D01*
X136728807Y-129872504D01*
X136510951Y-130065571D01*
X136354462Y-130271722D01*
X136340706Y-130245986D01*
X136155134Y-130019866D01*
X135929013Y-129834294D01*
X135671033Y-129696401D01*
X135391110Y-129611487D01*
X135100000Y-129582815D01*
X134808889Y-129611487D01*
X134528966Y-129696401D01*
X134270986Y-129834294D01*
X134044866Y-130019866D01*
X133992777Y-130083337D01*
X133938405Y-129981614D01*
X133827962Y-129847038D01*
X133693386Y-129736595D01*
X133539850Y-129654528D01*
X133373254Y-129603992D01*
X133200000Y-129586928D01*
X132061730Y-129586928D01*
X130203804Y-127729003D01*
X130180001Y-127699999D01*
X130064276Y-127605026D01*
X129932247Y-127534454D01*
X129788986Y-127490997D01*
X129677333Y-127480000D01*
X129677322Y-127480000D01*
X129640000Y-127476324D01*
X129602678Y-127480000D01*
X127420901Y-127480000D01*
X127398932Y-127438899D01*
X127219608Y-127220392D01*
X127001101Y-127041068D01*
X126868142Y-126970000D01*
X127001101Y-126898932D01*
X127219608Y-126719608D01*
X127398932Y-126501101D01*
X127532182Y-126251808D01*
X127614236Y-125981309D01*
X127637018Y-125750000D01*
X132311928Y-125750000D01*
X132311928Y-127450000D01*
X132324188Y-127574482D01*
X132360498Y-127694180D01*
X132419463Y-127804494D01*
X132498815Y-127901185D01*
X132595506Y-127980537D01*
X132705820Y-128039502D01*
X132825518Y-128075812D01*
X132950000Y-128088072D01*
X134650000Y-128088072D01*
X134774482Y-128075812D01*
X134894180Y-128039502D01*
X135004494Y-127980537D01*
X135101185Y-127901185D01*
X135180537Y-127804494D01*
X135239502Y-127694180D01*
X135260393Y-127625313D01*
X135284866Y-127655134D01*
X135510986Y-127840706D01*
X135768966Y-127978599D01*
X136048889Y-128063513D01*
X136267050Y-128085000D01*
X136412950Y-128085000D01*
X136631111Y-128063513D01*
X136911034Y-127978599D01*
X137169014Y-127840706D01*
X137395134Y-127655134D01*
X137580706Y-127429014D01*
X137615201Y-127364477D01*
X137684822Y-127481355D01*
X137879731Y-127697588D01*
X138113080Y-127871641D01*
X138375901Y-127996825D01*
X138523110Y-128041476D01*
X138753000Y-127920155D01*
X138753000Y-126727000D01*
X138733000Y-126727000D01*
X138733000Y-126473000D01*
X138753000Y-126473000D01*
X138753000Y-125279845D01*
X139007000Y-125279845D01*
X139007000Y-126473000D01*
X139027000Y-126473000D01*
X139027000Y-126727000D01*
X139007000Y-126727000D01*
X139007000Y-127920155D01*
X139236890Y-128041476D01*
X139384099Y-127996825D01*
X139646920Y-127871641D01*
X139880269Y-127697588D01*
X140075178Y-127481355D01*
X140144799Y-127364477D01*
X140179294Y-127429014D01*
X140364866Y-127655134D01*
X140590986Y-127840706D01*
X140848966Y-127978599D01*
X141128889Y-128063513D01*
X141347050Y-128085000D01*
X141492950Y-128085000D01*
X141711111Y-128063513D01*
X141991034Y-127978599D01*
X142249014Y-127840706D01*
X142475134Y-127655134D01*
X142660706Y-127429014D01*
X142798599Y-127171034D01*
X142883513Y-126891111D01*
X142912185Y-126600000D01*
X142883513Y-126308889D01*
X142798599Y-126028966D01*
X142660706Y-125770986D01*
X142475134Y-125544866D01*
X142249014Y-125359294D01*
X141991034Y-125221401D01*
X141711111Y-125136487D01*
X141492950Y-125115000D01*
X141347050Y-125115000D01*
X141128889Y-125136487D01*
X140848966Y-125221401D01*
X140590986Y-125359294D01*
X140364866Y-125544866D01*
X140179294Y-125770986D01*
X140144799Y-125835523D01*
X140075178Y-125718645D01*
X139880269Y-125502412D01*
X139646920Y-125328359D01*
X139384099Y-125203175D01*
X139236890Y-125158524D01*
X139007000Y-125279845D01*
X138753000Y-125279845D01*
X138523110Y-125158524D01*
X138375901Y-125203175D01*
X138113080Y-125328359D01*
X137879731Y-125502412D01*
X137684822Y-125718645D01*
X137615201Y-125835523D01*
X137580706Y-125770986D01*
X137395134Y-125544866D01*
X137169014Y-125359294D01*
X136911034Y-125221401D01*
X136631111Y-125136487D01*
X136412950Y-125115000D01*
X136267050Y-125115000D01*
X136048889Y-125136487D01*
X135768966Y-125221401D01*
X135510986Y-125359294D01*
X135284866Y-125544866D01*
X135260393Y-125574687D01*
X135239502Y-125505820D01*
X135180537Y-125395506D01*
X135101185Y-125298815D01*
X135004494Y-125219463D01*
X134894180Y-125160498D01*
X134774482Y-125124188D01*
X134650000Y-125111928D01*
X132950000Y-125111928D01*
X132825518Y-125124188D01*
X132705820Y-125160498D01*
X132595506Y-125219463D01*
X132498815Y-125298815D01*
X132419463Y-125395506D01*
X132360498Y-125505820D01*
X132324188Y-125625518D01*
X132311928Y-125750000D01*
X127637018Y-125750000D01*
X127641943Y-125700000D01*
X127614236Y-125418691D01*
X127532182Y-125148192D01*
X127398932Y-124898899D01*
X127219608Y-124680392D01*
X127001101Y-124501068D01*
X126868142Y-124430000D01*
X127001101Y-124358932D01*
X127219608Y-124179608D01*
X127398932Y-123961101D01*
X127532182Y-123711808D01*
X127614236Y-123441309D01*
X127641943Y-123160000D01*
X127614236Y-122878691D01*
X127532182Y-122608192D01*
X127398932Y-122358899D01*
X127219608Y-122140392D01*
X127001101Y-121961068D01*
X126868142Y-121890000D01*
X127001101Y-121818932D01*
X127219608Y-121639608D01*
X127398932Y-121421101D01*
X127532182Y-121171808D01*
X127614236Y-120901309D01*
X127641943Y-120620000D01*
X127614236Y-120338691D01*
X127532182Y-120068192D01*
X127398932Y-119818899D01*
X127219608Y-119600392D01*
X127001101Y-119421068D01*
X126868142Y-119350000D01*
X127001101Y-119278932D01*
X127219608Y-119099608D01*
X127398932Y-118881101D01*
X127532182Y-118631808D01*
X127614236Y-118361309D01*
X127641943Y-118080000D01*
X127614236Y-117798691D01*
X127532182Y-117528192D01*
X127398932Y-117278899D01*
X127219608Y-117060392D01*
X127001101Y-116881068D01*
X126868142Y-116810000D01*
X127001101Y-116738932D01*
X127219608Y-116559608D01*
X127398932Y-116341101D01*
X127532182Y-116091808D01*
X127614236Y-115821309D01*
X127641943Y-115540000D01*
X127614236Y-115258691D01*
X127532182Y-114988192D01*
X127398932Y-114738899D01*
X127266524Y-114577559D01*
X127354494Y-114530537D01*
X127451185Y-114451185D01*
X127530537Y-114354494D01*
X127589502Y-114244180D01*
X127625812Y-114124482D01*
X127638072Y-114000000D01*
X127638072Y-112000000D01*
X127625812Y-111875518D01*
X127589502Y-111755820D01*
X127530537Y-111645506D01*
X127451185Y-111548815D01*
X127354494Y-111469463D01*
X127244180Y-111410498D01*
X127124482Y-111374188D01*
X127000000Y-111361928D01*
X125060000Y-111361928D01*
X125060000Y-106632279D01*
X125088625Y-106340341D01*
X125164035Y-106090571D01*
X125286522Y-105860208D01*
X125451422Y-105658020D01*
X125652450Y-105491714D01*
X125881954Y-105367622D01*
X126131195Y-105290469D01*
X126421088Y-105260000D01*
X148767721Y-105260000D01*
X149020813Y-105284816D01*
M02*
