M48
; DRILL file {KiCad (5.1.0-0)} date Wednesday, June 12, 2019 at 07:17:31 PM
; FORMAT={-:-/ absolute / inch / decimal}
; #@! TF.CreationDate,2019-06-12T19:17:31-07:00
; #@! TF.GenerationSoftware,Kicad,Pcbnew,(5.1.0-0)
; #@! TF.FileFunction,Plated,1,2,PTH
FMAT,2
INCH
T1C0.0374
T2C0.0394
%
G90
G05
T1
X5.2205Y-5.1654
X5.3189Y-5.1654
X5.4173Y-5.1654
X5.5157Y-5.1654
X5.6142Y-5.1654
T2
X4.9606Y-4.4488
X4.9606Y-4.5488
X4.9606Y-4.6488
X4.9606Y-4.7488
X4.9606Y-4.8488
X4.9606Y-4.9488
X4.9606Y-5.0488
X4.9606Y-5.1488
X5.8606Y-4.4488
X5.8606Y-4.5488
X5.8606Y-4.6488
X5.8606Y-4.7488
X5.8606Y-4.8488
X5.8606Y-4.9488
X5.8606Y-5.0488
X5.8606Y-5.1488
X5.2677Y-4.9843
X5.3677Y-4.9843
X5.4677Y-4.9843
X5.5677Y-4.9843
T0
M30
