G04 #@! TF.GenerationSoftware,KiCad,Pcbnew,(5.1.0-0)*
G04 #@! TF.CreationDate,2019-06-12T19:17:28-07:00*
G04 #@! TF.ProjectId,d1_mini_lite_sapflow_ti,64315f6d-696e-4695-9f6c-6974655f7361,rev?*
G04 #@! TF.SameCoordinates,Original*
G04 #@! TF.FileFunction,Legend,Top*
G04 #@! TF.FilePolarity,Positive*
%FSLAX46Y46*%
G04 Gerber Fmt 4.6, Leading zero omitted, Abs format (unit mm)*
G04 Created by KiCad (PCBNEW (5.1.0-0)) date 2019-06-12 19:17:28*
%MOMM*%
%LPD*%
G04 APERTURE LIST*
%ADD10C,0.150000*%
%ADD11C,0.120000*%
G04 APERTURE END LIST*
D10*
X132314285Y-115052380D02*
X132314285Y-114052380D01*
X132552380Y-114052380D01*
X132695238Y-114100000D01*
X132790476Y-114195238D01*
X132838095Y-114290476D01*
X132885714Y-114480952D01*
X132885714Y-114623809D01*
X132838095Y-114814285D01*
X132790476Y-114909523D01*
X132695238Y-115004761D01*
X132552380Y-115052380D01*
X132314285Y-115052380D01*
X133504761Y-114052380D02*
X133695238Y-114052380D01*
X133790476Y-114100000D01*
X133885714Y-114195238D01*
X133933333Y-114385714D01*
X133933333Y-114719047D01*
X133885714Y-114909523D01*
X133790476Y-115004761D01*
X133695238Y-115052380D01*
X133504761Y-115052380D01*
X133409523Y-115004761D01*
X133314285Y-114909523D01*
X133266666Y-114719047D01*
X133266666Y-114385714D01*
X133314285Y-114195238D01*
X133409523Y-114100000D01*
X133504761Y-114052380D01*
X134219047Y-114052380D02*
X134790476Y-114052380D01*
X134504761Y-115052380D02*
X134504761Y-114052380D01*
X135123809Y-115052380D02*
X135123809Y-114052380D01*
X135457142Y-114766666D01*
X135790476Y-114052380D01*
X135790476Y-115052380D01*
X136457142Y-114052380D02*
X136647619Y-114052380D01*
X136742857Y-114100000D01*
X136838095Y-114195238D01*
X136885714Y-114385714D01*
X136885714Y-114719047D01*
X136838095Y-114909523D01*
X136742857Y-115004761D01*
X136647619Y-115052380D01*
X136457142Y-115052380D01*
X136361904Y-115004761D01*
X136266666Y-114909523D01*
X136219047Y-114719047D01*
X136219047Y-114385714D01*
X136266666Y-114195238D01*
X136361904Y-114100000D01*
X136457142Y-114052380D01*
X137171428Y-114052380D02*
X137742857Y-114052380D01*
X137457142Y-115052380D02*
X137457142Y-114052380D01*
X138076190Y-114528571D02*
X138409523Y-114528571D01*
X138552380Y-115052380D02*
X138076190Y-115052380D01*
X138076190Y-114052380D01*
X138552380Y-114052380D01*
X140219047Y-115052380D02*
X139742857Y-115052380D01*
X139742857Y-114052380D01*
X140504761Y-114766666D02*
X140980952Y-114766666D01*
X140409523Y-115052380D02*
X140742857Y-114052380D01*
X141076190Y-115052380D01*
X141742857Y-114528571D02*
X141885714Y-114576190D01*
X141933333Y-114623809D01*
X141980952Y-114719047D01*
X141980952Y-114861904D01*
X141933333Y-114957142D01*
X141885714Y-115004761D01*
X141790476Y-115052380D01*
X141409523Y-115052380D01*
X141409523Y-114052380D01*
X141742857Y-114052380D01*
X141838095Y-114100000D01*
X141885714Y-114147619D01*
X141933333Y-114242857D01*
X141933333Y-114338095D01*
X141885714Y-114433333D01*
X141838095Y-114480952D01*
X141742857Y-114528571D01*
X141409523Y-114528571D01*
X142361904Y-115004761D02*
X142504761Y-115052380D01*
X142742857Y-115052380D01*
X142838095Y-115004761D01*
X142885714Y-114957142D01*
X142933333Y-114861904D01*
X142933333Y-114766666D01*
X142885714Y-114671428D01*
X142838095Y-114623809D01*
X142742857Y-114576190D01*
X142552380Y-114528571D01*
X142457142Y-114480952D01*
X142409523Y-114433333D01*
X142361904Y-114338095D01*
X142361904Y-114242857D01*
X142409523Y-114147619D01*
X142457142Y-114100000D01*
X142552380Y-114052380D01*
X142790476Y-114052380D01*
X142933333Y-114100000D01*
D11*
X127040000Y-139120000D02*
X150360000Y-139120000D01*
X124500000Y-132220000D02*
X124500000Y-106790000D01*
X150360000Y-139120000D02*
X150360000Y-106790000D01*
X148240000Y-104660000D02*
X126630000Y-104660000D01*
D10*
G36*
X123460000Y-112365000D02*
G01*
X123460000Y-113635000D01*
X124095000Y-113000000D01*
X123460000Y-112365000D01*
G37*
X123460000Y-112365000D02*
X123460000Y-113635000D01*
X124095000Y-113000000D01*
X123460000Y-112365000D01*
D11*
X124500000Y-132220000D02*
X127040000Y-132220000D01*
X127040000Y-132220000D02*
X127040000Y-139120000D01*
X124500000Y-106790000D02*
G75*
G02X126630000Y-104660000I2130000J0D01*
G01*
X148230000Y-104660000D02*
G75*
G02X150360000Y-106790000I0J-2130000D01*
G01*
D10*
X147238095Y-139452380D02*
X147238095Y-140261904D01*
X147285714Y-140357142D01*
X147333333Y-140404761D01*
X147428571Y-140452380D01*
X147619047Y-140452380D01*
X147714285Y-140404761D01*
X147761904Y-140357142D01*
X147809523Y-140261904D01*
X147809523Y-139452380D01*
X148809523Y-140452380D02*
X148238095Y-140452380D01*
X148523809Y-140452380D02*
X148523809Y-139452380D01*
X148428571Y-139595238D01*
X148333333Y-139690476D01*
X148238095Y-139738095D01*
M02*
