G04 #@! TF.GenerationSoftware,KiCad,Pcbnew,(5.1.0-0)*
G04 #@! TF.CreationDate,2019-06-12T19:17:28-07:00*
G04 #@! TF.ProjectId,d1_mini_lite_sapflow_ti,64315f6d-696e-4695-9f6c-6974655f7361,rev?*
G04 #@! TF.SameCoordinates,Original*
G04 #@! TF.FileFunction,Legend,Bot*
G04 #@! TF.FilePolarity,Positive*
%FSLAX46Y46*%
G04 Gerber Fmt 4.6, Leading zero omitted, Abs format (unit mm)*
G04 Created by KiCad (PCBNEW (5.1.0-0)) date 2019-06-12 19:17:28*
%MOMM*%
%LPD*%
G04 APERTURE LIST*
%ADD10C,0.150000*%
%ADD11C,0.120000*%
G04 APERTURE END LIST*
D10*
X134171428Y-115925000D02*
X133814285Y-115925000D01*
X134242857Y-116139285D02*
X133992857Y-115389285D01*
X133742857Y-116139285D01*
X133350000Y-115389285D02*
X133207142Y-115389285D01*
X133135714Y-115425000D01*
X133064285Y-115496428D01*
X133028571Y-115639285D01*
X133028571Y-115889285D01*
X133064285Y-116032142D01*
X133135714Y-116103571D01*
X133207142Y-116139285D01*
X133350000Y-116139285D01*
X133421428Y-116103571D01*
X133492857Y-116032142D01*
X133528571Y-115889285D01*
X133528571Y-115639285D01*
X133492857Y-115496428D01*
X133421428Y-115425000D01*
X133350000Y-115389285D01*
X139371428Y-115425000D02*
X139442857Y-115389285D01*
X139550000Y-115389285D01*
X139657142Y-115425000D01*
X139728571Y-115496428D01*
X139764285Y-115567857D01*
X139800000Y-115710714D01*
X139800000Y-115817857D01*
X139764285Y-115960714D01*
X139728571Y-116032142D01*
X139657142Y-116103571D01*
X139550000Y-116139285D01*
X139478571Y-116139285D01*
X139371428Y-116103571D01*
X139335714Y-116067857D01*
X139335714Y-115817857D01*
X139478571Y-115817857D01*
X139014285Y-116139285D02*
X139014285Y-115389285D01*
X138585714Y-116139285D01*
X138585714Y-115389285D01*
X138228571Y-116139285D02*
X138228571Y-115389285D01*
X138050000Y-115389285D01*
X137942857Y-115425000D01*
X137871428Y-115496428D01*
X137835714Y-115567857D01*
X137800000Y-115710714D01*
X137800000Y-115817857D01*
X137835714Y-115960714D01*
X137871428Y-116032142D01*
X137942857Y-116103571D01*
X138050000Y-116139285D01*
X138228571Y-116139285D01*
X142528571Y-115389285D02*
X142064285Y-115389285D01*
X142314285Y-115675000D01*
X142207142Y-115675000D01*
X142135714Y-115710714D01*
X142100000Y-115746428D01*
X142064285Y-115817857D01*
X142064285Y-115996428D01*
X142100000Y-116067857D01*
X142135714Y-116103571D01*
X142207142Y-116139285D01*
X142421428Y-116139285D01*
X142492857Y-116103571D01*
X142528571Y-116067857D01*
X141850000Y-115389285D02*
X141600000Y-116139285D01*
X141350000Y-115389285D01*
X141171428Y-115389285D02*
X140707142Y-115389285D01*
X140957142Y-115675000D01*
X140850000Y-115675000D01*
X140778571Y-115710714D01*
X140742857Y-115746428D01*
X140707142Y-115817857D01*
X140707142Y-115996428D01*
X140742857Y-116067857D01*
X140778571Y-116103571D01*
X140850000Y-116139285D01*
X141064285Y-116139285D01*
X141135714Y-116103571D01*
X141171428Y-116067857D01*
D11*
X131210000Y-131790000D02*
X131210000Y-129590000D01*
X131210000Y-129590000D02*
X129990000Y-129590000D01*
X129990000Y-129590000D02*
X129990000Y-138010000D01*
X129990000Y-138010000D02*
X145210000Y-138010000D01*
X145210000Y-138010000D02*
X145210000Y-129590000D01*
X145210000Y-129590000D02*
X143990000Y-129590000D01*
X143990000Y-129590000D02*
X143990000Y-131790000D01*
X129990000Y-136790000D02*
X131210000Y-136790000D01*
X131210000Y-136790000D02*
X131210000Y-131790000D01*
X131210000Y-131790000D02*
X129990000Y-131790000D01*
X145210000Y-136790000D02*
X143990000Y-136790000D01*
X143990000Y-136790000D02*
X143990000Y-131790000D01*
X143990000Y-131790000D02*
X145210000Y-131790000D01*
X131210000Y-132790000D02*
X143990000Y-132790000D01*
X132600000Y-132790000D02*
X132280000Y-132790000D01*
X132280000Y-132790000D02*
X132280000Y-136210000D01*
X132280000Y-136210000D02*
X132600000Y-136290000D01*
X132600000Y-136290000D02*
X132920000Y-136210000D01*
X132920000Y-136210000D02*
X132920000Y-132790000D01*
X132920000Y-132790000D02*
X132600000Y-132790000D01*
X133770000Y-131790000D02*
X133930000Y-131790000D01*
X135100000Y-132790000D02*
X134780000Y-132790000D01*
X134780000Y-132790000D02*
X134780000Y-136210000D01*
X134780000Y-136210000D02*
X135100000Y-136290000D01*
X135100000Y-136290000D02*
X135420000Y-136210000D01*
X135420000Y-136210000D02*
X135420000Y-132790000D01*
X135420000Y-132790000D02*
X135100000Y-132790000D01*
X136270000Y-131790000D02*
X136430000Y-131790000D01*
X137600000Y-132790000D02*
X137280000Y-132790000D01*
X137280000Y-132790000D02*
X137280000Y-136210000D01*
X137280000Y-136210000D02*
X137600000Y-136290000D01*
X137600000Y-136290000D02*
X137920000Y-136210000D01*
X137920000Y-136210000D02*
X137920000Y-132790000D01*
X137920000Y-132790000D02*
X137600000Y-132790000D01*
X138770000Y-131790000D02*
X138930000Y-131790000D01*
X140100000Y-132790000D02*
X139780000Y-132790000D01*
X139780000Y-132790000D02*
X139780000Y-136210000D01*
X139780000Y-136210000D02*
X140100000Y-136290000D01*
X140100000Y-136290000D02*
X140420000Y-136210000D01*
X140420000Y-136210000D02*
X140420000Y-132790000D01*
X140420000Y-132790000D02*
X140100000Y-132790000D01*
X141270000Y-131790000D02*
X141430000Y-131790000D01*
X142600000Y-132790000D02*
X142280000Y-132790000D01*
X142280000Y-132790000D02*
X142280000Y-136210000D01*
X142280000Y-136210000D02*
X142600000Y-136290000D01*
X142600000Y-136290000D02*
X142920000Y-136210000D01*
X142920000Y-136210000D02*
X142920000Y-132790000D01*
X142920000Y-132790000D02*
X142600000Y-132790000D01*
X132600000Y-129700000D02*
X132300000Y-129100000D01*
X132300000Y-129100000D02*
X132900000Y-129100000D01*
X132900000Y-129100000D02*
X132600000Y-129700000D01*
X132590000Y-116510000D02*
X132590000Y-125140000D01*
X132708095Y-116510000D02*
X132708095Y-125140000D01*
X132826190Y-116510000D02*
X132826190Y-125140000D01*
X132944285Y-116510000D02*
X132944285Y-125140000D01*
X133062380Y-116510000D02*
X133062380Y-125140000D01*
X133180475Y-116510000D02*
X133180475Y-125140000D01*
X133298570Y-116510000D02*
X133298570Y-125140000D01*
X133416665Y-116510000D02*
X133416665Y-125140000D01*
X133534760Y-116510000D02*
X133534760Y-125140000D01*
X133652855Y-116510000D02*
X133652855Y-125140000D01*
X133770950Y-116510000D02*
X133770950Y-125140000D01*
X133889045Y-116510000D02*
X133889045Y-125140000D01*
X134007140Y-116510000D02*
X134007140Y-125140000D01*
X134125235Y-116510000D02*
X134125235Y-125140000D01*
X134243330Y-116510000D02*
X134243330Y-125140000D01*
X134361425Y-116510000D02*
X134361425Y-125140000D01*
X134479520Y-116510000D02*
X134479520Y-125140000D01*
X134597615Y-116510000D02*
X134597615Y-125140000D01*
X134715710Y-116510000D02*
X134715710Y-125140000D01*
X134833805Y-116510000D02*
X134833805Y-125140000D01*
X134951900Y-116510000D02*
X134951900Y-125140000D01*
X133440000Y-125140000D02*
X133440000Y-125490000D01*
X134160000Y-125140000D02*
X134160000Y-125490000D01*
X135980000Y-125140000D02*
X135980000Y-125550000D01*
X136700000Y-125140000D02*
X136700000Y-125550000D01*
X138520000Y-125140000D02*
X138520000Y-125550000D01*
X139240000Y-125140000D02*
X139240000Y-125550000D01*
X141060000Y-125140000D02*
X141060000Y-125550000D01*
X141780000Y-125140000D02*
X141780000Y-125550000D01*
X135070000Y-116510000D02*
X135070000Y-125140000D01*
X137610000Y-116510000D02*
X137610000Y-125140000D01*
X140150000Y-116510000D02*
X140150000Y-125140000D01*
X132470000Y-116510000D02*
X132470000Y-125140000D01*
X132470000Y-125140000D02*
X142750000Y-125140000D01*
X142750000Y-116510000D02*
X142750000Y-125140000D01*
X132470000Y-116510000D02*
X142750000Y-116510000D01*
X132470000Y-127710000D02*
X133800000Y-127710000D01*
X132470000Y-126600000D02*
X132470000Y-127710000D01*
D10*
X129204761Y-130857142D02*
X129252380Y-131000000D01*
X129252380Y-131238095D01*
X129204761Y-131333333D01*
X129157142Y-131380952D01*
X129061904Y-131428571D01*
X128966666Y-131428571D01*
X128871428Y-131380952D01*
X128823809Y-131333333D01*
X128776190Y-131238095D01*
X128728571Y-131047619D01*
X128680952Y-130952380D01*
X128633333Y-130904761D01*
X128538095Y-130857142D01*
X128442857Y-130857142D01*
X128347619Y-130904761D01*
X128300000Y-130952380D01*
X128252380Y-131047619D01*
X128252380Y-131285714D01*
X128300000Y-131428571D01*
X128966666Y-131809523D02*
X128966666Y-132285714D01*
X129252380Y-131714285D02*
X128252380Y-132047619D01*
X129252380Y-132380952D01*
X129252380Y-132714285D02*
X128252380Y-132714285D01*
X128252380Y-133095238D01*
X128300000Y-133190476D01*
X128347619Y-133238095D01*
X128442857Y-133285714D01*
X128585714Y-133285714D01*
X128680952Y-133238095D01*
X128728571Y-133190476D01*
X128776190Y-133095238D01*
X128776190Y-132714285D01*
X128728571Y-134047619D02*
X128728571Y-133714285D01*
X129252380Y-133714285D02*
X128252380Y-133714285D01*
X128252380Y-134190476D01*
X129252380Y-135047619D02*
X129252380Y-134571428D01*
X128252380Y-134571428D01*
X128252380Y-135571428D02*
X128252380Y-135761904D01*
X128300000Y-135857142D01*
X128395238Y-135952380D01*
X128585714Y-136000000D01*
X128919047Y-136000000D01*
X129109523Y-135952380D01*
X129204761Y-135857142D01*
X129252380Y-135761904D01*
X129252380Y-135571428D01*
X129204761Y-135476190D01*
X129109523Y-135380952D01*
X128919047Y-135333333D01*
X128585714Y-135333333D01*
X128395238Y-135380952D01*
X128300000Y-135476190D01*
X128252380Y-135571428D01*
X128252380Y-136333333D02*
X129252380Y-136571428D01*
X128538095Y-136761904D01*
X129252380Y-136952380D01*
X128252380Y-137190476D01*
X131604761Y-116700000D02*
X131652380Y-116842857D01*
X131652380Y-117080952D01*
X131604761Y-117176190D01*
X131557142Y-117223809D01*
X131461904Y-117271428D01*
X131366666Y-117271428D01*
X131271428Y-117223809D01*
X131223809Y-117176190D01*
X131176190Y-117080952D01*
X131128571Y-116890476D01*
X131080952Y-116795238D01*
X131033333Y-116747619D01*
X130938095Y-116700000D01*
X130842857Y-116700000D01*
X130747619Y-116747619D01*
X130700000Y-116795238D01*
X130652380Y-116890476D01*
X130652380Y-117128571D01*
X130700000Y-117271428D01*
X130652380Y-117890476D02*
X130652380Y-118080952D01*
X130700000Y-118176190D01*
X130795238Y-118271428D01*
X130985714Y-118319047D01*
X131319047Y-118319047D01*
X131509523Y-118271428D01*
X131604761Y-118176190D01*
X131652380Y-118080952D01*
X131652380Y-117890476D01*
X131604761Y-117795238D01*
X131509523Y-117700000D01*
X131319047Y-117652380D01*
X130985714Y-117652380D01*
X130795238Y-117700000D01*
X130700000Y-117795238D01*
X130652380Y-117890476D01*
X131652380Y-118747619D02*
X130652380Y-118747619D01*
X131652380Y-119700000D02*
X131652380Y-119223809D01*
X130652380Y-119223809D01*
X131652380Y-120795238D02*
X130652380Y-120795238D01*
X131366666Y-121128571D01*
X130652380Y-121461904D01*
X131652380Y-121461904D01*
X130652380Y-122128571D02*
X130652380Y-122319047D01*
X130700000Y-122414285D01*
X130795238Y-122509523D01*
X130985714Y-122557142D01*
X131319047Y-122557142D01*
X131509523Y-122509523D01*
X131604761Y-122414285D01*
X131652380Y-122319047D01*
X131652380Y-122128571D01*
X131604761Y-122033333D01*
X131509523Y-121938095D01*
X131319047Y-121890476D01*
X130985714Y-121890476D01*
X130795238Y-121938095D01*
X130700000Y-122033333D01*
X130652380Y-122128571D01*
X131652380Y-122985714D02*
X130652380Y-122985714D01*
X131604761Y-123414285D02*
X131652380Y-123557142D01*
X131652380Y-123795238D01*
X131604761Y-123890476D01*
X131557142Y-123938095D01*
X131461904Y-123985714D01*
X131366666Y-123985714D01*
X131271428Y-123938095D01*
X131223809Y-123890476D01*
X131176190Y-123795238D01*
X131128571Y-123604761D01*
X131080952Y-123509523D01*
X131033333Y-123461904D01*
X130938095Y-123414285D01*
X130842857Y-123414285D01*
X130747619Y-123461904D01*
X130700000Y-123509523D01*
X130652380Y-123604761D01*
X130652380Y-123842857D01*
X130700000Y-123985714D01*
X130652380Y-124271428D02*
X130652380Y-124842857D01*
X131652380Y-124557142D02*
X130652380Y-124557142D01*
X130652380Y-125176190D02*
X131461904Y-125176190D01*
X131557142Y-125223809D01*
X131604761Y-125271428D01*
X131652380Y-125366666D01*
X131652380Y-125557142D01*
X131604761Y-125652380D01*
X131557142Y-125700000D01*
X131461904Y-125747619D01*
X130652380Y-125747619D01*
X131652380Y-126795238D02*
X131176190Y-126461904D01*
X131652380Y-126223809D02*
X130652380Y-126223809D01*
X130652380Y-126604761D01*
X130700000Y-126700000D01*
X130747619Y-126747619D01*
X130842857Y-126795238D01*
X130985714Y-126795238D01*
X131080952Y-126747619D01*
X131128571Y-126700000D01*
X131176190Y-126604761D01*
X131176190Y-126223809D01*
X131128571Y-127223809D02*
X131128571Y-127557142D01*
X131652380Y-127700000D02*
X131652380Y-127223809D01*
X130652380Y-127223809D01*
X130652380Y-127700000D01*
M02*
