G04 #@! TF.GenerationSoftware,KiCad,Pcbnew,(5.1.0-0)*
G04 #@! TF.CreationDate,2019-06-19T18:31:01-07:00*
G04 #@! TF.ProjectId,d32_sapflow_rtc,6433325f-7361-4706-966c-6f775f727463,rev?*
G04 #@! TF.SameCoordinates,Original*
G04 #@! TF.FileFunction,Legend,Bot*
G04 #@! TF.FilePolarity,Positive*
%FSLAX46Y46*%
G04 Gerber Fmt 4.6, Leading zero omitted, Abs format (unit mm)*
G04 Created by KiCad (PCBNEW (5.1.0-0)) date 2019-06-19 18:31:01*
%MOMM*%
%LPD*%
G04 APERTURE LIST*
%ADD10C,0.125000*%
%ADD11C,0.120000*%
%ADD12C,0.150000*%
G04 APERTURE END LIST*
D10*
X172207142Y-135802380D02*
X172135714Y-135826190D01*
X172016666Y-135826190D01*
X171969047Y-135802380D01*
X171945238Y-135778571D01*
X171921428Y-135730952D01*
X171921428Y-135683333D01*
X171945238Y-135635714D01*
X171969047Y-135611904D01*
X172016666Y-135588095D01*
X172111904Y-135564285D01*
X172159523Y-135540476D01*
X172183333Y-135516666D01*
X172207142Y-135469047D01*
X172207142Y-135421428D01*
X172183333Y-135373809D01*
X172159523Y-135350000D01*
X172111904Y-135326190D01*
X171992857Y-135326190D01*
X171921428Y-135350000D01*
X171707142Y-135826190D02*
X171707142Y-135326190D01*
X171588095Y-135326190D01*
X171516666Y-135350000D01*
X171469047Y-135397619D01*
X171445238Y-135445238D01*
X171421428Y-135540476D01*
X171421428Y-135611904D01*
X171445238Y-135707142D01*
X171469047Y-135754761D01*
X171516666Y-135802380D01*
X171588095Y-135826190D01*
X171707142Y-135826190D01*
X171230952Y-135683333D02*
X170992857Y-135683333D01*
X171278571Y-135826190D02*
X171111904Y-135326190D01*
X170945238Y-135826190D01*
X169795238Y-135802380D02*
X169723809Y-135826190D01*
X169604761Y-135826190D01*
X169557142Y-135802380D01*
X169533333Y-135778571D01*
X169509523Y-135730952D01*
X169509523Y-135683333D01*
X169533333Y-135635714D01*
X169557142Y-135611904D01*
X169604761Y-135588095D01*
X169700000Y-135564285D01*
X169747619Y-135540476D01*
X169771428Y-135516666D01*
X169795238Y-135469047D01*
X169795238Y-135421428D01*
X169771428Y-135373809D01*
X169747619Y-135350000D01*
X169700000Y-135326190D01*
X169580952Y-135326190D01*
X169509523Y-135350000D01*
X169009523Y-135778571D02*
X169033333Y-135802380D01*
X169104761Y-135826190D01*
X169152380Y-135826190D01*
X169223809Y-135802380D01*
X169271428Y-135754761D01*
X169295238Y-135707142D01*
X169319047Y-135611904D01*
X169319047Y-135540476D01*
X169295238Y-135445238D01*
X169271428Y-135397619D01*
X169223809Y-135350000D01*
X169152380Y-135326190D01*
X169104761Y-135326190D01*
X169033333Y-135350000D01*
X169009523Y-135373809D01*
X168557142Y-135826190D02*
X168795238Y-135826190D01*
X168795238Y-135326190D01*
X166980952Y-135350000D02*
X167028571Y-135326190D01*
X167100000Y-135326190D01*
X167171428Y-135350000D01*
X167219047Y-135397619D01*
X167242857Y-135445238D01*
X167266666Y-135540476D01*
X167266666Y-135611904D01*
X167242857Y-135707142D01*
X167219047Y-135754761D01*
X167171428Y-135802380D01*
X167100000Y-135826190D01*
X167052380Y-135826190D01*
X166980952Y-135802380D01*
X166957142Y-135778571D01*
X166957142Y-135611904D01*
X167052380Y-135611904D01*
X166742857Y-135826190D02*
X166742857Y-135326190D01*
X166457142Y-135826190D01*
X166457142Y-135326190D01*
X166219047Y-135826190D02*
X166219047Y-135326190D01*
X166100000Y-135326190D01*
X166028571Y-135350000D01*
X165980952Y-135397619D01*
X165957142Y-135445238D01*
X165933333Y-135540476D01*
X165933333Y-135611904D01*
X165957142Y-135707142D01*
X165980952Y-135754761D01*
X166028571Y-135802380D01*
X166100000Y-135826190D01*
X166219047Y-135826190D01*
X164819047Y-135326190D02*
X164509523Y-135326190D01*
X164676190Y-135516666D01*
X164604761Y-135516666D01*
X164557142Y-135540476D01*
X164533333Y-135564285D01*
X164509523Y-135611904D01*
X164509523Y-135730952D01*
X164533333Y-135778571D01*
X164557142Y-135802380D01*
X164604761Y-135826190D01*
X164747619Y-135826190D01*
X164795238Y-135802380D01*
X164819047Y-135778571D01*
X164366666Y-135326190D02*
X164200000Y-135826190D01*
X164033333Y-135326190D01*
X163914285Y-135326190D02*
X163604761Y-135326190D01*
X163771428Y-135516666D01*
X163700000Y-135516666D01*
X163652380Y-135540476D01*
X163628571Y-135564285D01*
X163604761Y-135611904D01*
X163604761Y-135730952D01*
X163628571Y-135778571D01*
X163652380Y-135802380D01*
X163700000Y-135826190D01*
X163842857Y-135826190D01*
X163890476Y-135802380D01*
X163914285Y-135778571D01*
X162373809Y-135826190D02*
X162373809Y-135326190D01*
X162373809Y-135564285D02*
X162088095Y-135564285D01*
X162088095Y-135826190D02*
X162088095Y-135326190D01*
X161850000Y-135564285D02*
X161683333Y-135564285D01*
X161611904Y-135826190D02*
X161850000Y-135826190D01*
X161850000Y-135326190D01*
X161611904Y-135326190D01*
X161421428Y-135683333D02*
X161183333Y-135683333D01*
X161469047Y-135826190D02*
X161302380Y-135326190D01*
X161135714Y-135826190D01*
X161040476Y-135326190D02*
X160754761Y-135326190D01*
X160897619Y-135826190D02*
X160897619Y-135326190D01*
D11*
X171810000Y-95890000D02*
X171810000Y-87260000D01*
X171691905Y-95890000D02*
X171691905Y-87260000D01*
X171573810Y-95890000D02*
X171573810Y-87260000D01*
X171455715Y-95890000D02*
X171455715Y-87260000D01*
X171337620Y-95890000D02*
X171337620Y-87260000D01*
X171219525Y-95890000D02*
X171219525Y-87260000D01*
X171101430Y-95890000D02*
X171101430Y-87260000D01*
X170983335Y-95890000D02*
X170983335Y-87260000D01*
X170865240Y-95890000D02*
X170865240Y-87260000D01*
X170747145Y-95890000D02*
X170747145Y-87260000D01*
X170629050Y-95890000D02*
X170629050Y-87260000D01*
X170510955Y-95890000D02*
X170510955Y-87260000D01*
X170392860Y-95890000D02*
X170392860Y-87260000D01*
X170274765Y-95890000D02*
X170274765Y-87260000D01*
X170156670Y-95890000D02*
X170156670Y-87260000D01*
X170038575Y-95890000D02*
X170038575Y-87260000D01*
X169920480Y-95890000D02*
X169920480Y-87260000D01*
X169802385Y-95890000D02*
X169802385Y-87260000D01*
X169684290Y-95890000D02*
X169684290Y-87260000D01*
X169566195Y-95890000D02*
X169566195Y-87260000D01*
X169448100Y-95890000D02*
X169448100Y-87260000D01*
X170960000Y-87260000D02*
X170960000Y-86910000D01*
X170240000Y-87260000D02*
X170240000Y-86910000D01*
X168420000Y-87260000D02*
X168420000Y-86850000D01*
X167700000Y-87260000D02*
X167700000Y-86850000D01*
X165880000Y-87260000D02*
X165880000Y-86850000D01*
X165160000Y-87260000D02*
X165160000Y-86850000D01*
X163340000Y-87260000D02*
X163340000Y-86850000D01*
X162620000Y-87260000D02*
X162620000Y-86850000D01*
X169330000Y-95890000D02*
X169330000Y-87260000D01*
X166790000Y-95890000D02*
X166790000Y-87260000D01*
X164250000Y-95890000D02*
X164250000Y-87260000D01*
X171930000Y-95890000D02*
X171930000Y-87260000D01*
X171930000Y-87260000D02*
X161650000Y-87260000D01*
X161650000Y-95890000D02*
X161650000Y-87260000D01*
X171930000Y-95890000D02*
X161650000Y-95890000D01*
X171930000Y-84690000D02*
X170600000Y-84690000D01*
X171930000Y-85800000D02*
X171930000Y-84690000D01*
X160210000Y-138790000D02*
X160210000Y-136590000D01*
X160210000Y-136590000D02*
X158990000Y-136590000D01*
X158990000Y-136590000D02*
X158990000Y-145010000D01*
X158990000Y-145010000D02*
X174210000Y-145010000D01*
X174210000Y-145010000D02*
X174210000Y-136590000D01*
X174210000Y-136590000D02*
X172990000Y-136590000D01*
X172990000Y-136590000D02*
X172990000Y-138790000D01*
X158990000Y-143790000D02*
X160210000Y-143790000D01*
X160210000Y-143790000D02*
X160210000Y-138790000D01*
X160210000Y-138790000D02*
X158990000Y-138790000D01*
X174210000Y-143790000D02*
X172990000Y-143790000D01*
X172990000Y-143790000D02*
X172990000Y-138790000D01*
X172990000Y-138790000D02*
X174210000Y-138790000D01*
X160210000Y-139790000D02*
X172990000Y-139790000D01*
X161600000Y-139790000D02*
X161280000Y-139790000D01*
X161280000Y-139790000D02*
X161280000Y-143210000D01*
X161280000Y-143210000D02*
X161600000Y-143290000D01*
X161600000Y-143290000D02*
X161920000Y-143210000D01*
X161920000Y-143210000D02*
X161920000Y-139790000D01*
X161920000Y-139790000D02*
X161600000Y-139790000D01*
X162770000Y-138790000D02*
X162930000Y-138790000D01*
X164100000Y-139790000D02*
X163780000Y-139790000D01*
X163780000Y-139790000D02*
X163780000Y-143210000D01*
X163780000Y-143210000D02*
X164100000Y-143290000D01*
X164100000Y-143290000D02*
X164420000Y-143210000D01*
X164420000Y-143210000D02*
X164420000Y-139790000D01*
X164420000Y-139790000D02*
X164100000Y-139790000D01*
X165270000Y-138790000D02*
X165430000Y-138790000D01*
X166600000Y-139790000D02*
X166280000Y-139790000D01*
X166280000Y-139790000D02*
X166280000Y-143210000D01*
X166280000Y-143210000D02*
X166600000Y-143290000D01*
X166600000Y-143290000D02*
X166920000Y-143210000D01*
X166920000Y-143210000D02*
X166920000Y-139790000D01*
X166920000Y-139790000D02*
X166600000Y-139790000D01*
X167770000Y-138790000D02*
X167930000Y-138790000D01*
X169100000Y-139790000D02*
X168780000Y-139790000D01*
X168780000Y-139790000D02*
X168780000Y-143210000D01*
X168780000Y-143210000D02*
X169100000Y-143290000D01*
X169100000Y-143290000D02*
X169420000Y-143210000D01*
X169420000Y-143210000D02*
X169420000Y-139790000D01*
X169420000Y-139790000D02*
X169100000Y-139790000D01*
X170270000Y-138790000D02*
X170430000Y-138790000D01*
X171600000Y-139790000D02*
X171280000Y-139790000D01*
X171280000Y-139790000D02*
X171280000Y-143210000D01*
X171280000Y-143210000D02*
X171600000Y-143290000D01*
X171600000Y-143290000D02*
X171920000Y-143210000D01*
X171920000Y-143210000D02*
X171920000Y-139790000D01*
X171920000Y-139790000D02*
X171600000Y-139790000D01*
X161600000Y-136700000D02*
X161300000Y-136100000D01*
X161300000Y-136100000D02*
X161900000Y-136100000D01*
X161900000Y-136100000D02*
X161600000Y-136700000D01*
D12*
X172300000Y-83404761D02*
X172157142Y-83452380D01*
X171919047Y-83452380D01*
X171823809Y-83404761D01*
X171776190Y-83357142D01*
X171728571Y-83261904D01*
X171728571Y-83166666D01*
X171776190Y-83071428D01*
X171823809Y-83023809D01*
X171919047Y-82976190D01*
X172109523Y-82928571D01*
X172204761Y-82880952D01*
X172252380Y-82833333D01*
X172300000Y-82738095D01*
X172300000Y-82642857D01*
X172252380Y-82547619D01*
X172204761Y-82500000D01*
X172109523Y-82452380D01*
X171871428Y-82452380D01*
X171728571Y-82500000D01*
X171109523Y-82452380D02*
X170919047Y-82452380D01*
X170823809Y-82500000D01*
X170728571Y-82595238D01*
X170680952Y-82785714D01*
X170680952Y-83119047D01*
X170728571Y-83309523D01*
X170823809Y-83404761D01*
X170919047Y-83452380D01*
X171109523Y-83452380D01*
X171204761Y-83404761D01*
X171300000Y-83309523D01*
X171347619Y-83119047D01*
X171347619Y-82785714D01*
X171300000Y-82595238D01*
X171204761Y-82500000D01*
X171109523Y-82452380D01*
X170252380Y-83452380D02*
X170252380Y-82452380D01*
X169300000Y-83452380D02*
X169776190Y-83452380D01*
X169776190Y-82452380D01*
X168204761Y-83452380D02*
X168204761Y-82452380D01*
X167871428Y-83166666D01*
X167538095Y-82452380D01*
X167538095Y-83452380D01*
X166871428Y-82452380D02*
X166680952Y-82452380D01*
X166585714Y-82500000D01*
X166490476Y-82595238D01*
X166442857Y-82785714D01*
X166442857Y-83119047D01*
X166490476Y-83309523D01*
X166585714Y-83404761D01*
X166680952Y-83452380D01*
X166871428Y-83452380D01*
X166966666Y-83404761D01*
X167061904Y-83309523D01*
X167109523Y-83119047D01*
X167109523Y-82785714D01*
X167061904Y-82595238D01*
X166966666Y-82500000D01*
X166871428Y-82452380D01*
X166014285Y-83452380D02*
X166014285Y-82452380D01*
X165585714Y-83404761D02*
X165442857Y-83452380D01*
X165204761Y-83452380D01*
X165109523Y-83404761D01*
X165061904Y-83357142D01*
X165014285Y-83261904D01*
X165014285Y-83166666D01*
X165061904Y-83071428D01*
X165109523Y-83023809D01*
X165204761Y-82976190D01*
X165395238Y-82928571D01*
X165490476Y-82880952D01*
X165538095Y-82833333D01*
X165585714Y-82738095D01*
X165585714Y-82642857D01*
X165538095Y-82547619D01*
X165490476Y-82500000D01*
X165395238Y-82452380D01*
X165157142Y-82452380D01*
X165014285Y-82500000D01*
X164728571Y-82452380D02*
X164157142Y-82452380D01*
X164442857Y-83452380D02*
X164442857Y-82452380D01*
X163823809Y-82452380D02*
X163823809Y-83261904D01*
X163776190Y-83357142D01*
X163728571Y-83404761D01*
X163633333Y-83452380D01*
X163442857Y-83452380D01*
X163347619Y-83404761D01*
X163300000Y-83357142D01*
X163252380Y-83261904D01*
X163252380Y-82452380D01*
X162204761Y-83452380D02*
X162538095Y-82976190D01*
X162776190Y-83452380D02*
X162776190Y-82452380D01*
X162395238Y-82452380D01*
X162300000Y-82500000D01*
X162252380Y-82547619D01*
X162204761Y-82642857D01*
X162204761Y-82785714D01*
X162252380Y-82880952D01*
X162300000Y-82928571D01*
X162395238Y-82976190D01*
X162776190Y-82976190D01*
X161776190Y-82928571D02*
X161442857Y-82928571D01*
X161300000Y-83452380D02*
X161776190Y-83452380D01*
X161776190Y-82452380D01*
X161300000Y-82452380D01*
X172728571Y-134404761D02*
X172585714Y-134452380D01*
X172347619Y-134452380D01*
X172252380Y-134404761D01*
X172204761Y-134357142D01*
X172157142Y-134261904D01*
X172157142Y-134166666D01*
X172204761Y-134071428D01*
X172252380Y-134023809D01*
X172347619Y-133976190D01*
X172538095Y-133928571D01*
X172633333Y-133880952D01*
X172680952Y-133833333D01*
X172728571Y-133738095D01*
X172728571Y-133642857D01*
X172680952Y-133547619D01*
X172633333Y-133500000D01*
X172538095Y-133452380D01*
X172300000Y-133452380D01*
X172157142Y-133500000D01*
X171776190Y-134166666D02*
X171300000Y-134166666D01*
X171871428Y-134452380D02*
X171538095Y-133452380D01*
X171204761Y-134452380D01*
X170871428Y-134452380D02*
X170871428Y-133452380D01*
X170490476Y-133452380D01*
X170395238Y-133500000D01*
X170347619Y-133547619D01*
X170300000Y-133642857D01*
X170300000Y-133785714D01*
X170347619Y-133880952D01*
X170395238Y-133928571D01*
X170490476Y-133976190D01*
X170871428Y-133976190D01*
X169538095Y-133928571D02*
X169871428Y-133928571D01*
X169871428Y-134452380D02*
X169871428Y-133452380D01*
X169395238Y-133452380D01*
X168538095Y-134452380D02*
X169014285Y-134452380D01*
X169014285Y-133452380D01*
X168014285Y-133452380D02*
X167823809Y-133452380D01*
X167728571Y-133500000D01*
X167633333Y-133595238D01*
X167585714Y-133785714D01*
X167585714Y-134119047D01*
X167633333Y-134309523D01*
X167728571Y-134404761D01*
X167823809Y-134452380D01*
X168014285Y-134452380D01*
X168109523Y-134404761D01*
X168204761Y-134309523D01*
X168252380Y-134119047D01*
X168252380Y-133785714D01*
X168204761Y-133595238D01*
X168109523Y-133500000D01*
X168014285Y-133452380D01*
X167252380Y-133452380D02*
X167014285Y-134452380D01*
X166823809Y-133738095D01*
X166633333Y-134452380D01*
X166395238Y-133452380D01*
X164728571Y-133500000D02*
X164823809Y-133452380D01*
X164966666Y-133452380D01*
X165109523Y-133500000D01*
X165204761Y-133595238D01*
X165252380Y-133690476D01*
X165300000Y-133880952D01*
X165300000Y-134023809D01*
X165252380Y-134214285D01*
X165204761Y-134309523D01*
X165109523Y-134404761D01*
X164966666Y-134452380D01*
X164871428Y-134452380D01*
X164728571Y-134404761D01*
X164680952Y-134357142D01*
X164680952Y-134023809D01*
X164871428Y-134023809D01*
X164300000Y-134166666D02*
X163823809Y-134166666D01*
X164395238Y-134452380D02*
X164061904Y-133452380D01*
X163728571Y-134452380D01*
X163395238Y-133452380D02*
X163395238Y-134261904D01*
X163347619Y-134357142D01*
X163300000Y-134404761D01*
X163204761Y-134452380D01*
X163014285Y-134452380D01*
X162919047Y-134404761D01*
X162871428Y-134357142D01*
X162823809Y-134261904D01*
X162823809Y-133452380D01*
X161823809Y-133500000D02*
X161919047Y-133452380D01*
X162061904Y-133452380D01*
X162204761Y-133500000D01*
X162300000Y-133595238D01*
X162347619Y-133690476D01*
X162395238Y-133880952D01*
X162395238Y-134023809D01*
X162347619Y-134214285D01*
X162300000Y-134309523D01*
X162204761Y-134404761D01*
X162061904Y-134452380D01*
X161966666Y-134452380D01*
X161823809Y-134404761D01*
X161776190Y-134357142D01*
X161776190Y-134023809D01*
X161966666Y-134023809D01*
X161347619Y-133928571D02*
X161014285Y-133928571D01*
X160871428Y-134452380D02*
X161347619Y-134452380D01*
X161347619Y-133452380D01*
X160871428Y-133452380D01*
M02*
