M48
; DRILL file {KiCad (5.1.0-0)} date Wednesday, June 19, 2019 at 06:31:04 PM
; FORMAT={-:-/ absolute / inch / decimal}
; #@! TF.CreationDate,2019-06-19T18:31:04-07:00
; #@! TF.GenerationSoftware,Kicad,Pcbnew,(5.1.0-0)
; #@! TF.FileFunction,Plated,1,2,PTH
FMAT,2
INCH
T1C0.0157
T2C0.0300
T3C0.0374
T4C0.0394
%
G90
G05
T1
X6.2047Y-3.8268
X6.2047Y-3.9606
X6.2756Y-4.0236
X6.8504Y-3.6929
X6.8976Y-3.2835
X6.8976Y-3.4252
T2
X6.1081Y-3.4919
X6.1081Y-3.5919
X6.1081Y-3.6919
X6.1081Y-3.7919
X6.1081Y-3.8919
X6.1081Y-3.9919
X6.1081Y-4.0919
X6.1081Y-4.1919
X6.1081Y-4.2919
X6.1081Y-4.3919
X6.1081Y-4.4919
X6.1081Y-4.5919
X6.1081Y-4.6919
X6.1081Y-4.7919
X6.1081Y-4.8919
X6.1081Y-4.9919
X7.0081Y-3.4919
X7.0081Y-3.5919
X7.0081Y-3.6919
X7.0081Y-3.7919
X7.0081Y-3.8919
X7.0081Y-3.9919
X7.0081Y-4.0919
X7.0081Y-4.1919
X7.0081Y-4.2919
X7.0081Y-4.3919
X7.0081Y-4.4919
X7.0081Y-4.5919
X7.0081Y-4.6919
X7.0081Y-4.7919
X7.0081Y-4.8919
X7.0081Y-4.9919
X6.2181Y-2.8764
X6.3181Y-2.8764
X6.4181Y-2.8764
X6.5181Y-2.8764
X6.6181Y-2.8764
X6.7181Y-2.8764
X6.8181Y-2.8764
X6.9181Y-2.8764
T3
X6.3622Y-5.4409
X6.4606Y-5.4409
X6.5591Y-5.4409
X6.6575Y-5.4409
X6.7559Y-5.4409
T4
X6.4165Y-3.378
X6.5165Y-3.378
X6.6165Y-3.378
X6.7165Y-3.378
T0
M30
