G04 #@! TF.GenerationSoftware,KiCad,Pcbnew,(5.1.0-0)*
G04 #@! TF.CreationDate,2019-06-19T18:31:01-07:00*
G04 #@! TF.ProjectId,d32_sapflow_rtc,6433325f-7361-4706-966c-6f775f727463,rev?*
G04 #@! TF.SameCoordinates,Original*
G04 #@! TF.FileFunction,Legend,Top*
G04 #@! TF.FilePolarity,Positive*
%FSLAX46Y46*%
G04 Gerber Fmt 4.6, Leading zero omitted, Abs format (unit mm)*
G04 Created by KiCad (PCBNEW (5.1.0-0)) date 2019-06-19 18:31:01*
%MOMM*%
%LPD*%
G04 APERTURE LIST*
%ADD10C,0.125000*%
%ADD11C,0.150000*%
G04 APERTURE END LIST*
D10*
X161552380Y-101002380D02*
X161623809Y-101026190D01*
X161742857Y-101026190D01*
X161790476Y-101002380D01*
X161814285Y-100978571D01*
X161838095Y-100930952D01*
X161838095Y-100883333D01*
X161814285Y-100835714D01*
X161790476Y-100811904D01*
X161742857Y-100788095D01*
X161647619Y-100764285D01*
X161600000Y-100740476D01*
X161576190Y-100716666D01*
X161552380Y-100669047D01*
X161552380Y-100621428D01*
X161576190Y-100573809D01*
X161600000Y-100550000D01*
X161647619Y-100526190D01*
X161766666Y-100526190D01*
X161838095Y-100550000D01*
X162266666Y-101026190D02*
X162266666Y-100764285D01*
X162242857Y-100716666D01*
X162195238Y-100692857D01*
X162100000Y-100692857D01*
X162052380Y-100716666D01*
X162266666Y-101002380D02*
X162219047Y-101026190D01*
X162100000Y-101026190D01*
X162052380Y-101002380D01*
X162028571Y-100954761D01*
X162028571Y-100907142D01*
X162052380Y-100859523D01*
X162100000Y-100835714D01*
X162219047Y-100835714D01*
X162266666Y-100811904D01*
X162504761Y-100692857D02*
X162504761Y-101192857D01*
X162504761Y-100716666D02*
X162552380Y-100692857D01*
X162647619Y-100692857D01*
X162695238Y-100716666D01*
X162719047Y-100740476D01*
X162742857Y-100788095D01*
X162742857Y-100930952D01*
X162719047Y-100978571D01*
X162695238Y-101002380D01*
X162647619Y-101026190D01*
X162552380Y-101026190D01*
X162504761Y-101002380D01*
X162885714Y-100692857D02*
X163076190Y-100692857D01*
X162957142Y-101026190D02*
X162957142Y-100597619D01*
X162980952Y-100550000D01*
X163028571Y-100526190D01*
X163076190Y-100526190D01*
X163314285Y-101026190D02*
X163266666Y-101002380D01*
X163242857Y-100954761D01*
X163242857Y-100526190D01*
X163576190Y-101026190D02*
X163528571Y-101002380D01*
X163504761Y-100978571D01*
X163480952Y-100930952D01*
X163480952Y-100788095D01*
X163504761Y-100740476D01*
X163528571Y-100716666D01*
X163576190Y-100692857D01*
X163647619Y-100692857D01*
X163695238Y-100716666D01*
X163719047Y-100740476D01*
X163742857Y-100788095D01*
X163742857Y-100930952D01*
X163719047Y-100978571D01*
X163695238Y-101002380D01*
X163647619Y-101026190D01*
X163576190Y-101026190D01*
X163909523Y-100692857D02*
X164004761Y-101026190D01*
X164100000Y-100788095D01*
X164195238Y-101026190D01*
X164290476Y-100692857D01*
X164838095Y-100502380D02*
X164409523Y-101145238D01*
X164980952Y-101002380D02*
X165052380Y-101026190D01*
X165171428Y-101026190D01*
X165219047Y-101002380D01*
X165242857Y-100978571D01*
X165266666Y-100930952D01*
X165266666Y-100883333D01*
X165242857Y-100835714D01*
X165219047Y-100811904D01*
X165171428Y-100788095D01*
X165076190Y-100764285D01*
X165028571Y-100740476D01*
X165004761Y-100716666D01*
X164980952Y-100669047D01*
X164980952Y-100621428D01*
X165004761Y-100573809D01*
X165028571Y-100550000D01*
X165076190Y-100526190D01*
X165195238Y-100526190D01*
X165266666Y-100550000D01*
X165552380Y-101026190D02*
X165504761Y-101002380D01*
X165480952Y-100978571D01*
X165457142Y-100930952D01*
X165457142Y-100788095D01*
X165480952Y-100740476D01*
X165504761Y-100716666D01*
X165552380Y-100692857D01*
X165623809Y-100692857D01*
X165671428Y-100716666D01*
X165695238Y-100740476D01*
X165719047Y-100788095D01*
X165719047Y-100930952D01*
X165695238Y-100978571D01*
X165671428Y-101002380D01*
X165623809Y-101026190D01*
X165552380Y-101026190D01*
X165933333Y-101026190D02*
X165933333Y-100692857D01*
X165933333Y-100526190D02*
X165909523Y-100550000D01*
X165933333Y-100573809D01*
X165957142Y-100550000D01*
X165933333Y-100526190D01*
X165933333Y-100573809D01*
X166242857Y-101026190D02*
X166195238Y-101002380D01*
X166171428Y-100954761D01*
X166171428Y-100526190D01*
X166814285Y-101026190D02*
X166814285Y-100526190D01*
X166980952Y-100883333D01*
X167147619Y-100526190D01*
X167147619Y-101026190D01*
X167457142Y-101026190D02*
X167409523Y-101002380D01*
X167385714Y-100978571D01*
X167361904Y-100930952D01*
X167361904Y-100788095D01*
X167385714Y-100740476D01*
X167409523Y-100716666D01*
X167457142Y-100692857D01*
X167528571Y-100692857D01*
X167576190Y-100716666D01*
X167600000Y-100740476D01*
X167623809Y-100788095D01*
X167623809Y-100930952D01*
X167600000Y-100978571D01*
X167576190Y-101002380D01*
X167528571Y-101026190D01*
X167457142Y-101026190D01*
X167838095Y-101026190D02*
X167838095Y-100692857D01*
X167838095Y-100526190D02*
X167814285Y-100550000D01*
X167838095Y-100573809D01*
X167861904Y-100550000D01*
X167838095Y-100526190D01*
X167838095Y-100573809D01*
X168052380Y-101002380D02*
X168100000Y-101026190D01*
X168195238Y-101026190D01*
X168242857Y-101002380D01*
X168266666Y-100954761D01*
X168266666Y-100930952D01*
X168242857Y-100883333D01*
X168195238Y-100859523D01*
X168123809Y-100859523D01*
X168076190Y-100835714D01*
X168052380Y-100788095D01*
X168052380Y-100764285D01*
X168076190Y-100716666D01*
X168123809Y-100692857D01*
X168195238Y-100692857D01*
X168242857Y-100716666D01*
X168409523Y-100692857D02*
X168600000Y-100692857D01*
X168480952Y-100526190D02*
X168480952Y-100954761D01*
X168504761Y-101002380D01*
X168552380Y-101026190D01*
X168600000Y-101026190D01*
X168980952Y-100692857D02*
X168980952Y-101026190D01*
X168766666Y-100692857D02*
X168766666Y-100954761D01*
X168790476Y-101002380D01*
X168838095Y-101026190D01*
X168909523Y-101026190D01*
X168957142Y-101002380D01*
X168980952Y-100978571D01*
X169219047Y-101026190D02*
X169219047Y-100692857D01*
X169219047Y-100788095D02*
X169242857Y-100740476D01*
X169266666Y-100716666D01*
X169314285Y-100692857D01*
X169361904Y-100692857D01*
X169719047Y-101002380D02*
X169671428Y-101026190D01*
X169576190Y-101026190D01*
X169528571Y-101002380D01*
X169504761Y-100954761D01*
X169504761Y-100764285D01*
X169528571Y-100716666D01*
X169576190Y-100692857D01*
X169671428Y-100692857D01*
X169719047Y-100716666D01*
X169742857Y-100764285D01*
X169742857Y-100811904D01*
X169504761Y-100859523D01*
X170314285Y-100502380D02*
X169885714Y-101145238D01*
X170766666Y-101026190D02*
X170600000Y-100788095D01*
X170480952Y-101026190D02*
X170480952Y-100526190D01*
X170671428Y-100526190D01*
X170719047Y-100550000D01*
X170742857Y-100573809D01*
X170766666Y-100621428D01*
X170766666Y-100692857D01*
X170742857Y-100740476D01*
X170719047Y-100764285D01*
X170671428Y-100788095D01*
X170480952Y-100788095D01*
X170909523Y-100526190D02*
X171195238Y-100526190D01*
X171052380Y-101026190D02*
X171052380Y-100526190D01*
X171647619Y-100978571D02*
X171623809Y-101002380D01*
X171552380Y-101026190D01*
X171504761Y-101026190D01*
X171433333Y-101002380D01*
X171385714Y-100954761D01*
X171361904Y-100907142D01*
X171338095Y-100811904D01*
X171338095Y-100740476D01*
X171361904Y-100645238D01*
X171385714Y-100597619D01*
X171433333Y-100550000D01*
X171504761Y-100526190D01*
X171552380Y-100526190D01*
X171623809Y-100550000D01*
X171647619Y-100573809D01*
D11*
X161314285Y-99852380D02*
X161314285Y-98852380D01*
X161552380Y-98852380D01*
X161695238Y-98900000D01*
X161790476Y-98995238D01*
X161838095Y-99090476D01*
X161885714Y-99280952D01*
X161885714Y-99423809D01*
X161838095Y-99614285D01*
X161790476Y-99709523D01*
X161695238Y-99804761D01*
X161552380Y-99852380D01*
X161314285Y-99852380D01*
X162504761Y-98852380D02*
X162695238Y-98852380D01*
X162790476Y-98900000D01*
X162885714Y-98995238D01*
X162933333Y-99185714D01*
X162933333Y-99519047D01*
X162885714Y-99709523D01*
X162790476Y-99804761D01*
X162695238Y-99852380D01*
X162504761Y-99852380D01*
X162409523Y-99804761D01*
X162314285Y-99709523D01*
X162266666Y-99519047D01*
X162266666Y-99185714D01*
X162314285Y-98995238D01*
X162409523Y-98900000D01*
X162504761Y-98852380D01*
X163219047Y-98852380D02*
X163790476Y-98852380D01*
X163504761Y-99852380D02*
X163504761Y-98852380D01*
X164123809Y-99852380D02*
X164123809Y-98852380D01*
X164457142Y-99566666D01*
X164790476Y-98852380D01*
X164790476Y-99852380D01*
X165457142Y-98852380D02*
X165647619Y-98852380D01*
X165742857Y-98900000D01*
X165838095Y-98995238D01*
X165885714Y-99185714D01*
X165885714Y-99519047D01*
X165838095Y-99709523D01*
X165742857Y-99804761D01*
X165647619Y-99852380D01*
X165457142Y-99852380D01*
X165361904Y-99804761D01*
X165266666Y-99709523D01*
X165219047Y-99519047D01*
X165219047Y-99185714D01*
X165266666Y-98995238D01*
X165361904Y-98900000D01*
X165457142Y-98852380D01*
X166171428Y-98852380D02*
X166742857Y-98852380D01*
X166457142Y-99852380D02*
X166457142Y-98852380D01*
X167076190Y-99328571D02*
X167409523Y-99328571D01*
X167552380Y-99852380D02*
X167076190Y-99852380D01*
X167076190Y-98852380D01*
X167552380Y-98852380D01*
X169219047Y-99852380D02*
X168742857Y-99852380D01*
X168742857Y-98852380D01*
X169504761Y-99566666D02*
X169980952Y-99566666D01*
X169409523Y-99852380D02*
X169742857Y-98852380D01*
X170076190Y-99852380D01*
X170742857Y-99328571D02*
X170885714Y-99376190D01*
X170933333Y-99423809D01*
X170980952Y-99519047D01*
X170980952Y-99661904D01*
X170933333Y-99757142D01*
X170885714Y-99804761D01*
X170790476Y-99852380D01*
X170409523Y-99852380D01*
X170409523Y-98852380D01*
X170742857Y-98852380D01*
X170838095Y-98900000D01*
X170885714Y-98947619D01*
X170933333Y-99042857D01*
X170933333Y-99138095D01*
X170885714Y-99233333D01*
X170838095Y-99280952D01*
X170742857Y-99328571D01*
X170409523Y-99328571D01*
X171361904Y-99804761D02*
X171504761Y-99852380D01*
X171742857Y-99852380D01*
X171838095Y-99804761D01*
X171885714Y-99757142D01*
X171933333Y-99661904D01*
X171933333Y-99566666D01*
X171885714Y-99471428D01*
X171838095Y-99423809D01*
X171742857Y-99376190D01*
X171552380Y-99328571D01*
X171457142Y-99280952D01*
X171409523Y-99233333D01*
X171361904Y-99138095D01*
X171361904Y-99042857D01*
X171409523Y-98947619D01*
X171457142Y-98900000D01*
X171552380Y-98852380D01*
X171790476Y-98852380D01*
X171933333Y-98900000D01*
D10*
X164992857Y-75202380D02*
X165064285Y-75226190D01*
X165183333Y-75226190D01*
X165230952Y-75202380D01*
X165254761Y-75178571D01*
X165278571Y-75130952D01*
X165278571Y-75083333D01*
X165254761Y-75035714D01*
X165230952Y-75011904D01*
X165183333Y-74988095D01*
X165088095Y-74964285D01*
X165040476Y-74940476D01*
X165016666Y-74916666D01*
X164992857Y-74869047D01*
X164992857Y-74821428D01*
X165016666Y-74773809D01*
X165040476Y-74750000D01*
X165088095Y-74726190D01*
X165207142Y-74726190D01*
X165278571Y-74750000D01*
X165492857Y-75226190D02*
X165492857Y-74726190D01*
X165611904Y-74726190D01*
X165683333Y-74750000D01*
X165730952Y-74797619D01*
X165754761Y-74845238D01*
X165778571Y-74940476D01*
X165778571Y-75011904D01*
X165754761Y-75107142D01*
X165730952Y-75154761D01*
X165683333Y-75202380D01*
X165611904Y-75226190D01*
X165492857Y-75226190D01*
X165969047Y-75083333D02*
X166207142Y-75083333D01*
X165921428Y-75226190D02*
X166088095Y-74726190D01*
X166254761Y-75226190D01*
X162404761Y-75202380D02*
X162476190Y-75226190D01*
X162595238Y-75226190D01*
X162642857Y-75202380D01*
X162666666Y-75178571D01*
X162690476Y-75130952D01*
X162690476Y-75083333D01*
X162666666Y-75035714D01*
X162642857Y-75011904D01*
X162595238Y-74988095D01*
X162500000Y-74964285D01*
X162452380Y-74940476D01*
X162428571Y-74916666D01*
X162404761Y-74869047D01*
X162404761Y-74821428D01*
X162428571Y-74773809D01*
X162452380Y-74750000D01*
X162500000Y-74726190D01*
X162619047Y-74726190D01*
X162690476Y-74750000D01*
X163190476Y-75178571D02*
X163166666Y-75202380D01*
X163095238Y-75226190D01*
X163047619Y-75226190D01*
X162976190Y-75202380D01*
X162928571Y-75154761D01*
X162904761Y-75107142D01*
X162880952Y-75011904D01*
X162880952Y-74940476D01*
X162904761Y-74845238D01*
X162928571Y-74797619D01*
X162976190Y-74750000D01*
X163047619Y-74726190D01*
X163095238Y-74726190D01*
X163166666Y-74750000D01*
X163190476Y-74773809D01*
X163642857Y-75226190D02*
X163404761Y-75226190D01*
X163404761Y-74726190D01*
X160019047Y-74750000D02*
X159971428Y-74726190D01*
X159900000Y-74726190D01*
X159828571Y-74750000D01*
X159780952Y-74797619D01*
X159757142Y-74845238D01*
X159733333Y-74940476D01*
X159733333Y-75011904D01*
X159757142Y-75107142D01*
X159780952Y-75154761D01*
X159828571Y-75202380D01*
X159900000Y-75226190D01*
X159947619Y-75226190D01*
X160019047Y-75202380D01*
X160042857Y-75178571D01*
X160042857Y-75011904D01*
X159947619Y-75011904D01*
X160257142Y-75226190D02*
X160257142Y-74726190D01*
X160542857Y-75226190D01*
X160542857Y-74726190D01*
X160780952Y-75226190D02*
X160780952Y-74726190D01*
X160900000Y-74726190D01*
X160971428Y-74750000D01*
X161019047Y-74797619D01*
X161042857Y-74845238D01*
X161066666Y-74940476D01*
X161066666Y-75011904D01*
X161042857Y-75107142D01*
X161019047Y-75154761D01*
X160971428Y-75202380D01*
X160900000Y-75226190D01*
X160780952Y-75226190D01*
X157380952Y-74726190D02*
X157690476Y-74726190D01*
X157523809Y-74916666D01*
X157595238Y-74916666D01*
X157642857Y-74940476D01*
X157666666Y-74964285D01*
X157690476Y-75011904D01*
X157690476Y-75130952D01*
X157666666Y-75178571D01*
X157642857Y-75202380D01*
X157595238Y-75226190D01*
X157452380Y-75226190D01*
X157404761Y-75202380D01*
X157380952Y-75178571D01*
X157833333Y-74726190D02*
X158000000Y-75226190D01*
X158166666Y-74726190D01*
X158285714Y-74726190D02*
X158595238Y-74726190D01*
X158428571Y-74916666D01*
X158500000Y-74916666D01*
X158547619Y-74940476D01*
X158571428Y-74964285D01*
X158595238Y-75011904D01*
X158595238Y-75130952D01*
X158571428Y-75178571D01*
X158547619Y-75202380D01*
X158500000Y-75226190D01*
X158357142Y-75226190D01*
X158309523Y-75202380D01*
X158285714Y-75178571D01*
D11*
X164157142Y-77452380D02*
X164157142Y-76452380D01*
X164395238Y-76452380D01*
X164538095Y-76500000D01*
X164633333Y-76595238D01*
X164680952Y-76690476D01*
X164728571Y-76880952D01*
X164728571Y-77023809D01*
X164680952Y-77214285D01*
X164633333Y-77309523D01*
X164538095Y-77404761D01*
X164395238Y-77452380D01*
X164157142Y-77452380D01*
X165109523Y-77404761D02*
X165252380Y-77452380D01*
X165490476Y-77452380D01*
X165585714Y-77404761D01*
X165633333Y-77357142D01*
X165680952Y-77261904D01*
X165680952Y-77166666D01*
X165633333Y-77071428D01*
X165585714Y-77023809D01*
X165490476Y-76976190D01*
X165300000Y-76928571D01*
X165204761Y-76880952D01*
X165157142Y-76833333D01*
X165109523Y-76738095D01*
X165109523Y-76642857D01*
X165157142Y-76547619D01*
X165204761Y-76500000D01*
X165300000Y-76452380D01*
X165538095Y-76452380D01*
X165680952Y-76500000D01*
X166014285Y-76452380D02*
X166633333Y-76452380D01*
X166300000Y-76833333D01*
X166442857Y-76833333D01*
X166538095Y-76880952D01*
X166585714Y-76928571D01*
X166633333Y-77023809D01*
X166633333Y-77261904D01*
X166585714Y-77357142D01*
X166538095Y-77404761D01*
X166442857Y-77452380D01*
X166157142Y-77452380D01*
X166061904Y-77404761D01*
X166014285Y-77357142D01*
X167014285Y-76547619D02*
X167061904Y-76500000D01*
X167157142Y-76452380D01*
X167395238Y-76452380D01*
X167490476Y-76500000D01*
X167538095Y-76547619D01*
X167585714Y-76642857D01*
X167585714Y-76738095D01*
X167538095Y-76880952D01*
X166966666Y-77452380D01*
X167585714Y-77452380D01*
X167919047Y-76452380D02*
X168538095Y-76452380D01*
X168204761Y-76833333D01*
X168347619Y-76833333D01*
X168442857Y-76880952D01*
X168490476Y-76928571D01*
X168538095Y-77023809D01*
X168538095Y-77261904D01*
X168490476Y-77357142D01*
X168442857Y-77404761D01*
X168347619Y-77452380D01*
X168061904Y-77452380D01*
X167966666Y-77404761D01*
X167919047Y-77357142D01*
X169490476Y-77452380D02*
X168919047Y-77452380D01*
X169204761Y-77452380D02*
X169204761Y-76452380D01*
X169109523Y-76595238D01*
X169014285Y-76690476D01*
X168919047Y-76738095D01*
X155145001Y-81075001D02*
X178005001Y-81075001D01*
X179275001Y-82345001D02*
X179275001Y-145845001D01*
X178005001Y-147115001D02*
X155145001Y-147115001D01*
X153875001Y-145845001D02*
X153875001Y-82345001D01*
X153875001Y-82345001D02*
G75*
G02X155145001Y-81075001I1270000J0D01*
G01*
X178005001Y-81075001D02*
G75*
G02X179275001Y-82345001I0J-1270000D01*
G01*
X179275001Y-145845001D02*
G75*
G02X178005001Y-147115001I-1270000J0D01*
G01*
X155145001Y-147115001D02*
G75*
G02X153875001Y-145845001I0J1270000D01*
G01*
X157940000Y-75600000D02*
X175720000Y-75600000D01*
X178260000Y-73060000D02*
X178260000Y-57820000D01*
X175720000Y-55280000D02*
X157940000Y-55280000D01*
X155400000Y-57820000D02*
X155400000Y-73060000D01*
X155400000Y-57820000D02*
G75*
G02X157940000Y-55280000I2540000J0D01*
G01*
X175720000Y-55280000D02*
G75*
G02X178260000Y-57820000I0J-2540000D01*
G01*
X178260000Y-73060000D02*
G75*
G02X175720000Y-75600000I-2540000J0D01*
G01*
X157940000Y-75600000D02*
G75*
G02X155400000Y-73060000I0J2540000D01*
G01*
X167083096Y-88647381D02*
X167083096Y-89456905D01*
X167130715Y-89552143D01*
X167178334Y-89599762D01*
X167273572Y-89647381D01*
X167464048Y-89647381D01*
X167559286Y-89599762D01*
X167606905Y-89552143D01*
X167654524Y-89456905D01*
X167654524Y-88647381D01*
X168083096Y-88742620D02*
X168130715Y-88695001D01*
X168225953Y-88647381D01*
X168464048Y-88647381D01*
X168559286Y-88695001D01*
X168606905Y-88742620D01*
X168654524Y-88837858D01*
X168654524Y-88933096D01*
X168606905Y-89075953D01*
X168035477Y-89647381D01*
X168654524Y-89647381D01*
X167338095Y-59812380D02*
X167338095Y-60621904D01*
X167385714Y-60717142D01*
X167433333Y-60764761D01*
X167528571Y-60812380D01*
X167719047Y-60812380D01*
X167814285Y-60764761D01*
X167861904Y-60717142D01*
X167909523Y-60621904D01*
X167909523Y-59812380D01*
X168814285Y-60145714D02*
X168814285Y-60812380D01*
X168576190Y-59764761D02*
X168338095Y-60479047D01*
X168957142Y-60479047D01*
M02*
