G04 #@! TF.GenerationSoftware,KiCad,Pcbnew,(5.1.0-0)*
G04 #@! TF.CreationDate,2019-06-19T18:31:01-07:00*
G04 #@! TF.ProjectId,d32_sapflow_rtc,6433325f-7361-4706-966c-6f775f727463,rev?*
G04 #@! TF.SameCoordinates,Original*
G04 #@! TF.FileFunction,Copper,L1,Top*
G04 #@! TF.FilePolarity,Positive*
%FSLAX46Y46*%
G04 Gerber Fmt 4.6, Leading zero omitted, Abs format (unit mm)*
G04 Created by KiCad (PCBNEW (5.1.0-0)) date 2019-06-19 18:31:01*
%MOMM*%
%LPD*%
G04 APERTURE LIST*
%ADD10R,1.700000X1.700000*%
%ADD11O,1.700000X1.700000*%
%ADD12C,1.524000*%
%ADD13C,0.100000*%
%ADD14C,1.700000*%
%ADD15O,1.700000X1.950000*%
%ADD16C,0.800000*%
%ADD17C,0.250000*%
%ADD18C,0.500000*%
%ADD19C,0.254000*%
G04 APERTURE END LIST*
D10*
X170600000Y-85800000D03*
D11*
X168060000Y-85800000D03*
X165520000Y-85800000D03*
X162980000Y-85800000D03*
D12*
X155145001Y-88695001D03*
X155145001Y-91235001D03*
X155145001Y-93775001D03*
X155145001Y-96315001D03*
X155145001Y-98855001D03*
X155145001Y-101395001D03*
X155145001Y-103935001D03*
X155145001Y-106475001D03*
X155145001Y-109015001D03*
X155145001Y-111555001D03*
X155145001Y-114095001D03*
X155145001Y-116635001D03*
X155145001Y-119175001D03*
X155145001Y-121715001D03*
X155145001Y-124255001D03*
X155145001Y-126795001D03*
X178005001Y-126795001D03*
X178005001Y-124255001D03*
X178005001Y-121715001D03*
X178005001Y-119175001D03*
X178005001Y-116635001D03*
X178005001Y-114095001D03*
X178005001Y-111555001D03*
X178005001Y-109015001D03*
X178005001Y-106475001D03*
X178005001Y-103935001D03*
X178005001Y-101395001D03*
X178005001Y-98855001D03*
X178005001Y-96315001D03*
X178005001Y-93775001D03*
X178005001Y-91235001D03*
X178005001Y-88695001D03*
D13*
G36*
X162224504Y-137226204D02*
G01*
X162248773Y-137229804D01*
X162272571Y-137235765D01*
X162295671Y-137244030D01*
X162317849Y-137254520D01*
X162338893Y-137267133D01*
X162358598Y-137281747D01*
X162376777Y-137298223D01*
X162393253Y-137316402D01*
X162407867Y-137336107D01*
X162420480Y-137357151D01*
X162430970Y-137379329D01*
X162439235Y-137402429D01*
X162445196Y-137426227D01*
X162448796Y-137450496D01*
X162450000Y-137475000D01*
X162450000Y-138925000D01*
X162448796Y-138949504D01*
X162445196Y-138973773D01*
X162439235Y-138997571D01*
X162430970Y-139020671D01*
X162420480Y-139042849D01*
X162407867Y-139063893D01*
X162393253Y-139083598D01*
X162376777Y-139101777D01*
X162358598Y-139118253D01*
X162338893Y-139132867D01*
X162317849Y-139145480D01*
X162295671Y-139155970D01*
X162272571Y-139164235D01*
X162248773Y-139170196D01*
X162224504Y-139173796D01*
X162200000Y-139175000D01*
X161000000Y-139175000D01*
X160975496Y-139173796D01*
X160951227Y-139170196D01*
X160927429Y-139164235D01*
X160904329Y-139155970D01*
X160882151Y-139145480D01*
X160861107Y-139132867D01*
X160841402Y-139118253D01*
X160823223Y-139101777D01*
X160806747Y-139083598D01*
X160792133Y-139063893D01*
X160779520Y-139042849D01*
X160769030Y-139020671D01*
X160760765Y-138997571D01*
X160754804Y-138973773D01*
X160751204Y-138949504D01*
X160750000Y-138925000D01*
X160750000Y-137475000D01*
X160751204Y-137450496D01*
X160754804Y-137426227D01*
X160760765Y-137402429D01*
X160769030Y-137379329D01*
X160779520Y-137357151D01*
X160792133Y-137336107D01*
X160806747Y-137316402D01*
X160823223Y-137298223D01*
X160841402Y-137281747D01*
X160861107Y-137267133D01*
X160882151Y-137254520D01*
X160904329Y-137244030D01*
X160927429Y-137235765D01*
X160951227Y-137229804D01*
X160975496Y-137226204D01*
X161000000Y-137225000D01*
X162200000Y-137225000D01*
X162224504Y-137226204D01*
X162224504Y-137226204D01*
G37*
D14*
X161600000Y-138200000D03*
D15*
X164100000Y-138200000D03*
X166600000Y-138200000D03*
X169100000Y-138200000D03*
X171600000Y-138200000D03*
D12*
X157940000Y-73060000D03*
X160480000Y-73060000D03*
X163020000Y-73060000D03*
X165560000Y-73060000D03*
X168100000Y-73060000D03*
X170640000Y-73060000D03*
X173180000Y-73060000D03*
X175720000Y-73060000D03*
D16*
X157600000Y-97200000D03*
X157600000Y-100600000D03*
X159400000Y-102200000D03*
X175200000Y-83400000D03*
X175200000Y-87000000D03*
X174000000Y-93800000D03*
D17*
X156222631Y-98855001D02*
X155145001Y-98855001D01*
X170600000Y-86900000D02*
X158644999Y-98855001D01*
X158644999Y-98855001D02*
X156222631Y-98855001D01*
X170600000Y-85800000D02*
X170600000Y-86900000D01*
X157600000Y-96260000D02*
X157600000Y-97200000D01*
X168060000Y-85800000D02*
X157600000Y-96260000D01*
X157600000Y-104020002D02*
X155145001Y-106475001D01*
X157600000Y-100600000D02*
X157600000Y-104020002D01*
X158040002Y-85800000D02*
X155145001Y-88695001D01*
X162980000Y-85800000D02*
X158040002Y-85800000D01*
X157940000Y-80760000D02*
X162980000Y-85800000D01*
X157940000Y-73060000D02*
X157940000Y-80760000D01*
D18*
X164100000Y-138075000D02*
X164100000Y-138200000D01*
X159400000Y-102200000D02*
X159400000Y-133500000D01*
X159400000Y-133500000D02*
X164100000Y-138200000D01*
D17*
X160701628Y-137301628D02*
X161600000Y-138200000D01*
X157400000Y-134000000D02*
X160701628Y-137301628D01*
X157400000Y-111270000D02*
X157400000Y-134000000D01*
X155145001Y-109015001D02*
X157400000Y-111270000D01*
X175200000Y-82700000D02*
X175200000Y-83400000D01*
X165560000Y-73060000D02*
X175200000Y-82700000D01*
X175200000Y-98590000D02*
X178005001Y-101395001D01*
X175200000Y-87000000D02*
X175200000Y-98590000D01*
X171600000Y-108731240D02*
X171600000Y-136975000D01*
X171600000Y-136975000D02*
X171600000Y-138200000D01*
X178005001Y-102326239D02*
X171600000Y-108731240D01*
X178005001Y-101395001D02*
X178005001Y-102326239D01*
X163781999Y-73821999D02*
X163020000Y-73060000D01*
X176918000Y-86958000D02*
X163781999Y-73821999D01*
X176918000Y-92688000D02*
X176918000Y-86958000D01*
X178005001Y-93775001D02*
X176918000Y-92688000D01*
X169100000Y-98700000D02*
X174000000Y-93800000D01*
X169100000Y-138200000D02*
X169100000Y-98700000D01*
D19*
G36*
X177659659Y-70088625D02*
G01*
X177909429Y-70164035D01*
X178139792Y-70286522D01*
X178341980Y-70451422D01*
X178508286Y-70652450D01*
X178632378Y-70881954D01*
X178709531Y-71131195D01*
X178740000Y-71421088D01*
X178740000Y-87546766D01*
X178723981Y-87489345D01*
X178474953Y-87372245D01*
X178207866Y-87305978D01*
X177932984Y-87293091D01*
X177678000Y-87331498D01*
X177678000Y-86995325D01*
X177681676Y-86958000D01*
X177678000Y-86920675D01*
X177678000Y-86920667D01*
X177667003Y-86809014D01*
X177623546Y-86665753D01*
X177552974Y-86533724D01*
X177458001Y-86417999D01*
X177429003Y-86394201D01*
X175441952Y-84407150D01*
X175501898Y-84395226D01*
X175690256Y-84317205D01*
X175859774Y-84203937D01*
X176003937Y-84059774D01*
X176117205Y-83890256D01*
X176195226Y-83701898D01*
X176235000Y-83501939D01*
X176235000Y-83298061D01*
X176195226Y-83098102D01*
X176117205Y-82909744D01*
X176003937Y-82740226D01*
X175963672Y-82699961D01*
X175960000Y-82662675D01*
X175960000Y-82662667D01*
X175949003Y-82551014D01*
X175905546Y-82407753D01*
X175834974Y-82275724D01*
X175740001Y-82159999D01*
X175711004Y-82136202D01*
X168031801Y-74457000D01*
X168237592Y-74457000D01*
X168507490Y-74403314D01*
X168761727Y-74298005D01*
X168990535Y-74145120D01*
X169185120Y-73950535D01*
X169338005Y-73721727D01*
X169370000Y-73644485D01*
X169401995Y-73721727D01*
X169554880Y-73950535D01*
X169749465Y-74145120D01*
X169978273Y-74298005D01*
X170232510Y-74403314D01*
X170502408Y-74457000D01*
X170777592Y-74457000D01*
X171047490Y-74403314D01*
X171301727Y-74298005D01*
X171530535Y-74145120D01*
X171725120Y-73950535D01*
X171878005Y-73721727D01*
X171910000Y-73644485D01*
X171941995Y-73721727D01*
X172094880Y-73950535D01*
X172289465Y-74145120D01*
X172518273Y-74298005D01*
X172772510Y-74403314D01*
X173042408Y-74457000D01*
X173317592Y-74457000D01*
X173587490Y-74403314D01*
X173841727Y-74298005D01*
X174070535Y-74145120D01*
X174265120Y-73950535D01*
X174418005Y-73721727D01*
X174450000Y-73644485D01*
X174481995Y-73721727D01*
X174634880Y-73950535D01*
X174829465Y-74145120D01*
X175058273Y-74298005D01*
X175312510Y-74403314D01*
X175582408Y-74457000D01*
X175857592Y-74457000D01*
X176127490Y-74403314D01*
X176381727Y-74298005D01*
X176610535Y-74145120D01*
X176805120Y-73950535D01*
X176958005Y-73721727D01*
X177063314Y-73467490D01*
X177117000Y-73197592D01*
X177117000Y-72922408D01*
X177063314Y-72652510D01*
X176958005Y-72398273D01*
X176805120Y-72169465D01*
X176610535Y-71974880D01*
X176381727Y-71821995D01*
X176127490Y-71716686D01*
X175857592Y-71663000D01*
X175582408Y-71663000D01*
X175312510Y-71716686D01*
X175058273Y-71821995D01*
X174829465Y-71974880D01*
X174634880Y-72169465D01*
X174481995Y-72398273D01*
X174450000Y-72475515D01*
X174418005Y-72398273D01*
X174265120Y-72169465D01*
X174070535Y-71974880D01*
X173841727Y-71821995D01*
X173587490Y-71716686D01*
X173317592Y-71663000D01*
X173042408Y-71663000D01*
X172772510Y-71716686D01*
X172518273Y-71821995D01*
X172289465Y-71974880D01*
X172094880Y-72169465D01*
X171941995Y-72398273D01*
X171910000Y-72475515D01*
X171878005Y-72398273D01*
X171725120Y-72169465D01*
X171530535Y-71974880D01*
X171301727Y-71821995D01*
X171047490Y-71716686D01*
X170777592Y-71663000D01*
X170502408Y-71663000D01*
X170232510Y-71716686D01*
X169978273Y-71821995D01*
X169749465Y-71974880D01*
X169554880Y-72169465D01*
X169401995Y-72398273D01*
X169370000Y-72475515D01*
X169338005Y-72398273D01*
X169185120Y-72169465D01*
X168990535Y-71974880D01*
X168761727Y-71821995D01*
X168507490Y-71716686D01*
X168237592Y-71663000D01*
X167962408Y-71663000D01*
X167692510Y-71716686D01*
X167438273Y-71821995D01*
X167209465Y-71974880D01*
X167014880Y-72169465D01*
X166861995Y-72398273D01*
X166830000Y-72475515D01*
X166798005Y-72398273D01*
X166645120Y-72169465D01*
X166450535Y-71974880D01*
X166221727Y-71821995D01*
X165967490Y-71716686D01*
X165697592Y-71663000D01*
X165422408Y-71663000D01*
X165152510Y-71716686D01*
X164898273Y-71821995D01*
X164669465Y-71974880D01*
X164474880Y-72169465D01*
X164321995Y-72398273D01*
X164290000Y-72475515D01*
X164258005Y-72398273D01*
X164105120Y-72169465D01*
X163910535Y-71974880D01*
X163681727Y-71821995D01*
X163427490Y-71716686D01*
X163157592Y-71663000D01*
X162882408Y-71663000D01*
X162612510Y-71716686D01*
X162358273Y-71821995D01*
X162129465Y-71974880D01*
X161934880Y-72169465D01*
X161781995Y-72398273D01*
X161752308Y-72469943D01*
X161747636Y-72456977D01*
X161685656Y-72341020D01*
X161445565Y-72274040D01*
X160659605Y-73060000D01*
X161445565Y-73845960D01*
X161685656Y-73778980D01*
X161749485Y-73643240D01*
X161781995Y-73721727D01*
X161934880Y-73950535D01*
X162129465Y-74145120D01*
X162358273Y-74298005D01*
X162612510Y-74403314D01*
X162882408Y-74457000D01*
X163157592Y-74457000D01*
X163311571Y-74426372D01*
X174892353Y-86007155D01*
X174709744Y-86082795D01*
X174540226Y-86196063D01*
X174396063Y-86340226D01*
X174282795Y-86509744D01*
X174204774Y-86698102D01*
X174165000Y-86898061D01*
X174165000Y-87101939D01*
X174204774Y-87301898D01*
X174282795Y-87490256D01*
X174396063Y-87659774D01*
X174440000Y-87703711D01*
X174440001Y-92861978D01*
X174301898Y-92804774D01*
X174101939Y-92765000D01*
X173898061Y-92765000D01*
X173698102Y-92804774D01*
X173509744Y-92882795D01*
X173340226Y-92996063D01*
X173196063Y-93140226D01*
X173082795Y-93309744D01*
X173004774Y-93498102D01*
X172965000Y-93698061D01*
X172965000Y-93760197D01*
X168588998Y-98136201D01*
X168560000Y-98159999D01*
X168536202Y-98188997D01*
X168536201Y-98188998D01*
X168465026Y-98275724D01*
X168394454Y-98407754D01*
X168350998Y-98551015D01*
X168336324Y-98700000D01*
X168340001Y-98737333D01*
X168340000Y-136797405D01*
X168270986Y-136834294D01*
X168044866Y-137019866D01*
X167859294Y-137245987D01*
X167845538Y-137271722D01*
X167689049Y-137065571D01*
X167471193Y-136872504D01*
X167219858Y-136725648D01*
X166956890Y-136633524D01*
X166727000Y-136754845D01*
X166727000Y-138073000D01*
X166747000Y-138073000D01*
X166747000Y-138327000D01*
X166727000Y-138327000D01*
X166727000Y-139645155D01*
X166956890Y-139766476D01*
X167219858Y-139674352D01*
X167471193Y-139527496D01*
X167689049Y-139334429D01*
X167845538Y-139128278D01*
X167859294Y-139154014D01*
X168044866Y-139380134D01*
X168270987Y-139565706D01*
X168528967Y-139703599D01*
X168808890Y-139788513D01*
X169100000Y-139817185D01*
X169391111Y-139788513D01*
X169671034Y-139703599D01*
X169929014Y-139565706D01*
X170155134Y-139380134D01*
X170340706Y-139154014D01*
X170350000Y-139136626D01*
X170359294Y-139154014D01*
X170544866Y-139380134D01*
X170770987Y-139565706D01*
X171028967Y-139703599D01*
X171308890Y-139788513D01*
X171600000Y-139817185D01*
X171891111Y-139788513D01*
X172171034Y-139703599D01*
X172429014Y-139565706D01*
X172655134Y-139380134D01*
X172840706Y-139154014D01*
X172978599Y-138896033D01*
X173063513Y-138616110D01*
X173085000Y-138397949D01*
X173085000Y-138002050D01*
X173063513Y-137783889D01*
X172978599Y-137503966D01*
X172840706Y-137245986D01*
X172655134Y-137019866D01*
X172429013Y-136834294D01*
X172360000Y-136797406D01*
X172360000Y-126867018D01*
X176603091Y-126867018D01*
X176644079Y-127139134D01*
X176737365Y-127398024D01*
X176799345Y-127513981D01*
X177039436Y-127580961D01*
X177825396Y-126795001D01*
X177039436Y-126009041D01*
X176799345Y-126076021D01*
X176682245Y-126325049D01*
X176615978Y-126592136D01*
X176603091Y-126867018D01*
X172360000Y-126867018D01*
X172360000Y-109046041D01*
X176783946Y-104622096D01*
X176919881Y-104825536D01*
X177114466Y-105020121D01*
X177343274Y-105173006D01*
X177420516Y-105205001D01*
X177343274Y-105236996D01*
X177114466Y-105389881D01*
X176919881Y-105584466D01*
X176766996Y-105813274D01*
X176661687Y-106067511D01*
X176608001Y-106337409D01*
X176608001Y-106612593D01*
X176661687Y-106882491D01*
X176766996Y-107136728D01*
X176919881Y-107365536D01*
X177114466Y-107560121D01*
X177343274Y-107713006D01*
X177420516Y-107745001D01*
X177343274Y-107776996D01*
X177114466Y-107929881D01*
X176919881Y-108124466D01*
X176766996Y-108353274D01*
X176661687Y-108607511D01*
X176608001Y-108877409D01*
X176608001Y-109152593D01*
X176661687Y-109422491D01*
X176766996Y-109676728D01*
X176919881Y-109905536D01*
X177114466Y-110100121D01*
X177343274Y-110253006D01*
X177420516Y-110285001D01*
X177343274Y-110316996D01*
X177114466Y-110469881D01*
X176919881Y-110664466D01*
X176766996Y-110893274D01*
X176661687Y-111147511D01*
X176608001Y-111417409D01*
X176608001Y-111692593D01*
X176661687Y-111962491D01*
X176766996Y-112216728D01*
X176919881Y-112445536D01*
X177114466Y-112640121D01*
X177343274Y-112793006D01*
X177420516Y-112825001D01*
X177343274Y-112856996D01*
X177114466Y-113009881D01*
X176919881Y-113204466D01*
X176766996Y-113433274D01*
X176661687Y-113687511D01*
X176608001Y-113957409D01*
X176608001Y-114232593D01*
X176661687Y-114502491D01*
X176766996Y-114756728D01*
X176919881Y-114985536D01*
X177114466Y-115180121D01*
X177343274Y-115333006D01*
X177420516Y-115365001D01*
X177343274Y-115396996D01*
X177114466Y-115549881D01*
X176919881Y-115744466D01*
X176766996Y-115973274D01*
X176661687Y-116227511D01*
X176608001Y-116497409D01*
X176608001Y-116772593D01*
X176661687Y-117042491D01*
X176766996Y-117296728D01*
X176919881Y-117525536D01*
X177114466Y-117720121D01*
X177343274Y-117873006D01*
X177420516Y-117905001D01*
X177343274Y-117936996D01*
X177114466Y-118089881D01*
X176919881Y-118284466D01*
X176766996Y-118513274D01*
X176661687Y-118767511D01*
X176608001Y-119037409D01*
X176608001Y-119312593D01*
X176661687Y-119582491D01*
X176766996Y-119836728D01*
X176919881Y-120065536D01*
X177114466Y-120260121D01*
X177343274Y-120413006D01*
X177420516Y-120445001D01*
X177343274Y-120476996D01*
X177114466Y-120629881D01*
X176919881Y-120824466D01*
X176766996Y-121053274D01*
X176661687Y-121307511D01*
X176608001Y-121577409D01*
X176608001Y-121852593D01*
X176661687Y-122122491D01*
X176766996Y-122376728D01*
X176919881Y-122605536D01*
X177114466Y-122800121D01*
X177343274Y-122953006D01*
X177420516Y-122985001D01*
X177343274Y-123016996D01*
X177114466Y-123169881D01*
X176919881Y-123364466D01*
X176766996Y-123593274D01*
X176661687Y-123847511D01*
X176608001Y-124117409D01*
X176608001Y-124392593D01*
X176661687Y-124662491D01*
X176766996Y-124916728D01*
X176919881Y-125145536D01*
X177114466Y-125340121D01*
X177343274Y-125493006D01*
X177414944Y-125522693D01*
X177401978Y-125527365D01*
X177286021Y-125589345D01*
X177219041Y-125829436D01*
X178005001Y-126615396D01*
X178019144Y-126601254D01*
X178198749Y-126780859D01*
X178184606Y-126795001D01*
X178198749Y-126809144D01*
X178019144Y-126988749D01*
X178005001Y-126974606D01*
X177219041Y-127760566D01*
X177286021Y-128000657D01*
X177535049Y-128117757D01*
X177802136Y-128184024D01*
X178077018Y-128196911D01*
X178349134Y-128155923D01*
X178608024Y-128062637D01*
X178723981Y-128000657D01*
X178740001Y-127943234D01*
X178740001Y-145167711D01*
X178711375Y-145459660D01*
X178635965Y-145709429D01*
X178513477Y-145939794D01*
X178348579Y-146141979D01*
X178147546Y-146308288D01*
X177918046Y-146432378D01*
X177668805Y-146509531D01*
X177378911Y-146540000D01*
X155832279Y-146540000D01*
X155540340Y-146511375D01*
X155290571Y-146435965D01*
X155060206Y-146313477D01*
X154858021Y-146148579D01*
X154691712Y-145947546D01*
X154567622Y-145718046D01*
X154490469Y-145468805D01*
X154460000Y-145178911D01*
X154460000Y-128017455D01*
X154483274Y-128033006D01*
X154737511Y-128138315D01*
X155007409Y-128192001D01*
X155282593Y-128192001D01*
X155552491Y-128138315D01*
X155806728Y-128033006D01*
X156035536Y-127880121D01*
X156230121Y-127685536D01*
X156383006Y-127456728D01*
X156488315Y-127202491D01*
X156542001Y-126932593D01*
X156542001Y-126657409D01*
X156488315Y-126387511D01*
X156383006Y-126133274D01*
X156230121Y-125904466D01*
X156035536Y-125709881D01*
X155806728Y-125556996D01*
X155729486Y-125525001D01*
X155806728Y-125493006D01*
X156035536Y-125340121D01*
X156230121Y-125145536D01*
X156383006Y-124916728D01*
X156488315Y-124662491D01*
X156542001Y-124392593D01*
X156542001Y-124117409D01*
X156488315Y-123847511D01*
X156383006Y-123593274D01*
X156230121Y-123364466D01*
X156035536Y-123169881D01*
X155806728Y-123016996D01*
X155729486Y-122985001D01*
X155806728Y-122953006D01*
X156035536Y-122800121D01*
X156230121Y-122605536D01*
X156383006Y-122376728D01*
X156488315Y-122122491D01*
X156542001Y-121852593D01*
X156542001Y-121577409D01*
X156488315Y-121307511D01*
X156383006Y-121053274D01*
X156230121Y-120824466D01*
X156035536Y-120629881D01*
X155806728Y-120476996D01*
X155729486Y-120445001D01*
X155806728Y-120413006D01*
X156035536Y-120260121D01*
X156230121Y-120065536D01*
X156383006Y-119836728D01*
X156488315Y-119582491D01*
X156542001Y-119312593D01*
X156542001Y-119037409D01*
X156488315Y-118767511D01*
X156383006Y-118513274D01*
X156230121Y-118284466D01*
X156035536Y-118089881D01*
X155806728Y-117936996D01*
X155729486Y-117905001D01*
X155806728Y-117873006D01*
X156035536Y-117720121D01*
X156230121Y-117525536D01*
X156383006Y-117296728D01*
X156488315Y-117042491D01*
X156542001Y-116772593D01*
X156542001Y-116497409D01*
X156488315Y-116227511D01*
X156383006Y-115973274D01*
X156230121Y-115744466D01*
X156035536Y-115549881D01*
X155806728Y-115396996D01*
X155729486Y-115365001D01*
X155806728Y-115333006D01*
X156035536Y-115180121D01*
X156230121Y-114985536D01*
X156383006Y-114756728D01*
X156488315Y-114502491D01*
X156542001Y-114232593D01*
X156542001Y-113957409D01*
X156488315Y-113687511D01*
X156383006Y-113433274D01*
X156230121Y-113204466D01*
X156035536Y-113009881D01*
X155806728Y-112856996D01*
X155729486Y-112825001D01*
X155806728Y-112793006D01*
X156035536Y-112640121D01*
X156230121Y-112445536D01*
X156383006Y-112216728D01*
X156488315Y-111962491D01*
X156542001Y-111692593D01*
X156542001Y-111486803D01*
X156640000Y-111584802D01*
X156640001Y-133962667D01*
X156636324Y-134000000D01*
X156650998Y-134148985D01*
X156694454Y-134292246D01*
X156765026Y-134424276D01*
X156836201Y-134511002D01*
X156860000Y-134540001D01*
X156888998Y-134563799D01*
X160111928Y-137786730D01*
X160111928Y-138925000D01*
X160128992Y-139098254D01*
X160179528Y-139264850D01*
X160261595Y-139418386D01*
X160372038Y-139552962D01*
X160506614Y-139663405D01*
X160660150Y-139745472D01*
X160826746Y-139796008D01*
X161000000Y-139813072D01*
X162200000Y-139813072D01*
X162373254Y-139796008D01*
X162539850Y-139745472D01*
X162693386Y-139663405D01*
X162827962Y-139552962D01*
X162938405Y-139418386D01*
X162992777Y-139316663D01*
X163044866Y-139380134D01*
X163270987Y-139565706D01*
X163528967Y-139703599D01*
X163808890Y-139788513D01*
X164100000Y-139817185D01*
X164391111Y-139788513D01*
X164671034Y-139703599D01*
X164929014Y-139565706D01*
X165155134Y-139380134D01*
X165340706Y-139154014D01*
X165354462Y-139128278D01*
X165510951Y-139334429D01*
X165728807Y-139527496D01*
X165980142Y-139674352D01*
X166243110Y-139766476D01*
X166473000Y-139645155D01*
X166473000Y-138327000D01*
X166453000Y-138327000D01*
X166453000Y-138073000D01*
X166473000Y-138073000D01*
X166473000Y-136754845D01*
X166243110Y-136633524D01*
X165980142Y-136725648D01*
X165728807Y-136872504D01*
X165510951Y-137065571D01*
X165354462Y-137271722D01*
X165340706Y-137245986D01*
X165155134Y-137019866D01*
X164929013Y-136834294D01*
X164671033Y-136696401D01*
X164391110Y-136611487D01*
X164100000Y-136582815D01*
X163808889Y-136611487D01*
X163773731Y-136622152D01*
X160285000Y-133133422D01*
X160285000Y-102738454D01*
X160317205Y-102690256D01*
X160395226Y-102501898D01*
X160435000Y-102301939D01*
X160435000Y-102098061D01*
X160395226Y-101898102D01*
X160317205Y-101709744D01*
X160203937Y-101540226D01*
X160059774Y-101396063D01*
X159890256Y-101282795D01*
X159701898Y-101204774D01*
X159501939Y-101165000D01*
X159298061Y-101165000D01*
X159098102Y-101204774D01*
X158909744Y-101282795D01*
X158740226Y-101396063D01*
X158596063Y-101540226D01*
X158482795Y-101709744D01*
X158404774Y-101898102D01*
X158365000Y-102098061D01*
X158365000Y-102301939D01*
X158404774Y-102501898D01*
X158482795Y-102690256D01*
X158515000Y-102738454D01*
X158515001Y-133456521D01*
X158510719Y-133500000D01*
X158527805Y-133673490D01*
X158578412Y-133840313D01*
X158660590Y-133994059D01*
X158743468Y-134095046D01*
X158743471Y-134095049D01*
X158771184Y-134128817D01*
X158804952Y-134156530D01*
X161235349Y-136586928D01*
X161061730Y-136586928D01*
X158160000Y-133685199D01*
X158160000Y-111307322D01*
X158163676Y-111269999D01*
X158160000Y-111232676D01*
X158160000Y-111232667D01*
X158149003Y-111121014D01*
X158105546Y-110977753D01*
X158034974Y-110845724D01*
X157940001Y-110729999D01*
X157911004Y-110706202D01*
X156511373Y-109306571D01*
X156542001Y-109152593D01*
X156542001Y-108877409D01*
X156488315Y-108607511D01*
X156383006Y-108353274D01*
X156230121Y-108124466D01*
X156035536Y-107929881D01*
X155806728Y-107776996D01*
X155729486Y-107745001D01*
X155806728Y-107713006D01*
X156035536Y-107560121D01*
X156230121Y-107365536D01*
X156383006Y-107136728D01*
X156488315Y-106882491D01*
X156542001Y-106612593D01*
X156542001Y-106337409D01*
X156511373Y-106183431D01*
X158111003Y-104583801D01*
X158140001Y-104560003D01*
X158166332Y-104527919D01*
X158234974Y-104444279D01*
X158305546Y-104312249D01*
X158349003Y-104168988D01*
X158360000Y-104057335D01*
X158360000Y-104057325D01*
X158363676Y-104020002D01*
X158360000Y-103982679D01*
X158360000Y-101303711D01*
X158403937Y-101259774D01*
X158517205Y-101090256D01*
X158595226Y-100901898D01*
X158635000Y-100701939D01*
X158635000Y-100498061D01*
X158595226Y-100298102D01*
X158517205Y-100109744D01*
X158403937Y-99940226D01*
X158259774Y-99796063D01*
X158090256Y-99682795D01*
X157926588Y-99615001D01*
X158607677Y-99615001D01*
X158644999Y-99618677D01*
X158682321Y-99615001D01*
X158682332Y-99615001D01*
X158793985Y-99604004D01*
X158937246Y-99560547D01*
X159069275Y-99489975D01*
X159185000Y-99395002D01*
X159208803Y-99365998D01*
X171111003Y-87463799D01*
X171140001Y-87440001D01*
X171234974Y-87324276D01*
X171254326Y-87288072D01*
X171450000Y-87288072D01*
X171574482Y-87275812D01*
X171694180Y-87239502D01*
X171804494Y-87180537D01*
X171901185Y-87101185D01*
X171980537Y-87004494D01*
X172039502Y-86894180D01*
X172075812Y-86774482D01*
X172088072Y-86650000D01*
X172088072Y-84950000D01*
X172075812Y-84825518D01*
X172039502Y-84705820D01*
X171980537Y-84595506D01*
X171901185Y-84498815D01*
X171804494Y-84419463D01*
X171694180Y-84360498D01*
X171574482Y-84324188D01*
X171450000Y-84311928D01*
X169750000Y-84311928D01*
X169625518Y-84324188D01*
X169505820Y-84360498D01*
X169395506Y-84419463D01*
X169298815Y-84498815D01*
X169219463Y-84595506D01*
X169160498Y-84705820D01*
X169139607Y-84774687D01*
X169115134Y-84744866D01*
X168889014Y-84559294D01*
X168631034Y-84421401D01*
X168351111Y-84336487D01*
X168132950Y-84315000D01*
X167987050Y-84315000D01*
X167768889Y-84336487D01*
X167488966Y-84421401D01*
X167230986Y-84559294D01*
X167004866Y-84744866D01*
X166819294Y-84970986D01*
X166784799Y-85035523D01*
X166715178Y-84918645D01*
X166520269Y-84702412D01*
X166286920Y-84528359D01*
X166024099Y-84403175D01*
X165876890Y-84358524D01*
X165647000Y-84479845D01*
X165647000Y-85673000D01*
X165667000Y-85673000D01*
X165667000Y-85927000D01*
X165647000Y-85927000D01*
X165647000Y-85947000D01*
X165393000Y-85947000D01*
X165393000Y-85927000D01*
X165373000Y-85927000D01*
X165373000Y-85673000D01*
X165393000Y-85673000D01*
X165393000Y-84479845D01*
X165163110Y-84358524D01*
X165015901Y-84403175D01*
X164753080Y-84528359D01*
X164519731Y-84702412D01*
X164324822Y-84918645D01*
X164255201Y-85035523D01*
X164220706Y-84970986D01*
X164035134Y-84744866D01*
X163809014Y-84559294D01*
X163551034Y-84421401D01*
X163271111Y-84336487D01*
X163052950Y-84315000D01*
X162907050Y-84315000D01*
X162688889Y-84336487D01*
X162614005Y-84359203D01*
X158700000Y-80445199D01*
X158700000Y-74232341D01*
X158830535Y-74145120D01*
X158950090Y-74025565D01*
X159694040Y-74025565D01*
X159761020Y-74265656D01*
X160010048Y-74382756D01*
X160277135Y-74449023D01*
X160552017Y-74461910D01*
X160824133Y-74420922D01*
X161083023Y-74327636D01*
X161198980Y-74265656D01*
X161265960Y-74025565D01*
X160480000Y-73239605D01*
X159694040Y-74025565D01*
X158950090Y-74025565D01*
X159025120Y-73950535D01*
X159178005Y-73721727D01*
X159207692Y-73650057D01*
X159212364Y-73663023D01*
X159274344Y-73778980D01*
X159514435Y-73845960D01*
X160300395Y-73060000D01*
X159514435Y-72274040D01*
X159274344Y-72341020D01*
X159210515Y-72476760D01*
X159178005Y-72398273D01*
X159025120Y-72169465D01*
X158950090Y-72094435D01*
X159694040Y-72094435D01*
X160480000Y-72880395D01*
X161265960Y-72094435D01*
X161198980Y-71854344D01*
X160949952Y-71737244D01*
X160682865Y-71670977D01*
X160407983Y-71658090D01*
X160135867Y-71699078D01*
X159876977Y-71792364D01*
X159761020Y-71854344D01*
X159694040Y-72094435D01*
X158950090Y-72094435D01*
X158830535Y-71974880D01*
X158601727Y-71821995D01*
X158347490Y-71716686D01*
X158077592Y-71663000D01*
X157802408Y-71663000D01*
X157532510Y-71716686D01*
X157278273Y-71821995D01*
X157049465Y-71974880D01*
X156854880Y-72169465D01*
X156701995Y-72398273D01*
X156596686Y-72652510D01*
X156543000Y-72922408D01*
X156543000Y-73197592D01*
X156596686Y-73467490D01*
X156701995Y-73721727D01*
X156854880Y-73950535D01*
X157049465Y-74145120D01*
X157180000Y-74232341D01*
X157180001Y-80722668D01*
X157176324Y-80760000D01*
X157190998Y-80908985D01*
X157234454Y-81052246D01*
X157305026Y-81184276D01*
X157376201Y-81271002D01*
X157400000Y-81300001D01*
X157428998Y-81323799D01*
X161145198Y-85040000D01*
X158077327Y-85040000D01*
X158040002Y-85036324D01*
X158002677Y-85040000D01*
X158002669Y-85040000D01*
X157891016Y-85050997D01*
X157747755Y-85094454D01*
X157615726Y-85165026D01*
X157500001Y-85259999D01*
X157476203Y-85288997D01*
X155436572Y-87328629D01*
X155282593Y-87298001D01*
X155007409Y-87298001D01*
X154737511Y-87351687D01*
X154483274Y-87456996D01*
X154460000Y-87472547D01*
X154460000Y-71432279D01*
X154488625Y-71140341D01*
X154564035Y-70890571D01*
X154686522Y-70660208D01*
X154851422Y-70458020D01*
X155052450Y-70291714D01*
X155281954Y-70167622D01*
X155531195Y-70090469D01*
X155821088Y-70060000D01*
X177367721Y-70060000D01*
X177659659Y-70088625D01*
X177659659Y-70088625D01*
G37*
X177659659Y-70088625D02*
X177909429Y-70164035D01*
X178139792Y-70286522D01*
X178341980Y-70451422D01*
X178508286Y-70652450D01*
X178632378Y-70881954D01*
X178709531Y-71131195D01*
X178740000Y-71421088D01*
X178740000Y-87546766D01*
X178723981Y-87489345D01*
X178474953Y-87372245D01*
X178207866Y-87305978D01*
X177932984Y-87293091D01*
X177678000Y-87331498D01*
X177678000Y-86995325D01*
X177681676Y-86958000D01*
X177678000Y-86920675D01*
X177678000Y-86920667D01*
X177667003Y-86809014D01*
X177623546Y-86665753D01*
X177552974Y-86533724D01*
X177458001Y-86417999D01*
X177429003Y-86394201D01*
X175441952Y-84407150D01*
X175501898Y-84395226D01*
X175690256Y-84317205D01*
X175859774Y-84203937D01*
X176003937Y-84059774D01*
X176117205Y-83890256D01*
X176195226Y-83701898D01*
X176235000Y-83501939D01*
X176235000Y-83298061D01*
X176195226Y-83098102D01*
X176117205Y-82909744D01*
X176003937Y-82740226D01*
X175963672Y-82699961D01*
X175960000Y-82662675D01*
X175960000Y-82662667D01*
X175949003Y-82551014D01*
X175905546Y-82407753D01*
X175834974Y-82275724D01*
X175740001Y-82159999D01*
X175711004Y-82136202D01*
X168031801Y-74457000D01*
X168237592Y-74457000D01*
X168507490Y-74403314D01*
X168761727Y-74298005D01*
X168990535Y-74145120D01*
X169185120Y-73950535D01*
X169338005Y-73721727D01*
X169370000Y-73644485D01*
X169401995Y-73721727D01*
X169554880Y-73950535D01*
X169749465Y-74145120D01*
X169978273Y-74298005D01*
X170232510Y-74403314D01*
X170502408Y-74457000D01*
X170777592Y-74457000D01*
X171047490Y-74403314D01*
X171301727Y-74298005D01*
X171530535Y-74145120D01*
X171725120Y-73950535D01*
X171878005Y-73721727D01*
X171910000Y-73644485D01*
X171941995Y-73721727D01*
X172094880Y-73950535D01*
X172289465Y-74145120D01*
X172518273Y-74298005D01*
X172772510Y-74403314D01*
X173042408Y-74457000D01*
X173317592Y-74457000D01*
X173587490Y-74403314D01*
X173841727Y-74298005D01*
X174070535Y-74145120D01*
X174265120Y-73950535D01*
X174418005Y-73721727D01*
X174450000Y-73644485D01*
X174481995Y-73721727D01*
X174634880Y-73950535D01*
X174829465Y-74145120D01*
X175058273Y-74298005D01*
X175312510Y-74403314D01*
X175582408Y-74457000D01*
X175857592Y-74457000D01*
X176127490Y-74403314D01*
X176381727Y-74298005D01*
X176610535Y-74145120D01*
X176805120Y-73950535D01*
X176958005Y-73721727D01*
X177063314Y-73467490D01*
X177117000Y-73197592D01*
X177117000Y-72922408D01*
X177063314Y-72652510D01*
X176958005Y-72398273D01*
X176805120Y-72169465D01*
X176610535Y-71974880D01*
X176381727Y-71821995D01*
X176127490Y-71716686D01*
X175857592Y-71663000D01*
X175582408Y-71663000D01*
X175312510Y-71716686D01*
X175058273Y-71821995D01*
X174829465Y-71974880D01*
X174634880Y-72169465D01*
X174481995Y-72398273D01*
X174450000Y-72475515D01*
X174418005Y-72398273D01*
X174265120Y-72169465D01*
X174070535Y-71974880D01*
X173841727Y-71821995D01*
X173587490Y-71716686D01*
X173317592Y-71663000D01*
X173042408Y-71663000D01*
X172772510Y-71716686D01*
X172518273Y-71821995D01*
X172289465Y-71974880D01*
X172094880Y-72169465D01*
X171941995Y-72398273D01*
X171910000Y-72475515D01*
X171878005Y-72398273D01*
X171725120Y-72169465D01*
X171530535Y-71974880D01*
X171301727Y-71821995D01*
X171047490Y-71716686D01*
X170777592Y-71663000D01*
X170502408Y-71663000D01*
X170232510Y-71716686D01*
X169978273Y-71821995D01*
X169749465Y-71974880D01*
X169554880Y-72169465D01*
X169401995Y-72398273D01*
X169370000Y-72475515D01*
X169338005Y-72398273D01*
X169185120Y-72169465D01*
X168990535Y-71974880D01*
X168761727Y-71821995D01*
X168507490Y-71716686D01*
X168237592Y-71663000D01*
X167962408Y-71663000D01*
X167692510Y-71716686D01*
X167438273Y-71821995D01*
X167209465Y-71974880D01*
X167014880Y-72169465D01*
X166861995Y-72398273D01*
X166830000Y-72475515D01*
X166798005Y-72398273D01*
X166645120Y-72169465D01*
X166450535Y-71974880D01*
X166221727Y-71821995D01*
X165967490Y-71716686D01*
X165697592Y-71663000D01*
X165422408Y-71663000D01*
X165152510Y-71716686D01*
X164898273Y-71821995D01*
X164669465Y-71974880D01*
X164474880Y-72169465D01*
X164321995Y-72398273D01*
X164290000Y-72475515D01*
X164258005Y-72398273D01*
X164105120Y-72169465D01*
X163910535Y-71974880D01*
X163681727Y-71821995D01*
X163427490Y-71716686D01*
X163157592Y-71663000D01*
X162882408Y-71663000D01*
X162612510Y-71716686D01*
X162358273Y-71821995D01*
X162129465Y-71974880D01*
X161934880Y-72169465D01*
X161781995Y-72398273D01*
X161752308Y-72469943D01*
X161747636Y-72456977D01*
X161685656Y-72341020D01*
X161445565Y-72274040D01*
X160659605Y-73060000D01*
X161445565Y-73845960D01*
X161685656Y-73778980D01*
X161749485Y-73643240D01*
X161781995Y-73721727D01*
X161934880Y-73950535D01*
X162129465Y-74145120D01*
X162358273Y-74298005D01*
X162612510Y-74403314D01*
X162882408Y-74457000D01*
X163157592Y-74457000D01*
X163311571Y-74426372D01*
X174892353Y-86007155D01*
X174709744Y-86082795D01*
X174540226Y-86196063D01*
X174396063Y-86340226D01*
X174282795Y-86509744D01*
X174204774Y-86698102D01*
X174165000Y-86898061D01*
X174165000Y-87101939D01*
X174204774Y-87301898D01*
X174282795Y-87490256D01*
X174396063Y-87659774D01*
X174440000Y-87703711D01*
X174440001Y-92861978D01*
X174301898Y-92804774D01*
X174101939Y-92765000D01*
X173898061Y-92765000D01*
X173698102Y-92804774D01*
X173509744Y-92882795D01*
X173340226Y-92996063D01*
X173196063Y-93140226D01*
X173082795Y-93309744D01*
X173004774Y-93498102D01*
X172965000Y-93698061D01*
X172965000Y-93760197D01*
X168588998Y-98136201D01*
X168560000Y-98159999D01*
X168536202Y-98188997D01*
X168536201Y-98188998D01*
X168465026Y-98275724D01*
X168394454Y-98407754D01*
X168350998Y-98551015D01*
X168336324Y-98700000D01*
X168340001Y-98737333D01*
X168340000Y-136797405D01*
X168270986Y-136834294D01*
X168044866Y-137019866D01*
X167859294Y-137245987D01*
X167845538Y-137271722D01*
X167689049Y-137065571D01*
X167471193Y-136872504D01*
X167219858Y-136725648D01*
X166956890Y-136633524D01*
X166727000Y-136754845D01*
X166727000Y-138073000D01*
X166747000Y-138073000D01*
X166747000Y-138327000D01*
X166727000Y-138327000D01*
X166727000Y-139645155D01*
X166956890Y-139766476D01*
X167219858Y-139674352D01*
X167471193Y-139527496D01*
X167689049Y-139334429D01*
X167845538Y-139128278D01*
X167859294Y-139154014D01*
X168044866Y-139380134D01*
X168270987Y-139565706D01*
X168528967Y-139703599D01*
X168808890Y-139788513D01*
X169100000Y-139817185D01*
X169391111Y-139788513D01*
X169671034Y-139703599D01*
X169929014Y-139565706D01*
X170155134Y-139380134D01*
X170340706Y-139154014D01*
X170350000Y-139136626D01*
X170359294Y-139154014D01*
X170544866Y-139380134D01*
X170770987Y-139565706D01*
X171028967Y-139703599D01*
X171308890Y-139788513D01*
X171600000Y-139817185D01*
X171891111Y-139788513D01*
X172171034Y-139703599D01*
X172429014Y-139565706D01*
X172655134Y-139380134D01*
X172840706Y-139154014D01*
X172978599Y-138896033D01*
X173063513Y-138616110D01*
X173085000Y-138397949D01*
X173085000Y-138002050D01*
X173063513Y-137783889D01*
X172978599Y-137503966D01*
X172840706Y-137245986D01*
X172655134Y-137019866D01*
X172429013Y-136834294D01*
X172360000Y-136797406D01*
X172360000Y-126867018D01*
X176603091Y-126867018D01*
X176644079Y-127139134D01*
X176737365Y-127398024D01*
X176799345Y-127513981D01*
X177039436Y-127580961D01*
X177825396Y-126795001D01*
X177039436Y-126009041D01*
X176799345Y-126076021D01*
X176682245Y-126325049D01*
X176615978Y-126592136D01*
X176603091Y-126867018D01*
X172360000Y-126867018D01*
X172360000Y-109046041D01*
X176783946Y-104622096D01*
X176919881Y-104825536D01*
X177114466Y-105020121D01*
X177343274Y-105173006D01*
X177420516Y-105205001D01*
X177343274Y-105236996D01*
X177114466Y-105389881D01*
X176919881Y-105584466D01*
X176766996Y-105813274D01*
X176661687Y-106067511D01*
X176608001Y-106337409D01*
X176608001Y-106612593D01*
X176661687Y-106882491D01*
X176766996Y-107136728D01*
X176919881Y-107365536D01*
X177114466Y-107560121D01*
X177343274Y-107713006D01*
X177420516Y-107745001D01*
X177343274Y-107776996D01*
X177114466Y-107929881D01*
X176919881Y-108124466D01*
X176766996Y-108353274D01*
X176661687Y-108607511D01*
X176608001Y-108877409D01*
X176608001Y-109152593D01*
X176661687Y-109422491D01*
X176766996Y-109676728D01*
X176919881Y-109905536D01*
X177114466Y-110100121D01*
X177343274Y-110253006D01*
X177420516Y-110285001D01*
X177343274Y-110316996D01*
X177114466Y-110469881D01*
X176919881Y-110664466D01*
X176766996Y-110893274D01*
X176661687Y-111147511D01*
X176608001Y-111417409D01*
X176608001Y-111692593D01*
X176661687Y-111962491D01*
X176766996Y-112216728D01*
X176919881Y-112445536D01*
X177114466Y-112640121D01*
X177343274Y-112793006D01*
X177420516Y-112825001D01*
X177343274Y-112856996D01*
X177114466Y-113009881D01*
X176919881Y-113204466D01*
X176766996Y-113433274D01*
X176661687Y-113687511D01*
X176608001Y-113957409D01*
X176608001Y-114232593D01*
X176661687Y-114502491D01*
X176766996Y-114756728D01*
X176919881Y-114985536D01*
X177114466Y-115180121D01*
X177343274Y-115333006D01*
X177420516Y-115365001D01*
X177343274Y-115396996D01*
X177114466Y-115549881D01*
X176919881Y-115744466D01*
X176766996Y-115973274D01*
X176661687Y-116227511D01*
X176608001Y-116497409D01*
X176608001Y-116772593D01*
X176661687Y-117042491D01*
X176766996Y-117296728D01*
X176919881Y-117525536D01*
X177114466Y-117720121D01*
X177343274Y-117873006D01*
X177420516Y-117905001D01*
X177343274Y-117936996D01*
X177114466Y-118089881D01*
X176919881Y-118284466D01*
X176766996Y-118513274D01*
X176661687Y-118767511D01*
X176608001Y-119037409D01*
X176608001Y-119312593D01*
X176661687Y-119582491D01*
X176766996Y-119836728D01*
X176919881Y-120065536D01*
X177114466Y-120260121D01*
X177343274Y-120413006D01*
X177420516Y-120445001D01*
X177343274Y-120476996D01*
X177114466Y-120629881D01*
X176919881Y-120824466D01*
X176766996Y-121053274D01*
X176661687Y-121307511D01*
X176608001Y-121577409D01*
X176608001Y-121852593D01*
X176661687Y-122122491D01*
X176766996Y-122376728D01*
X176919881Y-122605536D01*
X177114466Y-122800121D01*
X177343274Y-122953006D01*
X177420516Y-122985001D01*
X177343274Y-123016996D01*
X177114466Y-123169881D01*
X176919881Y-123364466D01*
X176766996Y-123593274D01*
X176661687Y-123847511D01*
X176608001Y-124117409D01*
X176608001Y-124392593D01*
X176661687Y-124662491D01*
X176766996Y-124916728D01*
X176919881Y-125145536D01*
X177114466Y-125340121D01*
X177343274Y-125493006D01*
X177414944Y-125522693D01*
X177401978Y-125527365D01*
X177286021Y-125589345D01*
X177219041Y-125829436D01*
X178005001Y-126615396D01*
X178019144Y-126601254D01*
X178198749Y-126780859D01*
X178184606Y-126795001D01*
X178198749Y-126809144D01*
X178019144Y-126988749D01*
X178005001Y-126974606D01*
X177219041Y-127760566D01*
X177286021Y-128000657D01*
X177535049Y-128117757D01*
X177802136Y-128184024D01*
X178077018Y-128196911D01*
X178349134Y-128155923D01*
X178608024Y-128062637D01*
X178723981Y-128000657D01*
X178740001Y-127943234D01*
X178740001Y-145167711D01*
X178711375Y-145459660D01*
X178635965Y-145709429D01*
X178513477Y-145939794D01*
X178348579Y-146141979D01*
X178147546Y-146308288D01*
X177918046Y-146432378D01*
X177668805Y-146509531D01*
X177378911Y-146540000D01*
X155832279Y-146540000D01*
X155540340Y-146511375D01*
X155290571Y-146435965D01*
X155060206Y-146313477D01*
X154858021Y-146148579D01*
X154691712Y-145947546D01*
X154567622Y-145718046D01*
X154490469Y-145468805D01*
X154460000Y-145178911D01*
X154460000Y-128017455D01*
X154483274Y-128033006D01*
X154737511Y-128138315D01*
X155007409Y-128192001D01*
X155282593Y-128192001D01*
X155552491Y-128138315D01*
X155806728Y-128033006D01*
X156035536Y-127880121D01*
X156230121Y-127685536D01*
X156383006Y-127456728D01*
X156488315Y-127202491D01*
X156542001Y-126932593D01*
X156542001Y-126657409D01*
X156488315Y-126387511D01*
X156383006Y-126133274D01*
X156230121Y-125904466D01*
X156035536Y-125709881D01*
X155806728Y-125556996D01*
X155729486Y-125525001D01*
X155806728Y-125493006D01*
X156035536Y-125340121D01*
X156230121Y-125145536D01*
X156383006Y-124916728D01*
X156488315Y-124662491D01*
X156542001Y-124392593D01*
X156542001Y-124117409D01*
X156488315Y-123847511D01*
X156383006Y-123593274D01*
X156230121Y-123364466D01*
X156035536Y-123169881D01*
X155806728Y-123016996D01*
X155729486Y-122985001D01*
X155806728Y-122953006D01*
X156035536Y-122800121D01*
X156230121Y-122605536D01*
X156383006Y-122376728D01*
X156488315Y-122122491D01*
X156542001Y-121852593D01*
X156542001Y-121577409D01*
X156488315Y-121307511D01*
X156383006Y-121053274D01*
X156230121Y-120824466D01*
X156035536Y-120629881D01*
X155806728Y-120476996D01*
X155729486Y-120445001D01*
X155806728Y-120413006D01*
X156035536Y-120260121D01*
X156230121Y-120065536D01*
X156383006Y-119836728D01*
X156488315Y-119582491D01*
X156542001Y-119312593D01*
X156542001Y-119037409D01*
X156488315Y-118767511D01*
X156383006Y-118513274D01*
X156230121Y-118284466D01*
X156035536Y-118089881D01*
X155806728Y-117936996D01*
X155729486Y-117905001D01*
X155806728Y-117873006D01*
X156035536Y-117720121D01*
X156230121Y-117525536D01*
X156383006Y-117296728D01*
X156488315Y-117042491D01*
X156542001Y-116772593D01*
X156542001Y-116497409D01*
X156488315Y-116227511D01*
X156383006Y-115973274D01*
X156230121Y-115744466D01*
X156035536Y-115549881D01*
X155806728Y-115396996D01*
X155729486Y-115365001D01*
X155806728Y-115333006D01*
X156035536Y-115180121D01*
X156230121Y-114985536D01*
X156383006Y-114756728D01*
X156488315Y-114502491D01*
X156542001Y-114232593D01*
X156542001Y-113957409D01*
X156488315Y-113687511D01*
X156383006Y-113433274D01*
X156230121Y-113204466D01*
X156035536Y-113009881D01*
X155806728Y-112856996D01*
X155729486Y-112825001D01*
X155806728Y-112793006D01*
X156035536Y-112640121D01*
X156230121Y-112445536D01*
X156383006Y-112216728D01*
X156488315Y-111962491D01*
X156542001Y-111692593D01*
X156542001Y-111486803D01*
X156640000Y-111584802D01*
X156640001Y-133962667D01*
X156636324Y-134000000D01*
X156650998Y-134148985D01*
X156694454Y-134292246D01*
X156765026Y-134424276D01*
X156836201Y-134511002D01*
X156860000Y-134540001D01*
X156888998Y-134563799D01*
X160111928Y-137786730D01*
X160111928Y-138925000D01*
X160128992Y-139098254D01*
X160179528Y-139264850D01*
X160261595Y-139418386D01*
X160372038Y-139552962D01*
X160506614Y-139663405D01*
X160660150Y-139745472D01*
X160826746Y-139796008D01*
X161000000Y-139813072D01*
X162200000Y-139813072D01*
X162373254Y-139796008D01*
X162539850Y-139745472D01*
X162693386Y-139663405D01*
X162827962Y-139552962D01*
X162938405Y-139418386D01*
X162992777Y-139316663D01*
X163044866Y-139380134D01*
X163270987Y-139565706D01*
X163528967Y-139703599D01*
X163808890Y-139788513D01*
X164100000Y-139817185D01*
X164391111Y-139788513D01*
X164671034Y-139703599D01*
X164929014Y-139565706D01*
X165155134Y-139380134D01*
X165340706Y-139154014D01*
X165354462Y-139128278D01*
X165510951Y-139334429D01*
X165728807Y-139527496D01*
X165980142Y-139674352D01*
X166243110Y-139766476D01*
X166473000Y-139645155D01*
X166473000Y-138327000D01*
X166453000Y-138327000D01*
X166453000Y-138073000D01*
X166473000Y-138073000D01*
X166473000Y-136754845D01*
X166243110Y-136633524D01*
X165980142Y-136725648D01*
X165728807Y-136872504D01*
X165510951Y-137065571D01*
X165354462Y-137271722D01*
X165340706Y-137245986D01*
X165155134Y-137019866D01*
X164929013Y-136834294D01*
X164671033Y-136696401D01*
X164391110Y-136611487D01*
X164100000Y-136582815D01*
X163808889Y-136611487D01*
X163773731Y-136622152D01*
X160285000Y-133133422D01*
X160285000Y-102738454D01*
X160317205Y-102690256D01*
X160395226Y-102501898D01*
X160435000Y-102301939D01*
X160435000Y-102098061D01*
X160395226Y-101898102D01*
X160317205Y-101709744D01*
X160203937Y-101540226D01*
X160059774Y-101396063D01*
X159890256Y-101282795D01*
X159701898Y-101204774D01*
X159501939Y-101165000D01*
X159298061Y-101165000D01*
X159098102Y-101204774D01*
X158909744Y-101282795D01*
X158740226Y-101396063D01*
X158596063Y-101540226D01*
X158482795Y-101709744D01*
X158404774Y-101898102D01*
X158365000Y-102098061D01*
X158365000Y-102301939D01*
X158404774Y-102501898D01*
X158482795Y-102690256D01*
X158515000Y-102738454D01*
X158515001Y-133456521D01*
X158510719Y-133500000D01*
X158527805Y-133673490D01*
X158578412Y-133840313D01*
X158660590Y-133994059D01*
X158743468Y-134095046D01*
X158743471Y-134095049D01*
X158771184Y-134128817D01*
X158804952Y-134156530D01*
X161235349Y-136586928D01*
X161061730Y-136586928D01*
X158160000Y-133685199D01*
X158160000Y-111307322D01*
X158163676Y-111269999D01*
X158160000Y-111232676D01*
X158160000Y-111232667D01*
X158149003Y-111121014D01*
X158105546Y-110977753D01*
X158034974Y-110845724D01*
X157940001Y-110729999D01*
X157911004Y-110706202D01*
X156511373Y-109306571D01*
X156542001Y-109152593D01*
X156542001Y-108877409D01*
X156488315Y-108607511D01*
X156383006Y-108353274D01*
X156230121Y-108124466D01*
X156035536Y-107929881D01*
X155806728Y-107776996D01*
X155729486Y-107745001D01*
X155806728Y-107713006D01*
X156035536Y-107560121D01*
X156230121Y-107365536D01*
X156383006Y-107136728D01*
X156488315Y-106882491D01*
X156542001Y-106612593D01*
X156542001Y-106337409D01*
X156511373Y-106183431D01*
X158111003Y-104583801D01*
X158140001Y-104560003D01*
X158166332Y-104527919D01*
X158234974Y-104444279D01*
X158305546Y-104312249D01*
X158349003Y-104168988D01*
X158360000Y-104057335D01*
X158360000Y-104057325D01*
X158363676Y-104020002D01*
X158360000Y-103982679D01*
X158360000Y-101303711D01*
X158403937Y-101259774D01*
X158517205Y-101090256D01*
X158595226Y-100901898D01*
X158635000Y-100701939D01*
X158635000Y-100498061D01*
X158595226Y-100298102D01*
X158517205Y-100109744D01*
X158403937Y-99940226D01*
X158259774Y-99796063D01*
X158090256Y-99682795D01*
X157926588Y-99615001D01*
X158607677Y-99615001D01*
X158644999Y-99618677D01*
X158682321Y-99615001D01*
X158682332Y-99615001D01*
X158793985Y-99604004D01*
X158937246Y-99560547D01*
X159069275Y-99489975D01*
X159185000Y-99395002D01*
X159208803Y-99365998D01*
X171111003Y-87463799D01*
X171140001Y-87440001D01*
X171234974Y-87324276D01*
X171254326Y-87288072D01*
X171450000Y-87288072D01*
X171574482Y-87275812D01*
X171694180Y-87239502D01*
X171804494Y-87180537D01*
X171901185Y-87101185D01*
X171980537Y-87004494D01*
X172039502Y-86894180D01*
X172075812Y-86774482D01*
X172088072Y-86650000D01*
X172088072Y-84950000D01*
X172075812Y-84825518D01*
X172039502Y-84705820D01*
X171980537Y-84595506D01*
X171901185Y-84498815D01*
X171804494Y-84419463D01*
X171694180Y-84360498D01*
X171574482Y-84324188D01*
X171450000Y-84311928D01*
X169750000Y-84311928D01*
X169625518Y-84324188D01*
X169505820Y-84360498D01*
X169395506Y-84419463D01*
X169298815Y-84498815D01*
X169219463Y-84595506D01*
X169160498Y-84705820D01*
X169139607Y-84774687D01*
X169115134Y-84744866D01*
X168889014Y-84559294D01*
X168631034Y-84421401D01*
X168351111Y-84336487D01*
X168132950Y-84315000D01*
X167987050Y-84315000D01*
X167768889Y-84336487D01*
X167488966Y-84421401D01*
X167230986Y-84559294D01*
X167004866Y-84744866D01*
X166819294Y-84970986D01*
X166784799Y-85035523D01*
X166715178Y-84918645D01*
X166520269Y-84702412D01*
X166286920Y-84528359D01*
X166024099Y-84403175D01*
X165876890Y-84358524D01*
X165647000Y-84479845D01*
X165647000Y-85673000D01*
X165667000Y-85673000D01*
X165667000Y-85927000D01*
X165647000Y-85927000D01*
X165647000Y-85947000D01*
X165393000Y-85947000D01*
X165393000Y-85927000D01*
X165373000Y-85927000D01*
X165373000Y-85673000D01*
X165393000Y-85673000D01*
X165393000Y-84479845D01*
X165163110Y-84358524D01*
X165015901Y-84403175D01*
X164753080Y-84528359D01*
X164519731Y-84702412D01*
X164324822Y-84918645D01*
X164255201Y-85035523D01*
X164220706Y-84970986D01*
X164035134Y-84744866D01*
X163809014Y-84559294D01*
X163551034Y-84421401D01*
X163271111Y-84336487D01*
X163052950Y-84315000D01*
X162907050Y-84315000D01*
X162688889Y-84336487D01*
X162614005Y-84359203D01*
X158700000Y-80445199D01*
X158700000Y-74232341D01*
X158830535Y-74145120D01*
X158950090Y-74025565D01*
X159694040Y-74025565D01*
X159761020Y-74265656D01*
X160010048Y-74382756D01*
X160277135Y-74449023D01*
X160552017Y-74461910D01*
X160824133Y-74420922D01*
X161083023Y-74327636D01*
X161198980Y-74265656D01*
X161265960Y-74025565D01*
X160480000Y-73239605D01*
X159694040Y-74025565D01*
X158950090Y-74025565D01*
X159025120Y-73950535D01*
X159178005Y-73721727D01*
X159207692Y-73650057D01*
X159212364Y-73663023D01*
X159274344Y-73778980D01*
X159514435Y-73845960D01*
X160300395Y-73060000D01*
X159514435Y-72274040D01*
X159274344Y-72341020D01*
X159210515Y-72476760D01*
X159178005Y-72398273D01*
X159025120Y-72169465D01*
X158950090Y-72094435D01*
X159694040Y-72094435D01*
X160480000Y-72880395D01*
X161265960Y-72094435D01*
X161198980Y-71854344D01*
X160949952Y-71737244D01*
X160682865Y-71670977D01*
X160407983Y-71658090D01*
X160135867Y-71699078D01*
X159876977Y-71792364D01*
X159761020Y-71854344D01*
X159694040Y-72094435D01*
X158950090Y-72094435D01*
X158830535Y-71974880D01*
X158601727Y-71821995D01*
X158347490Y-71716686D01*
X158077592Y-71663000D01*
X157802408Y-71663000D01*
X157532510Y-71716686D01*
X157278273Y-71821995D01*
X157049465Y-71974880D01*
X156854880Y-72169465D01*
X156701995Y-72398273D01*
X156596686Y-72652510D01*
X156543000Y-72922408D01*
X156543000Y-73197592D01*
X156596686Y-73467490D01*
X156701995Y-73721727D01*
X156854880Y-73950535D01*
X157049465Y-74145120D01*
X157180000Y-74232341D01*
X157180001Y-80722668D01*
X157176324Y-80760000D01*
X157190998Y-80908985D01*
X157234454Y-81052246D01*
X157305026Y-81184276D01*
X157376201Y-81271002D01*
X157400000Y-81300001D01*
X157428998Y-81323799D01*
X161145198Y-85040000D01*
X158077327Y-85040000D01*
X158040002Y-85036324D01*
X158002677Y-85040000D01*
X158002669Y-85040000D01*
X157891016Y-85050997D01*
X157747755Y-85094454D01*
X157615726Y-85165026D01*
X157500001Y-85259999D01*
X157476203Y-85288997D01*
X155436572Y-87328629D01*
X155282593Y-87298001D01*
X155007409Y-87298001D01*
X154737511Y-87351687D01*
X154483274Y-87456996D01*
X154460000Y-87472547D01*
X154460000Y-71432279D01*
X154488625Y-71140341D01*
X154564035Y-70890571D01*
X154686522Y-70660208D01*
X154851422Y-70458020D01*
X155052450Y-70291714D01*
X155281954Y-70167622D01*
X155531195Y-70090469D01*
X155821088Y-70060000D01*
X177367721Y-70060000D01*
X177659659Y-70088625D01*
G36*
X178198749Y-88680859D02*
G01*
X178184606Y-88695001D01*
X178198749Y-88709144D01*
X178019144Y-88888749D01*
X178005001Y-88874606D01*
X177990859Y-88888749D01*
X177811254Y-88709144D01*
X177825396Y-88695001D01*
X177811254Y-88680859D01*
X177990859Y-88501254D01*
X178005001Y-88515396D01*
X178019144Y-88501254D01*
X178198749Y-88680859D01*
X178198749Y-88680859D01*
G37*
X178198749Y-88680859D02*
X178184606Y-88695001D01*
X178198749Y-88709144D01*
X178019144Y-88888749D01*
X178005001Y-88874606D01*
X177990859Y-88888749D01*
X177811254Y-88709144D01*
X177825396Y-88695001D01*
X177811254Y-88680859D01*
X177990859Y-88501254D01*
X178005001Y-88515396D01*
X178019144Y-88501254D01*
X178198749Y-88680859D01*
M02*
